SplineFontDB: 3.0
FontName: KleiBld
FullName: Klei Bold
FamilyName: Klei
Weight: Bold
Copyright: Copyright (c) 2015, Joseph Steck, Rocketroom, LLC. All rights reserved.
UComments: "For my beloved Alisa +ACIA-Clay+ACIA Steck+AAoA-2015-02-14: Created with FontForge (http://fontforge.org)"
Version: 001.000
ItalicAngle: 0
UnderlinePosition: -100
UnderlineWidth: 50
Ascent: 768
Descent: 232
InvalidEm: 0
LayerCount: 2
Layer: 0 0 "Back" 1
Layer: 1 0 "Fore" 0
PreferredKerning: 4
XUID: [1021 610 -1734517455 9502657]
FSType: 0
OS2Version: 3
OS2_WeightWidthSlopeOnly: 0
OS2_UseTypoMetrics: 1
CreationTime: 1424325067
ModificationTime: 1535591515
PfmFamily: 17
TTFWeight: 400
TTFWidth: 5
LineGap: 90
VLineGap: 0
Panose: 2 0 5 3 0 0 0 0 0 0
OS2TypoAscent: 0
OS2TypoAOffset: 1
OS2TypoDescent: 0
OS2TypoDOffset: 1
OS2TypoLinegap: 90
OS2WinAscent: 0
OS2WinAOffset: 1
OS2WinDescent: 0
OS2WinDOffset: 1
HheadAscent: 0
HheadAOffset: 1
HheadDescent: 0
HheadDOffset: 1
OS2Vendor: 'PfEd'
OS2CodePages: 20000001.00000000
OS2UnicodeRanges: 00000005.00000000.00000000.00000000
Lookup: 4 0 1 "'liga' Standard Ligatures in Latin lookup 0" { "'liga' ffi"  "'liga' ffl"  "'liga' fi"  "'liga' ff"  "'liga' fl"  } ['liga' ('DFLT' <'dflt' > 'latn' <'dflt' > ) ]

StartChar: s
Encoding: 115 115 0
GlifName: s
Width: 484
VWidth: 0
Flags: W
HStem: -10 40.4434<176.874 280.587> 469.515 36.2139<228.304 303.892>
VStem: 59.0039 81.873<67.4593 124.098> 82.6777 126.483<351.28 437.764> 304.924 123.791<69.393 160.847>
LayerCount: 2
Fore
SplineSet
140.876953125 146.182617188 m 0xe8
 146.624023438 112.026367188 151.008789062 30.443359375 230.234375 30.443359375 c 0
 281.083984375 30.443359375 304.923828125 73.7119140625 304.923828125 112.604492188 c 0
 304.923828125 149.173828125 266.74609375 186.133789062 213.701171875 217.471679688 c 0
 167.2578125 245.05859375 82.677734375 301.298828125 82.677734375 370.005859375 c 0
 82.677734375 449.794921875 155.826171875 505.728515625 261.946289062 505.728515625 c 0
 322.383789062 505.728515625 402.122070312 487.63671875 402.122070312 464 c 0
 402.122070312 453.447265625 392.079101562 387.336914062 366 387.336914062 c 0
 334.2421875 387.336914062 319.823242188 469.514648438 264.384765625 469.514648438 c 0
 224.303710938 469.514648438 209.161132812 422.017578125 209.161132812 399.092773438 c 0xd8
 209.161132812 352.291992188 269.629882812 318.19921875 312.734375 291.750976562 c 0
 365.958007812 255.188476562 428.71484375 214.923828125 428.71484375 143.517578125 c 0
 428.71484375 48.83203125 339.262695312 -10 239.517578125 -10 c 0
 119.216796875 -10 59.00390625 49.1689453125 59.00390625 83 c 0
 59.00390625 101.434570312 101.258789062 157.54296875 127 157.54296875 c 0
 132.674804688 157.54296875 140.147460938 150.516601562 140.876953125 146.182617188 c 0xe8
EndSplineSet
Validated: 1
EndChar

StartChar: W
Encoding: 87 87 1
GlifName: W_
Width: 1097
VWidth: 0
Flags: W
HStem: -7.8291 21G<393.83 402.127 695.723 704.094> 701 29<50 56.9062 259.047 300.98 376 413.373 539.087 580 625 666.554 760.022 799 873 914.02 1060.09 1067>
LayerCount: 2
Fore
SplineSet
1067 701 m 1
 1060.09375 700.486328125 l 2
 1029.22851562 698.481445312 1022.42871094 683.634765625 1010 656 c 2
 1010 656 753.282226562 79.9091796875 730.326171875 25.2705078125 c 1
 725.583007812 14.5498046875 722.118164062 7.0390625 722.08203125 6.9599609375 c 0
 718.247070312 -1.486328125 708.215820312 -7.8291015625 699.97265625 -7.8291015625 c 0
 691.473632812 -7.8291015625 682.587890625 -0.28515625 679.559570312 6.734375 c 0
 676.620117188 13.5458984375 632.369140625 153.615234375 572.975585938 320.579101562 c 1
 428.33203125 25.564453125 l 0
 423.650390625 14.7744140625 420.131835938 7 420.114257812 6.9609375 c 0
 416.280273438 -1.486328125 406.249023438 -7.8291015625 398.004882812 -7.8291015625 c 0
 389.654296875 -7.8291015625 380.509765625 -0.4833984375 377.530273438 6.880859375 c 0
 372.506835938 19.0654296875 178.9921875 475.73046875 108.155273438 646.700195312 c 0
 101.2578125 662.9453125 l 0
 90.12890625 689.716796875 85 698 56.90625 700.486328125 c 2
 50 701 l 1
 50 701 45.3916015625 707.552734375 45.3916015625 716.3046875 c 0
 45.3916015625 724.3046875 50 730 50 730 c 1
 300.98046875 730 l 1
 300.98046875 730 304.391601562 725.056640625 304.391601562 716.3046875 c 0
 304.391601562 708.3046875 301 701 301 701 c 1
 294.947265625 700.91796875 l 2
 272.991210938 700.620117188 248.865234375 686.48046875 248.865234375 665 c 0
 248.865234375 660.379882812 250.08203125 658.720703125 252.34375 651.508789062 c 1
 435.078125 228.791992188 l 1
 529.100585938 410.892578125 l 1
 427 665 l 2
 416.806640625 688.91796875 400.986328125 700.73046875 383.604492188 700.91796875 c 2
 376 701 l 1
 376 701 372.391601562 707.552734375 372.391601562 716.3046875 c 0
 372.391601562 724.3046875 376 730 376 730 c 1
 580 730 l 1
 580 730 583.391601562 725.056640625 583.391601562 716.3046875 c 0
 583.391601562 708.3046875 580 701 580 701 c 1
 572.803710938 701.052734375 l 2
 552 701 530.602539062 686.186523438 530.602539062 668 c 0
 530.602539062 662.760742188 531.96875 658.474609375 535.576171875 649.311523438 c 1
 596.7890625 512.91015625 l 1
 624.377929688 567.239257812 642.044921875 591.559570312 665.296875 645.11328125 c 1
 671.517578125 658.959960938 672.875 662.303710938 672.875 669 c 0
 672.875 687.280273438 656.0078125 700.709960938 637.348632812 700.91796875 c 2
 625 701 l 1
 625 701 620.391601562 707.552734375 620.391601562 716.3046875 c 0
 620.391601562 724.3046875 625 730 625 730 c 1
 799 730 l 1
 799 730 803.391601562 725.056640625 803.391601562 716.3046875 c 0
 803.391601562 708.3046875 800 701 800 701 c 1
 792.39453125 700.91796875 l 2
 763.993164062 700.611328125 758.709960938 687.356445312 746.766601562 662.130859375 c 2
 637.168945312 431.826171875 l 1
 719.75390625 222.828125 l 1
 802.862304688 389.48828125 844.099609375 482.438476562 915.3984375 644.553710938 c 1
 919 652 923 661.157226562 923 668 c 0
 923 686.315429688 899.984375 700.686523438 880.057617188 700.91796875 c 2
 873 701 l 1
 873 701 869.391601562 707.552734375 869.391601562 716.3046875 c 0
 869.391601562 724.3046875 873 730 873 730 c 1
 1067 730 l 1
 1067 730 1070.39160156 724.056640625 1070.39160156 715.3046875 c 0
 1070.39160156 707.3046875 1067 701 1067 701 c 1
EndSplineSet
Validated: 1
EndChar

StartChar: A
Encoding: 65 65 2
GlifName: A_
Width: 835
VWidth: 0
Flags: W
HStem: 0 30<50 88.8396 210.258 247 531 571.586 735.801 772> 295 53<322.264 462.952> 715.309 20G<429.423 445.738>
LayerCount: 2
Fore
SplineSet
775 15 m 1048,0,-1
772 0 m 1,1,-1
 531 0 l 1,2,-1
 531 0 527 6.248046875 527 15 c 0,5,-1
 527 23 531 30 531 30 c 1,8,-1
 538 30 l 2,9,-1
 560 30 581.481445312 46.97265625 581.481445312 68.3544921875 c 0,12,-1
 581.481445312 73.466796875 581.161132812 79.0751953125 578.525390625 85.3125 c 0,15,-1
 483.860351562 295 l 1,16,-1
 303.412109375 295 l 0,17,-1
 302.286132812 295 302.26171875 294.868164062 302.26171875 294.868164062 c 1,20,-1
 302.069335938 294.694335938 301.337890625 293.592773438 300.287109375 291.204101562 c 0,23,-1
 213.447265625 90.07421875 l 1,24,-1
 207.5625 76.875 205.4765625 67.7001953125 205.4765625 61.5302734375 c 0,27,-1
 205.4765625 43.1162109375 220 30 240 30 c 2,30,-1
 247 30 l 1,31,-1
 247 30 251 23.751953125 251 15 c 0,34,-1
 251 7 247 0 247 0 c 1,37,-1
 50 0 l 1,38,-1
 50 0 46 6.248046875 46 15 c 0,41,-1
 46 23 50 30 50 30 c 1,44,-1
 57 30 l 2,45,-1
 88.5341796875 30 93.841796875 52.5791015625 106.588867188 79.1318359375 c 1,48,-1
 380.123046875 708.659179688 l 1,49,-1
 381.51953125 709.752929688 l 0,50,-1
 395.3671875 720.599609375 418.040039062 718.686523438 429.422851562 728.493164062 c 0,53,-1
 437.178710938 735.30859375 l 1,54,-1
 726.399414062 59.5390625 l 1,55,-1
 733.770507812 44.6083984375 746 30 765 30 c 2,58,-1
 772 30 l 1,59,-1
 772 30 775 23.751953125 775 15 c 0,62,-1
 775 7 772 0 772 0 c 1,1,-1
394.107421875 514.541015625 m 1,65,-1
 322.263671875 348 l 1,66,-1
 462.952148438 348 l 1,67,-1
 394.107421875 514.541015625 l 1,65,-1
EndSplineSet
Validated: 1
EndChar

StartChar: O
Encoding: 79 79 3
GlifName: O_
Width: 868
VWidth: 0
Flags: W
HStem: -10 50.667<357.835 532.793> 684.77 49.0391<337.187 524.532>
VStem: 65 153.326<218.765 492.585> 652.246 151.326<236.6 499.484>
LayerCount: 2
Fore
SplineSet
431.301757812 733.80859375 m 0
 639.639648438 733.80859375 803.572265625 607.61328125 803.572265625 360.783203125 c 0
 803.572265625 123.736328125 607.115234375 -10 433.245117188 -10 c 0
 304.432617188 -10 65 53.6591796875 65 351.94921875 c 0
 65 599.623046875 227.1015625 733.80859375 431.301757812 733.80859375 c 0
423.975585938 684.76953125 m 0
 236.1484375 684.76953125 218.326171875 452.103515625 218.326171875 384.29296875 c 0
 218.326171875 77.96484375 377.994140625 40.6669921875 441.186523438 40.6669921875 c 0
 559.84375 40.6669921875 652.24609375 124.952148438 652.24609375 376.696289062 c 0
 652.24609375 529.615234375 603.345703125 684.76953125 423.975585938 684.76953125 c 0
EndSplineSet
Validated: 1
EndChar

StartChar: V
Encoding: 86 86 4
GlifName: V_
Width: 769
VWidth: 0
Flags: W
HStem: -8 21G<412.191 422.559> 701 29<60 99.4715 272.943 315 593 634.686 740.279 779>
LayerCount: 2
Fore
SplineSet
780 701 m 1
 772 701 l 2
 743 701 738.611328125 685.818359375 724.309570312 658.627929688 c 1
 443.109375 24.9521484375 l 1
 437.922851562 13.1201171875 434.834960938 6.26953125 434.82421875 6.2451171875 c 0
 434.739257812 6.0546875 l 1
 434.643554688 5.869140625 l 0
 433.177734375 3.025390625 428.1796875 -8 416.9375 -8 c 0
 407.444335938 -8 400.720703125 -0.759765625 397.908203125 6.5146484375 c 0
 303.951171875 228.434570312 201.31640625 439.224609375 110 665.551757812 c 0
 100.251953125 689.711914062 93 701 67 701 c 2
 60 701 l 1
 60 701 55.3916015625 707.552734375 55.3916015625 716.3046875 c 0
 55.3916015625 724.3046875 60 730 60 730 c 1
 315.5 730 l 1
 315.5 730 318.391601562 725.056640625 318.391601562 716.3046875 c 0
 318.391601562 708.3046875 315 701 315 701 c 1
 308.28125 701 l 2
 286 701 263.228515625 683.776367188 263.228515625 669.515625 c 0
 263.228515625 665.904296875 263.848632812 659.177734375 266.659179688 652.181640625 c 1
 446.529296875 232.461914062 l 1
 635.53125 645.7109375 l 1
 641.44921875 659.484375 643.591796875 663.051757812 643.591796875 669.165039062 c 0
 643.591796875 685.606445312 621 701 599.90625 701 c 2
 593 701 l 1
 593 701 588.391601562 707.552734375 588.391601562 716.3046875 c 0
 588.391601562 724.3046875 593 730 593 730 c 1
 779 730 l 1
 779 730 783.391601562 725.056640625 783.391601562 716.3046875 c 0
 783.391601562 708.3046875 780 701 780 701 c 1
EndSplineSet
Validated: 1
EndChar

StartChar: H
Encoding: 72 72 5
GlifName: H_
Width: 857
VWidth: 0
Flags: W
HStem: 0.304688 29<64 109.011 288.474 315.006 539.392 566.922 763.998 791.397> 373.211 52.3809<262.739 591.748> 701.305 29<64 108.568 287.526 315.006 539.392 566.924 764.359 791.397>
VStem: 119.115 143.334<33.5867 373.371 425.407 696.806> 591.749 146.566<32.6813 373.293 427.427 697.563>
LayerCount: 2
Fore
SplineSet
315.005859375 730.3046875 m 1
 315.005859375 730.3046875 319 724.751953125 319 716 c 0
 319 708 315.005859375 701 315.005859375 701 c 1
 304.200195312 700.2109375 296.721679688 699.915039062 287.075195312 698.004882812 c 0
 270.77734375 694.77734375 262.815429688 676.241210938 262.815429688 666.263671875 c 0
 262.815429688 611.204101562 262.659179688 567.138671875 262.659179688 512.098632812 c 0
 262.659179688 484.515625 262.696289062 452.692382812 262.811523438 427.390625 c 0
 262.825195312 426.17578125 266.256835938 425.77734375 268.540039062 425.591796875 c 0
 317.720703125 425.038085938 354.282226562 424.358398438 418.822265625 424.358398438 c 0
 486.629882812 424.358398438 533.234375 425.104492188 587.215820312 425.674804688 c 5
 590 425.674804688 591.749023438 427.426757812 591.749023438 427.426757812 c 1
 591.749023438 666.553710938 l 1
 591.63671875 676.53125 583.654296875 695.646484375 567.374023438 698.8671875 c 0
 557.724609375 700.776367188 551.247070312 701.072265625 539.391601562 701.3046875 c 1
 539.391601562 701.3046875 535.391601562 707.552734375 535.391601562 716.3046875 c 0
 535.391601562 724.3046875 539.391601562 730.3046875 539.391601562 730.3046875 c 1
 791.397460938 730.609375 l 1
 791.397460938 730.609375 795.391601562 725.056640625 795.391601562 716.3046875 c 0
 795.391601562 708.3046875 791.397460938 701.3046875 791.397460938 701.3046875 c 1
 781.028320312 700.96484375 773.555664062 700.669921875 763.908203125 698.750976562 c 0
 747.732421875 695.536132812 738.728515625 677.510742188 738.314453125 667.084960938 c 1
 736.284179688 575.07421875 735.447265625 492.666992188 735.447265625 400.322265625 c 0
 735.447265625 284.805664062 736.655273438 179.88671875 738.315429688 64.3232421875 c 1
 738.733398438 54.853515625 747.748046875 34.78515625 763.546875 31.6494140625 c 0
 773.197265625 29.734375 780.66796875 29.4345703125 791.397460938 29.609375 c 1
 791.397460938 29.609375 795.391601562 24.056640625 795.391601562 15.3046875 c 0
 795.391601562 7.3046875 791.397460938 0.3046875 791.397460938 0.3046875 c 1
 539.391601562 0.3046875 l 1
 539.391601562 0.3046875 535.391601562 6.552734375 535.391601562 15.3046875 c 0
 535.391601562 23.3046875 539.391601562 29.3046875 539.391601562 29.3046875 c 1
 550.248046875 29.447265625 557.727539062 29.7451171875 567.373046875 31.6630859375 c 0
 583.286132812 34.8271484375 591.506835938 53.7685546875 591.749023438 62.853515625 c 1
 591.749023438 371.379882812 l 2
 591.749023438 372.588867188 589.405273438 372.875 586.532226562 373.12890625 c 0
 532.712890625 373.696289062 485.694335938 374.446289062 418.822265625 374.446289062 c 0
 354.983398438 374.446289062 318.958007812 373.770507812 269.189453125 373.2109375 c 0
 266.693359375 373.046875 262.848632812 372.740234375 262.810546875 371.341796875 c 0
 262.5390625 336.002929688 262.44921875 295.5546875 262.44921875 260.05078125 c 0
 262.44921875 189.86328125 262.803710938 133.08984375 262.806640625 63.0869140625 c 1
 263.594726562 53.2919921875 272.659179688 34.7138671875 288.024414062 31.6630859375 c 0
 297.673828125 29.7470703125 304.15234375 29.751953125 315.005859375 29.3046875 c 1
 315.005859375 29.3046875 319 23.751953125 319 15 c 0
 319 7 315.005859375 0 315.005859375 0 c 1
 64 0 l 1
 64 0 60 6.248046875 60 15 c 0
 60 23 64 29 64 29 c 1
 74.8544921875 29.4345703125 82.3349609375 29.73046875 91.98046875 31.6494140625 c 0
 108.217773438 34.876953125 116.240234375 54.724609375 116.240234375 64.5224609375 c 1
 117.908203125 181.28125 119.115234375 287.7734375 119.115234375 404.247070312 c 0
 119.115234375 494.900390625 118.270507812 575.295898438 116.2578125 665.846679688 c 1
 116.247070312 675.356445312 108.15234375 695.541015625 91.984375 698.750976562 c 0
 82.333984375 700.66796875 74.861328125 700.96484375 64 701 c 1
 64 701 60 707.248046875 60 716 c 0
 60 724 64 730 64 730 c 1
 315.005859375 730.3046875 l 1
EndSplineSet
Validated: 1
EndChar

StartChar: m
Encoding: 109 109 6
GlifName: m
Width: 949
VWidth: 0
Flags: W
HStem: 0 28.7012<57 88.6033 231.307 263.077 378.32 409.918 544.014 575.441 700.186 731.791 863.881 895.309> 451.892 26.0195<59.4092 89.2626> 467.936 43.3193<259.538 379.642 588.592 696.008>
VStem: 93.2275 133.683<29.8901 443.531> 414.545 124.727<29.901 393.973> 736.413 122.728<29.9199 424.324>
LayerCount: 2
Fore
SplineSet
226.91015625 53.365234375 m 5xbc
 229.3046875 41.7275390625 240.771484375 28.8984375 256.169921875 28.701171875 c 6
 263.077148438 28.6123046875 l 5
 263.077148438 0 l 5
 57 0 l 5
 57 28.6015625 l 5
 63.9072265625 28.6904296875 l 6
 79.541015625 28.890625 91.0322265625 42.3447265625 93.2275390625 53.658203125 c 5
 93.2275390625 421.466796875 l 6
 93.2275390625 442.3203125 81.2158203125 451.891601562 64.4091796875 451.891601562 c 6
 59.4091796875 451.891601562 l 5
 59.4091796875 477.911132812 l 5xdc
 209.33203125 512.456054688 l 4
 211 513 213.4140625 513 214.380859375 513 c 4
 227.231445312 513 226.967773438 498.931640625 227.001953125 489.821289062 c 4
 227.001953125 482.668945312 226.999023438 473.956054688 226.997070312 467.791992188 c 5
 265.392578125 495.193359375 285.3046875 511.254882812 345.564453125 511.254882812 c 4
 408.514648438 511.254882812 458.709960938 487.41796875 492.08203125 431.501953125 c 5
 533.541015625 492.947265625 608.271484375 508.254882812 676.413085938 508.254882812 c 4
 774.147460938 508.254882812 859.208007812 455.98828125 859.208007812 346.090820312 c 4
 859.140625 53.470703125 l 5
 861.530273438 41.80859375 872.984375 28.96484375 888.401367188 28.767578125 c 6
 895.30859375 28.6787109375 l 5
 895.30859375 0 l 5
 700.185546875 0 l 5
 700.185546875 28.611328125 l 5
 707.092773438 28.69921875 l 6
 722.729492188 28.8994140625 734.220703125 42.3564453125 736.413085938 53.67578125 c 5
 736.413085938 341.447265625 l 4
 736.413085938 418.107421875 690.946289062 466.935546875 658.634765625 466.935546875 c 4
 619.698242188 466.935546875 578.65625 455.3125 537.830078125 394.26171875 c 5
 539.09375 388.043945312 539.33984375 385.352539062 539.33984375 379.859375 c 4
 539.271484375 53.380859375 l 5
 541.661132812 41.7294921875 553.125 28.896484375 568.534179688 28.69921875 c 6
 575.44140625 28.611328125 l 5
 575.44140625 0 l 5
 378.3203125 0 l 5
 378.3203125 28.6123046875 l 5
 385.227539062 28.701171875 l 6
 400.864257812 28.9013671875 412.340820312 42.3583984375 414.544921875 53.66796875 c 5
 414.544921875 348.264648438 l 4
 414.544921875 414.315429688 380.391601562 467.935546875 333.224609375 467.935546875 c 4
 291.184570312 467.935546875 264.319335938 455.344726562 226.989257812 429.392578125 c 5
 226.91015625 53.365234375 l 5xbc
EndSplineSet
Validated: 1
EndChar

StartChar: w
Encoding: 119 119 7
GlifName: w
Width: 858
VWidth: 0
Flags: W
HStem: -11 21.6299G<263.311 271.432 582.879 590.375> 483 23.3516<47 68.7672 203.662 227.002 337.252 362.717 491.936 519.563 681.526 708.256 795.523 818.332>
LayerCount: 2
Fore
SplineSet
681.526367188 483.651367188 m 5
 681.526367188 506.12109375 l 5
 818.33203125 506.12109375 l 5
 818.33203125 483.696289062 l 5
 803 483.696289062 790.369140625 468.015625 786 456 c 4
 785.240234375 453.897460938 762.279296875 393.696289062 724.212890625 300.396484375 c 4
 671.237304688 170.556640625 607.958007812 11.8759765625 603.03515625 2.4052734375 c 4
 599.15234375 -5.2734375 593.9296875 -10.3701171875 586.8203125 -10.3701171875 c 4
 578.9375 -10.3701171875 571.573242188 -3.4072265625 568.635742188 4.369140625 c 4
 549.180664062 55.865234375 519.173828125 116.951171875 493 195 c 4
 487.616210938 211.0546875 450.73046875 298.206054688 445.151367188 312.887695312 c 5
 440.643554688 302.14453125 438.056640625 294.231445312 433.400390625 284.694335938 c 4
 367.875976562 150.48828125 290.087890625 11.62890625 286.749023438 3.0244140625 c 4
 283.276367188 -5.9267578125 275.165039062 -11 267.698242188 -11 c 4
 258.922851562 -11 253.442382812 -4.166015625 250.197265625 2.943359375 c 4
 228.397460938 49.41015625 202.49609375 125.672851562 143.879882812 282.265625 c 4
 108.141601562 377.740234375 76.2314453125 454.4296875 76 455 c 4
 71.2373046875 466.18359375 68.2861328125 483.6328125 47 483.6328125 c 5
 47 506.3515625 l 5
 227.001953125 506.3515625 l 5
 227.001953125 483 l 5
 219.904296875 483 l 6
 204.7578125 483 201.736328125 468.548828125 201.736328125 460.467773438 c 4
 201.736328125 456.794921875 204.50390625 449.375 206 445 c 4
 206.0234375 444.926757812 221.907226562 400.51171875 251.528320312 319.5234375 c 4
 275.032226562 255.260742188 286.208007812 231.01171875 299 198 c 5
 315.25390625 234.48828125 327.970703125 254.416015625 357.455078125 321.674804688 c 4
 370.890625 352.32421875 384.499023438 385.6875 393.186523438 408.70703125 c 5
 377.369140625 449.451171875 367.20703125 461.489257812 367 462 c 4
 361.288085938 475.333007812 358.826171875 483.29296875 337.251953125 483.29296875 c 5
 337.251953125 506.3515625 l 5
 519.563476562 506.3515625 l 5
 519.563476562 483 l 5
 513.46484375 483 l 6
 499.127929688 483 491.372070312 476.724609375 491.372070312 467.099609375 c 4
 491.372070312 463.21484375 493.309570312 456.784179688 495 452 c 4
 495.022460938 451.935546875 516.465820312 400.5234375 546.091796875 319.5234375 c 4
 569.545898438 255.397460938 583.435546875 223.41796875 596 191 c 5
 611.208007812 226.8046875 626.224609375 251.124023438 654.93359375 317.674804688 c 4
 687.291992188 392.686523438 704.962890625 446.875 705 447 c 4
 706.548828125 452.161132812 709.293945312 459.858398438 709.293945312 465.098632812 c 4
 709.293945312 476.619140625 700.8671875 483.349609375 684.618164062 483.559570312 c 6
 681.526367188 483.651367188 l 5
EndSplineSet
Validated: 1
EndChar

StartChar: x
Encoding: 120 120 8
GlifName: x
Width: 620
VWidth: 0
Flags: W
HStem: 0.00195312 28.7432<49.0352 79.9287 188.143 218.201 371.796 401.871 523.823 552.893> 477.03 29.4844<80.1406 110.441 237.556 260.512 372.396 403.165 496.892 525>
LayerCount: 2
Fore
SplineSet
520.965820312 46.201171875 m 4
 525.821289062 41.0439453125 534.838867188 28.876953125 544.986328125 28.7451171875 c 6
 552.892578125 28.6552734375 l 5
 552.892578125 0.001953125 l 5
 371.795898438 -0.0439453125 l 5
 371.686523438 29.4248046875 l 5
 378.625 29.517578125 l 6
 391.626953125 29.69140625 401.938476562 35.802734375 401.938476562 43.9443359375 c 7
 401.938476562 51.1220703125 395.698242188 60.95703125 395 62 c 5
 395 62 356.401367188 117.7109375 302.208984375 195.208007812 c 5
 254.309570312 135.728515625 208.17578125 79.4677734375 197 65 c 5
 195.379882812 62.7578125 187.875976562 54.3759765625 187.875976562 45 c 4
 187.875976562 35.4541015625 203.010742188 29.6298828125 211.298828125 29.51953125 c 6
 218.20703125 29.427734375 l 5
 218.201171875 -0.0400390625 l 5
 49.03515625 -0.0400390625 l 5
 49 28.642578125 l 5
 55.9140625 28.732421875 l 6
 66.9033203125 28.875 78.1767578125 40.9091796875 82.39453125 45.4853515625 c 4
 86.9970703125 51.16796875 183.887695312 185.052734375 257.748046875 269.928710938 c 5
 201.181640625 348.1328125 115.951171875 455.1171875 113.674804688 458.282226562 c 4
 107.888671875 465.538085938 99.337890625 477.663085938 87.0126953125 477.826171875 c 6
 80.140625 477.916992188 l 5
 80 506.514648438 l 5
 260.51171875 506.514648438 l 5
 260.51171875 477.12109375 l 5
 253.083984375 477.030273438 l 6
 240.4296875 476.875976562 237.440429688 466.287109375 237.440429688 460.509765625 c 4
 237.440429688 456.518554688 241.568359375 449.146484375 246 443 c 6
 246 443 267.571289062 414.412109375 317.013671875 345.157226562 c 5
 382.541015625 425.870117188 396.395507812 443.106445312 397 444 c 4
 400.55859375 448.849609375 403.271484375 456.908203125 403.271484375 461.201171875 c 4
 403.271484375 468.374023438 394.1484375 476.920898438 379.28125 477.119140625 c 6
 372.396484375 477.2109375 l 5
 372.301757812 506.512695312 l 5
 525 506.514648438 l 5
 525 477.991210938 l 5
 519.079101562 477.915039062 l 6
 505.9375 477.771484375 497.666992188 463.189453125 493 457 c 4
 491.532226562 455.053710938 425.634765625 365.973632812 357.21484375 282.743164062 c 5
 417.5 198.868164062 481.721679688 87.8974609375 520.965820312 46.201171875 c 4
EndSplineSet
Validated: 1
EndChar

StartChar: X
Encoding: 88 88 9
GlifName: X_
Width: 809
VWidth: 0
Flags: W
HStem: 0 29<36 66.2157 209.028 237.98 501 545.561 731.808 764.98> 701 29<70 101.894 314.242 344.98 526 566.27 685.031 716.98>
LayerCount: 2
Fore
SplineSet
765 0 m 1
 501 0 l 1
 501 0 496.391601562 6.552734375 496.391601562 15.3046875 c 0
 496.391601562 23.3046875 501 29 501 29 c 1
 507.220703125 28.947265625 l 0
 515.126953125 29.0517578125 520.692382812 30.0869140625 527.7734375 32.2421875 c 0
 538.721679688 35.57421875 548.744140625 43.1279296875 548.744140625 52 c 0
 548.744140625 59.8818359375 538.290039062 75.4423828125 529.37109375 89.494140625 c 1
 379.186523438 309.346679688 l 1
 315.029296875 224.837890625 275.352539062 170.528320312 213.34375 87.2841796875 c 1
 198.067382812 66.7177734375 193.522460938 58.484375 193.522460938 53 c 0
 193.522460938 47.728515625 197.875 37.2705078125 208.727539062 33.2392578125 c 0
 215.12109375 30.8642578125 222.77734375 29.060546875 231.290039062 28.947265625 c 0
 237.98046875 29 l 1
 237.98046875 29 241.391601562 24.056640625 241.391601562 15.3046875 c 0
 241.391601562 7.3046875 238 0 238 0 c 1
 36 0 l 1
 36 0 31.3916015625 6.552734375 31.3916015625 15.3046875 c 0
 31.3916015625 23.3046875 36 29 36 29 c 1
 42.908203125 29.3837890625 l 0
 51.0537109375 29.4892578125 59.1953125 30.7568359375 66.5615234375 33.6201171875 c 0
 78.404296875 38.2236328125 89.220703125 55.73046875 101.001953125 71.78125 c 0
 332.53515625 378.979492188 l 1
 239.354492188 508.497070312 167.021484375 615.157226562 124.958984375 671.244140625 c 0
 116.551757812 682.453125 110.393554688 693.495117188 102.231445312 697.227539062 c 0
 95.08203125 700.497070312 84.748046875 700.368164062 76.65625 700.47265625 c 0
 70 701 l 1
 70 701 65.3916015625 707.552734375 65.3916015625 716.3046875 c 0
 65.3916015625 724.3046875 70 730 70 730 c 1
 344.98046875 730 l 1
 344.98046875 730 348.391601562 725.056640625 348.391601562 716.3046875 c 0
 348.391601562 708.3046875 345 701 345 701 c 1
 338.338867188 700.907226562 l 0
 330.420898438 700.80078125 320.61328125 700.180664062 313.926757812 697.61328125 c 0
 302.227539062 693.12109375 296.517578125 679.780273438 296.517578125 673 c 0
 296.517578125 667.786132812 299.166015625 658.740234375 308.38671875 645.025390625 c 0
 427.690429688 482.553710938 l 1
 547.420898438 651.278320312 l 1
 558.858398438 666.904296875 566.75390625 676.27734375 566.75390625 683.16796875 c 0
 566.75390625 694.96875 553 700 532.952148438 700.831054688 c 2
 526 701 l 1
 526 701 521.391601562 707.552734375 521.391601562 716.3046875 c 0
 521.391601562 724.3046875 526 730 526 730 c 1
 716.98046875 730 l 1
 716.98046875 730 720.391601562 725.056640625 720.391601562 716.3046875 c 0
 720.391601562 708.3046875 717 701 717 701 c 1
 709.336914062 701.397460938 l 0
 701.189453125 701.291015625 692.046875 700.02734375 684.684570312 697.163085938 c 0
 672.850585938 692.559570312 660.08984375 674.010742188 648.212890625 657.963867188 c 0
 477.836914062 412.666992188 l 1
 488.922851562 397.3671875 l 1
 585.953125 261.180664062 663.478515625 120.629882812 707.741210938 61.6103515625 c 0
 716.146484375 50.4033203125 723.3046875 37.3662109375 731.469726562 34.6298828125 c 0
 738.598632812 32.240234375 750.817382812 29.48828125 758.900390625 29.3837890625 c 0
 764.98046875 29 l 1
 764.98046875 29 768.391601562 24.056640625 768.391601562 15.3046875 c 0
 768.391601562 7.3046875 765 0 765 0 c 1
EndSplineSet
Validated: 1
EndChar

StartChar: d
Encoding: 100 100 10
GlifName: d
Width: 612
VWidth: 0
Flags: W
HStem: -10 43.8711<247.913 363.559> 482 31.166<247.679 342.807> 685.496 25.9609<347.559 377.456> 727.668 20G<503.227 505.621>
VStem: 47.001 130.022<134.13 384.263> 383.408 133.781<54.1853 67.2774 67.2822 446.824 490 684.912>
LayerCount: 2
Fore
SplineSet
553.931640625 57.9853515625 m 1
 558.404296875 21.4716796875 l 1
 528.944335938 8.1982421875 477.71875 -7.3994140625 448.309570312 -7.3994140625 c 0
 426.249023438 -7.3994140625 387.638671875 10.9306640625 384.728515625 24.4404296875 c 1
 350.119140625 2.3955078125 341.841796875 -10 290.903320312 -10 c 0
 159.6171875 -10 47.0009765625 64.349609375 47.0009765625 264.028320312 c 0
 47.0009765625 427.935546875 138.709960938 513.166015625 287.837890625 513.166015625 c 0
 341.849609375 513.166015625 342.999023438 505.953125 383.408203125 490 c 1
 383.408203125 654.149414062 l 2
 383.408203125 675.74609375 372.612304688 685.49609375 354.978515625 685.49609375 c 2
 347.55859375 685.49609375 l 1
 347.55859375 711.45703125 l 1
 499.541992188 747.041015625 l 0
 500.979492188 747.42578125 502.453125 747.66796875 504 747.66796875 c 0
 507.2421875 747.66796875 510.897460938 746.26171875 513.208984375 743.40234375 c 0
 517.469726562 738.134765625 517.25390625 731.629882812 517.28515625 723.424804688 c 0
 517.189453125 67.2822265625 l 1
 517.189453125 67.2822265625 517.467773438 60.7001953125 517.467773438 59.1064453125 c 0
 517.467773438 49.6728515625 l 1
 528.046875 51.91796875 543.627929688 54.923828125 553.931640625 57.9853515625 c 1
383.408203125 69.140625 m 1
 383.408203125 388.743164062 l 1
 369.79296875 449.66015625 347.598632812 482 288.897460938 482 c 0
 227.216796875 482 177.0234375 385.881835938 177.0234375 274.883789062 c 0
 177.0234375 132.408203125 218.676757812 33.87109375 309.037109375 33.87109375 c 0
 340.590820312 33.87109375 347.0703125 44.75390625 383.408203125 69.140625 c 1
EndSplineSet
Validated: 1
EndChar

StartChar: f
Encoding: 102 102 11
GlifName: f
Width: 551
VWidth: 0
Flags: W
HStem: 0 28.7627<80.8809 112.486 260.223 292.004> 452.57 52.084<70.3311 117.104 256.303 375.095> 731.104 35.085<301.699 380.308>
VStem: 117.093 133.124<32.3612 456.249 504.654 656.265>
LayerCount: 2
Fore
SplineSet
349.24609375 766.188476562 m 0
 412.682617188 766.188476562 454 747 494.506835938 680.662109375 c 0
 497.2421875 676.182617188 500.280273438 666.145507812 500.280273438 661.142578125 c 0
 500.280273438 640.611328125 478.1953125 616.627929688 452.756835938 616.627929688 c 0
 388.78515625 616.627929688 410.370117188 731.103515625 348.694335938 731.103515625 c 0
 294.6015625 731.103515625 250.216796875 676.162109375 250.216796875 585.43359375 c 1
 250.71875 504.654296875 l 1
 339.596679688 504.654296875 l 0
 362.313476562 504.654296875 376.928710938 499.587890625 376.928710938 485.530273438 c 0
 376.928710938 478.765625 371.12890625 457.9140625 368.444335938 452.5703125 c 1
 362.682617188 452.5703125 l 0
 356.415039062 452.5703125 303.076171875 455.99609375 256.302734375 456.385742188 c 1
 255.833007812 53.48046875 l 1
 258.221679688 41.798828125 269.670898438 28.962890625 285.095703125 28.7626953125 c 2
 292.00390625 28.673828125 l 1
 292.00390625 0 l 1
 80.880859375 0 l 1
 80.880859375 28.66796875 l 1
 87.7880859375 28.7568359375 l 2
 103.43359375 28.95703125 114.913085938 42.423828125 117.107421875 53.7568359375 c 1
 117.107421875 456.249023438 l 1
 80.7880859375 455.396484375 77.0341796875 453.260742188 62 451.1015625 c 1
 70.3310546875 500.703125 l 1
 117.104492188 500.703125 l 1
 117.099609375 512.75390625 117.092773438 543.11328125 117.092773438 556 c 0
 117.092773438 704.11328125 224.974609375 766.188476562 349.24609375 766.188476562 c 0
EndSplineSet
Validated: 1
EndChar

StartChar: j
Encoding: 106 106 12
GlifName: j
Width: 312
VWidth: 0
Flags: W
HStem: -153.523 69.9092<-43.2251 82.8803> 443.783 26.2842<78.7646 108.541> 485.725 20G<231.15 238.845> 580.765 148.349<121.204 228.574>
VStem: 98.9668 151.845<603.763 706.114> 112.586 133.697<-43.6171 443.398>
LayerCount: 2
Fore
SplineSet
174.888671875 580.764648438 m 4xf8
 132.959960938 580.764648438 98.966796875 613.974609375 98.966796875 654.938476562 c 4
 98.966796875 695.90234375 132.958984375 729.11328125 174.888671875 729.11328125 c 4
 216.818359375 729.11328125 250.811523438 695.90234375 250.811523438 654.938476562 c 4
 250.811523438 613.974609375 216.818359375 580.764648438 174.888671875 580.764648438 c 4xf8
232 505.724609375 m 0
 245.689453125 505.724609375 246.344726562 493.1015625 246.3828125 483.030273438 c 2
 246.283203125 93.279296875 l 0
 246.236328125 78.7939453125 246.161132812 64.3193359375 246.161132812 49.869140625 c 0
 246.161132812 -3.158203125 243 -38 179.596679688 -91.70703125 c 0
 121.911132812 -140.571289062 47.771484375 -153.5234375 -32 -153.5234375 c 0
 -54.4501953125 -153.5234375 -77.2626953125 -149.948242188 -101.975585938 -141.634765625 c 0
 -112.600585938 -138.060546875 -123.956054688 -118.887695312 -123.956054688 -110 c 0
 -123.956054688 -81.0107421875 -80.59765625 -59.2392578125 -52 -59.2392578125 c 0
 -16.8046875 -59.2392578125 6.0966796875 -83.6142578125 33 -83.6142578125 c 0
 41.0927734375 -83.6142578125 49.6826171875 -81.82421875 59.5888671875 -76.7080078125 c 0
 111.294921875 -50.6201171875 112.5859375 -24.2802734375 112.5859375 42.640625 c 0
 112.5859375 412.813476562 l 2xf4
 112.5859375 432.999023438 102.368164062 443.783203125 85.7646484375 443.783203125 c 2
 78.7646484375 443.783203125 l 1
 78.7646484375 470.067382812 l 1
 227.543945312 505.04296875 l 0
 228.859375 505.4140625 230.30078125 505.724609375 232 505.724609375 c 0
EndSplineSet
Validated: 1
EndChar

StartChar: g
Encoding: 103 103 13
GlifName: g
Width: 564
VWidth: 0
Flags: W
HStem: -242.607 35.6562<203.871 349.989> -2.86035 116.206<135.673 196.174> 417.532 86.9277<444.557 508.845> 458.089 41.9785<220.228 306.12>
VStem: 30.126 135.816<-176.073 -80.889> 60.7754 123.266<208.677 405.023> 348.938 124.392<192.409 402.114> 419.449 110.705<-142.538 -59.9015>
LayerCount: 2
Fore
SplineSet
270.616210938 -206.951171875 m 0xc9
 358.702148438 -206.951171875 419.44921875 -152.543945312 419.44921875 -101.783203125 c 0
 419.44921875 -50.6142578125 359.3671875 -33.09375 288.0546875 -26 c 1
 283.998046875 -25.8583984375 257.913085938 -24.3349609375 254.458007812 -24.091796875 c 1
 186.525390625 -47.7763671875 165.942382812 -82.1953125 165.942382812 -123.130859375 c 0
 165.942382812 -178.01953125 214.715820312 -206.951171875 270.616210938 -206.951171875 c 0xc9
184.041015625 318.27734375 m 0xd6
 184.041015625 210.25390625 223.436523438 142.907226562 279.3125 142.907226562 c 0
 331.978515625 142.907226562 348.9375 222.668945312 348.9375 296 c 0
 348.9375 392.140625 315.4140625 458.088867188 255.643554688 458.088867188 c 3
 215.854492188 458.088867188 184.041015625 384.315429688 184.041015625 318.27734375 c 0xd6
473.329101562 296.172851562 m 0
 473.329101562 124.466796875 351.333984375 102.1328125 230.603515625 66.8349609375 c 0
 226.431640625 65.615234375 219.943359375 60.537109375 219.943359375 56.1103515625 c 0
 219.943359375 49.6767578125 230.943359375 45.69140625 235.627929688 44.9931640625 c 0
 249 43 262.854492188 40.9267578125 273.180664062 39.9267578125 c 1
 343.354492188 30.5283203125 l 2
 442.309570312 21.3359375 530.154296875 13.8310546875 530.154296875 -72.9111328125 c 0
 530.154296875 -186.103515625 385.875976562 -242.607421875 260.28125 -242.607421875 c 0
 154.596679688 -242.607421875 30.1259765625 -224.12890625 30.1259765625 -135.368164062 c 0xe9
 30.1259765625 -59.6240234375 127.888671875 -30.6728515625 197.305664062 -10.9765625 c 1
 173.075195312 -8.6064453125 154.796875 -5.912109375 139.759765625 -2.8603515625 c 0
 111.017578125 2.8134765625 74.78125 15.3935546875 74.78125 41.1318359375 c 0
 74.78125 79.8955078125 162.16796875 101.176757812 207.682617188 113.345703125 c 1
 134.35546875 128.987304688 60.775390625 184.803710938 60.775390625 312.190429688 c 0
 60.775390625 429.479492188 137.877929688 485.88671875 224.62109375 497.923828125 c 0
 238.176757812 499.8203125 252.2578125 500.067382812 265.607421875 500.067382812 c 0xd4
 307.247070312 500.067382812 357.791015625 489.750976562 392.404296875 466.489257812 c 1
 423.926757812 485.61328125 452.893554688 504.459960938 495.98828125 504.459960938 c 0
 511.154296875 504.459960938 522.459960938 488.39453125 522.459960938 474.147460938 c 0
 522.459960938 439.529296875 491.409179688 417.532226562 455.538085938 417.532226562 c 0xe4
 452.529296875 417.532226562 445.685546875 417.862304688 444.209960938 417.990234375 c 1
 460.740234375 384.809570312 473.329101562 352.01171875 473.329101562 296.172851562 c 0
EndSplineSet
Validated: 1
EndChar

StartChar: q
Encoding: 113 113 14
GlifName: q
Width: 652
VWidth: 0
Flags: W
HStem: -232 29.4697<383.92 415.668 558.129 589.941> -13.1143 46.126<265.146 393.513> 480.217 31.5898<274.989 365.904>
VStem: 73.9961 125.548<124.812 390.071> 420.046 133.727<-201.235 20.7559 53.0765 412.296>
LayerCount: 2
Fore
SplineSet
199.543945312 274.395507812 m 0
 199.543945312 153.192382812 232.258789062 33.01171875 322.158203125 33.01171875 c 0
 349.51953125 33.01171875 388.02734375 41.3505859375 420.045898438 68.0859375 c 1
 420.1953125 409.908203125 l 0
 420.1953125 411.364257812 419.952148438 412.279296875 419.946289062 412.297851562 c 1
 388.58203125 445.724609375 360.83984375 480.216796875 319.676757812 480.216796875 c 0
 269.645507812 480.216796875 199.543945312 421.654296875 199.543945312 274.395507812 c 0
421.099609375 480 m 1
 533.751953125 508.21875 l 2
 536.831054688 509.123046875 538.984375 509.770507812 541 509.770507812 c 0
 553.668945312 509.770507812 553.869140625 494.7265625 553.869140625 485.615234375 c 0
 553.772460938 -177.32421875 l 1
 556.15234375 -189.255859375 567.452148438 -202.228515625 583.03515625 -202.438476562 c 2
 589.94140625 -202.530273438 l 1
 589.94140625 -232 l 1
 383.919921875 -232 l 1
 383.919921875 -202.530273438 l 1
 391.234375 -202.438476562 l 2
 407.55859375 -202.23046875 417.828125 -188.802734375 420.044921875 -177.016601562 c 1
 420.044921875 20.755859375 l 1
 382.60546875 4.0546875 356.174804688 -13.1142578125 309.327148438 -13.1142578125 c 0
 169.94140625 -13.1142578125 73.99609375 76.931640625 73.99609375 249.760742188 c 0
 73.99609375 438.352539062 149.598632812 511.806640625 303.149414062 511.806640625 c 0
 341.9609375 511.806640625 377.936523438 499.319335938 421.099609375 480 c 1
EndSplineSet
Validated: 1
EndChar

StartChar: p
Encoding: 112 112 15
GlifName: p
Width: 609
VWidth: 0
Flags: W
HStem: -232 28.4697<53 84.2851 227.928 259.111> -9.79688 35.7861<270.135 373.044> 451.2 25.9619<55.4092 84.8969> 468.146 43.917<246.137 372.458>
VStem: 89.2266 133.728<-201.867 15 67.9826 445.499> 438.152 121.021<105.569 374.492>
LayerCount: 2
Fore
SplineSet
222.954101562 -178.317382812 m 1xdc
 225.370117188 -190.44140625 237.661132812 -203.233398438 253.77734375 -203.438476562 c 2
 259.111328125 -203.530273438 l 1
 259.111328125 -232 l 1
 53 -232 l 1
 53 -203.530273438 l 1
 59.90625 -203.438476562 l 2
 75.72265625 -203.224609375 87.0322265625 -189.611328125 89.2265625 -178.021484375 c 1
 89.2265625 420.516601562 l 2
 89.2265625 441.505859375 79.2646484375 451.200195312 62.4091796875 451.200195312 c 2
 55.4091796875 451.200195312 l 1
 55.4091796875 477.162109375 l 1xec
 205.307617188 512.74609375 l 0
 207.010742188 513.200195312 209.620117188 513.366210938 211 513.366210938 c 0
 222.767578125 513.366210938 223.01171875 493.946289062 223.048828125 484.129882812 c 0
 223.048828125 484.748046875 223.047851562 485.4140625 223.046875 486 c 1
 256.876953125 499.77734375 273.912109375 512.063476562 323.046875 512.063476562 c 0
 458.123046875 512.063476562 559.172851562 432.14453125 559.172851562 249.924804688 c 0
 559.172851562 64.689453125 494.995117188 -9.796875 325.932617188 -9.796875 c 0
 288.321289062 -9.796875 264.883789062 -4.6015625 222.982421875 15 c 1
 222.954101562 -178.317382812 l 1xdc
314.818359375 468.146484375 m 0xdc
 285.872070312 468.146484375 260.967773438 455.6640625 223.041015625 433.397460938 c 1
 222.997070312 113.895507812 l 1
 236.631835938 64.6025390625 271.729492188 25.9892578125 329.139648438 25.9892578125 c 0
 392.453125 25.9892578125 438.15234375 109.162109375 438.15234375 225.716796875 c 0
 438.15234375 380.362304688 393.609375 468.146484375 314.818359375 468.146484375 c 0xdc
EndSplineSet
Validated: 1
EndChar

StartChar: o
Encoding: 111 111 16
GlifName: o
Width: 587
VWidth: 0
Flags: W
HStem: -10.3389 45.7676<247.73 360.69> 481.658 30.7676<245.305 338.494>
VStem: 44.9424 140.295<125.889 379.937> 412.789 140.292<117.708 372.572>
LayerCount: 2
Fore
SplineSet
303 -10.3388671875 m 0
 152.30859375 -10.3388671875 44.9423828125 62.8125 44.9423828125 253.924804688 c 0
 44.9423828125 439.155273438 142.747070312 512.42578125 293 512.42578125 c 0
 432.145507812 512.42578125 553.081054688 438.779296875 553.081054688 253.849609375 c 0
 553.081054688 57.7431640625 456.943359375 -10.3388671875 303 -10.3388671875 c 0
185.237304688 275.40234375 m 0
 185.237304688 129.356445312 218.274414062 35.4287109375 312.291992188 35.4287109375 c 0
 390.56640625 35.4287109375 412.7890625 148.397460938 412.7890625 235.68359375 c 0
 412.7890625 381.959960938 377.736328125 481.658203125 287.734375 481.658203125 c 0
 218.556640625 481.658203125 185.237304688 386.979492188 185.237304688 275.40234375 c 0
EndSplineSet
Validated: 1
EndChar

StartChar: I
Encoding: 73 73 17
GlifName: I_
Width: 375
VWidth: 0
Flags: W
HStem: 0 29.3838<64 67.8564 272.638 315.006> 700.021 29.5889<64.3916 106.971 274.705 314.397>
VStem: 117.987 141.928<37.9191 690.375>
LayerCount: 2
Fore
SplineSet
314.397460938 729.609375 m 1
 314.397460938 729.609375 318.391601562 724.056640625 318.391601562 715.3046875 c 0
 318.391601562 707.3046875 314.397460938 700.3046875 314.397460938 700.3046875 c 1
 306.08984375 700.020507812 l 2
 295.296875 699.651367188 263.412109375 684.2578125 262.772460938 666.740234375 c 0
 260.743164062 572.51953125 259.915039062 487.962890625 259.915039062 393.458007812 c 0
 259.915039062 280.80078125 261.0859375 177.833007812 262.77734375 65.12109375 c 0
 263.463867188 46.5126953125 283 30 307.09375 29.3837890625 c 2
 315.005859375 29.3046875 l 1
 315.005859375 29.3046875 319 23.751953125 319 15 c 0
 319 7 315.005859375 0 315.005859375 0 c 1
 64 0 l 1
 64 0 60 6.248046875 60 15 c 0
 60 23 64 29 64 29 c 1
 67.8564453125 29.3837890625 l 2
 92 31 115.950195312 46.16015625 115.950195312 64.984375 c 0
 117.202148438 178.008789062 117.987304688 280.73828125 117.987304688 393.458007812 c 0
 117.987304688 487.686523438 117.454101562 571.719726562 116.194335938 665.885742188 c 0
 116.194335938 684.045898438 94.9296875 699.142578125 71.8603515625 700.020507812 c 2
 64.3916015625 700.3046875 l 1
 64.3916015625 700.3046875 60.3916015625 706.552734375 60.3916015625 715.3046875 c 0
 60.3916015625 723.3046875 64.3916015625 729.3046875 64.3916015625 729.3046875 c 1
 314.397460938 729.609375 l 1
EndSplineSet
Validated: 1
EndChar

StartChar: y
Encoding: 121 121 18
GlifName: y
Width: 605
VWidth: 0
Flags: W
HStem: 478.334 28.1807<46 72.1738 203.411 233.244 401.229 434.337 554.643 564.852>
LayerCount: 2
Fore
SplineSet
358.26953125 59.275390625 m 0
 340.936523438 20.23828125 314.008789062 -31.015625 301.755859375 -50.484375 c 0
 278.959960938 -87.6337890625 197.93359375 -230.118164062 133 -230.118164062 c 0
 96.2421875 -230.118164062 88.431640625 -200.823242188 88.431640625 -191 c 0
 88.431640625 -182.70703125 89.681640625 -173.9375 92.443359375 -166.548828125 c 0
 113.427734375 -110.404296875 160 -135 198.79296875 -80.1494140625 c 0
 212.224609375 -61.158203125 239.712890625 -5.7900390625 247.224609375 13.826171875 c 1
 244.390625 21.6318359375 238.333007812 43.490234375 237.443359375 45.73046875 c 0
 237.443359375 45.73046875 193.482421875 154.24609375 149.879882812 271.165039062 c 0
 114.034179688 367.283203125 75.97265625 456.586914062 75.2568359375 458.302734375 c 0
 72.259765625 465.041992188 65.5751953125 479.557617188 46 479.557617188 c 1
 46 506.514648438 l 1
 233.244140625 506.514648438 l 1
 233.244140625 478.42578125 l 1
 227.337890625 478.333984375 l 2
 215.924804688 478.15625 203.083984375 469.70703125 203.083984375 462.431640625 c 0
 203.083984375 459.600585938 204.670898438 452.982421875 206.173828125 448.717773438 c 0
 206.173828125 448.717773438 236.080078125 375.416015625 267.083007812 294.42578125 c 0
 291.698242188 230.12109375 305.856445312 200.6875 319.413085938 166.408203125 c 1
 335.74609375 204.169921875 350.334960938 225.991210938 379.6015625 293.577148438 c 0
 412.78515625 370.208984375 434.973632812 431.926757812 435 432 c 0
 436.934570312 437.091796875 439.03125 448.213867188 439.03125 451.51953125 c 0
 439.03125 460.127929688 428.591796875 478.201171875 409.135742188 478.461914062 c 2
 401.228515625 478.553710938 l 1
 401.228515625 506.85546875 l 1
 564.8515625 506.85546875 l 1
 564.8515625 478.928710938 l 1
 554.642578125 478.240234375 l 2
 542.325195312 477.409179688 533.322265625 461.216796875 530 452 c 0
 529.165039062 449.681640625 498.53125 382.899414062 459.733398438 289.6953125 c 0
 426.369140625 209.544921875 385.185546875 119.895507812 358.26953125 59.275390625 c 0
EndSplineSet
Validated: 1
EndChar

StartChar: v
Encoding: 118 118 19
GlifName: v
Width: 584
VWidth: 0
Flags: W
HStem: -9 21G<265.122 275.843> 482.199 24.6562<44 66.2251 203.802 230.057 376.694 403.332 521.261 545.851>
LayerCount: 2
Fore
SplineSet
376.694335938 506.627929688 m 1
 545.850585938 506.627929688 l 1
 545.850585938 482 l 1
 538.966796875 482 l 2
 523.915039062 481.418945312 518.737304688 465.209960938 514 455 c 0
 512.8671875 452.0546875 485.959960938 402.569335938 440.7265625 310.036132812 c 0
 375.216796875 176.024414062 300.063476562 13.75390625 294.637695312 3.8037109375 c 0
 290.529296875 -3.7333984375 281.487304688 -9 270.19921875 -9 c 0
 260.044921875 -9 250.602539062 -4.6298828125 246.561523438 4.240234375 c 0
 241.393554688 15.599609375 235.40234375 29.994140625 231.512695312 40.294921875 c 1
 231.5 40.3291015625 181.625 171.684570312 137.879882812 291.984375 c 0
 102.171875 390.182617188 75.1142578125 450.709960938 75 451 c 0
 68.962890625 465.643554688 64.798828125 482.19921875 44 482.19921875 c 1
 44 506.85546875 l 1
 230.056640625 506.85546875 l 1
 230.056640625 482 l 1
 222.72265625 482 l 2
 206.685546875 482 201.541992188 467.692382812 201.541992188 460.1015625 c 0
 201.541992188 456.650390625 202.811523438 451.313476562 205 446 c 0
 205.026367188 445.935546875 216.856445312 401.701171875 247.466796875 320.702148438 c 0
 271.951171875 255.9140625 283.458007812 233.611328125 297 198 c 1
 313.776367188 234.663085938 327.661132812 262.038085938 357.29296875 329.853515625 c 0
 390.758789062 406.443359375 405.9609375 448.88671875 406 449 c 0
 406.979492188 451.82421875 407.452148438 454.403320312 407.452148438 456.729492188 c 0
 407.452148438 466.689453125 398.77734375 482 384.029296875 482 c 2
 376.694335938 482 l 1
 376.694335938 506.627929688 l 1
EndSplineSet
Validated: 1
EndChar

StartChar: u
Encoding: 117 117 20
GlifName: u
Width: 610
VWidth: 0
Flags: W
HStem: -10 45.3203<233.221 359.699> 447.444 25.5303<35 60.4529 361.711 386.55> 488.746 20G<178.204 185.326 505.307 512.316>
VStem: 68.7461 123.795<77.859 446.44> 394.656 124.097<65.0613 447.043>
LayerCount: 2
Fore
SplineSet
555.180664062 58.919921875 m 1
 561.659179688 20.6796875 l 1
 531.0078125 7.318359375 483.0234375 -7.88671875 453.12890625 -7.88671875 c 0
 422.568359375 -7.88671875 394.978515625 13.021484375 394.690429688 23.3603515625 c 1
 348.588867188 -5.9443359375 331.377929688 -10 267.453125 -10 c 0
 165.715820312 -10 68.74609375 30.138671875 68.74609375 140.537109375 c 0
 68.8203125 412.057617188 l 2
 68.8203125 432.185546875 58.5810546875 446.958007812 42 446.958007812 c 2
 35 446.958007812 l 1
 35 472.37890625 l 1
 175.076171875 508.219726562 l 0
 176.154296875 508.477539062 177.407226562 508.74609375 179 508.74609375 c 0
 191.651367188 508.74609375 192.642578125 495.735351562 192.642578125 485.25390625 c 0
 192.541015625 156.024414062 l 0
 192.541015625 89.955078125 227.133789062 35.3203125 292.220703125 35.3203125 c 0
 324.069335938 35.3203125 352.081054688 50.283203125 394.65625 78.3720703125 c 1
 395.556640625 411.62109375 l 2
 395.55078125 431.86328125 383.243164062 447.444335938 369.129882812 447.444335938 c 2
 361.7109375 447.444335938 l 1
 361.7109375 472.974609375 l 1
 502.52734375 509.28125 l 0
 503.499023438 509.471679688 504.614257812 509.666015625 506 509.666015625 c 0
 518.6328125 509.666015625 518.813476562 496.971679688 518.813476562 486.193359375 c 0
 518.752929688 50.6181640625 l 1
 530.178710938 52.8701171875 544.380859375 55.814453125 555.180664062 58.919921875 c 1
EndSplineSet
Validated: 1
EndChar

StartChar: n
Encoding: 110 110 21
GlifName: n
Width: 618
VWidth: 0
Flags: W
HStem: 0 28.5977<52 83.6046 225.642 258.077 378.32 409.861 541.943 573.441> 451.516 26.0195<54.4092 83.7361> 477.017 35.3193<252.635 373.831>
VStem: 88.2285 133.682<29.8882 450.995> 414.704 122.728<29.912 435.702>
LayerCount: 2
Fore
SplineSet
221.91015625 51.3642578125 m 5xb8
 224.303710938 39.7275390625 235.771484375 28.8984375 251.170898438 28.69921875 c 6
 258.077148438 28.609375 l 5
 258.077148438 0 l 5
 52 0 l 5
 52 28.59765625 l 5
 58.90625 28.6875 l 6
 74.5439453125 28.890625 86.033203125 42.341796875 88.228515625 53.662109375 c 5
 88.228515625 421.091796875 l 6
 88.228515625 441.943359375 78.2158203125 451.515625 61.4091796875 451.515625 c 6
 54.4091796875 451.515625 l 5
 54.4091796875 477.53515625 l 5xd8
 203.331054688 513.081054688 l 4
 203.829101562 513.208007812 205.845703125 514 209 514 c 4
 219.983398438 514 222.001953125 503.516601562 222.001953125 489.446289062 c 4
 222.001953125 483.801757812 222 483.819335938 221.998046875 478.392578125 c 5
 261.577148438 504.037109375 294.52734375 512.3359375 352.740234375 512.3359375 c 4
 460.374023438 512.3359375 537.499023438 459.078125 537.499023438 349.12890625 c 4
 537.431640625 52.75 l 5
 539.993164062 41.75390625 551.537109375 28.962890625 566.53515625 28.7685546875 c 6
 573.44140625 28.6787109375 l 5
 573.44140625 0 l 5
 378.3203125 0 l 5
 378.3203125 28.609375 l 5
 385.2265625 28.69921875 l 6
 401.3984375 28.9091796875 412.646484375 42.322265625 414.704101562 54.583984375 c 5
 414.704101562 358.345703125 l 4
 414.704101562 424.395507812 378.565429688 477.016601562 331.399414062 477.016601562 c 4
 297.225585938 477.016601562 261.084960938 468.833007812 221.990234375 441.680664062 c 5
 221.91015625 51.3642578125 l 5xb8
EndSplineSet
Validated: 1
EndChar

StartChar: b
Encoding: 98 98 22
GlifName: b
Width: 629
VWidth: 0
Flags: W
HStem: -3.78906 28.8643<61 92.6103 292.725 370.663> 468.08 43.9219<251.125 380.59> 685.34 25.9609<63.4092 92.896> 727.506 20G<217.311 224.384>
VStem: 97.2266 133.787<74.0631 450.592 478.947 684.979> 447.152 130.021<113.681 376.86>
LayerCount: 2
Fore
SplineSet
231.048828125 721.268554688 m 0
 231.013671875 478.947265625 l 1
 264.85546875 499.849609375 291.89453125 512.001953125 341.046875 512.001953125 c 0
 479.333984375 512.001953125 577.172851562 430.873046875 577.172851562 244.9453125 c 0
 577.172851562 57.814453125 485.450195312 -10.15625 319.685546875 -10.15625 c 0
 279.075195312 -10.15625 262.140625 -2.5205078125 220.078125 21.0859375 c 1
 198.944335938 1.98046875 124.23828125 -3.7890625 68 -3.7890625 c 0
 61 -3.7890625 l 1
 61 25.0751953125 l 1
 67.9072265625 25.1650390625 l 2
 83.5947265625 25.3681640625 95.0244140625 38.8720703125 97.2265625 50.265625 c 1
 97.2265625 653.993164062 l 2
 97.2265625 675.34765625 87.392578125 685.33984375 70.4091796875 685.33984375 c 2
 63.4091796875 685.33984375 l 1
 63.4091796875 711.30078125 l 1
 213.307617188 746.885742188 l 0
 215.01171875 747.33984375 216.62109375 747.505859375 218 747.505859375 c 0
 230.767578125 747.505859375 231.01171875 731.0859375 231.048828125 721.268554688 c 0
231.0078125 436.318359375 m 1
 230.961914062 125.934570312 l 1
 246.588867188 67.59375 275.68359375 30.927734375 337.139648438 30.927734375 c 0
 405.453125 30.927734375 447.15234375 117.1015625 447.15234375 228.655273438 c 0
 447.15234375 370.973632812 409.569335938 468.080078125 316.756835938 468.080078125 c 0
 286.067382812 468.080078125 260.500976562 458.389648438 231.0078125 436.318359375 c 1
EndSplineSet
Validated: 1
EndChar

StartChar: h
Encoding: 104 104 23
GlifName: h
Width: 619
VWidth: 0
Flags: W
HStem: 0 28.6963<56 87.4434 230.651 262.342 371.862 403.547 536.622 568.001> 467.364 44.5703<248.298 373.018> 683.56 25.9609<58.498 87.9851> 725.729 20G<212.277 219.375>
VStem: 92.3184 133.722<30.1608 445.504 478.479 683.199> 408.131 123.728<29.9212 426.129>
LayerCount: 2
Fore
SplineSet
226.040039062 54.0869140625 m 1
 228.244140625 41.787109375 239.631835938 28.9013671875 255.434570312 28.6962890625 c 2
 262.341796875 28.6083984375 l 1
 262.341796875 0 l 1
 56 0 l 1
 56 28.8583984375 l 1
 62.9072265625 28.9482421875 l 2
 78.8857421875 29.15234375 90.24609375 42.71484375 92.318359375 54.55859375 c 1
 92.318359375 652.212890625 l 2
 92.318359375 673.565429688 82.482421875 683.559570312 65.498046875 683.559570312 c 2
 58.498046875 683.559570312 l 1
 58.498046875 709.520507812 l 1
 208.397460938 745.10546875 l 0
 209.999023438 745.532226562 211.553710938 745.728515625 213 745.728515625 c 0
 225.749023438 745.728515625 226.100585938 727.454101562 226.138671875 717.48828125 c 0
 226.103515625 478.478515625 l 1
 264.668945312 502.579101562 280.791015625 511.934570312 331.1640625 511.934570312 c 0
 428.80078125 511.934570312 531.92578125 458.676757812 531.92578125 348.729492188 c 0
 531.858398438 53.34765625 l 1
 534.28125 41.8037109375 545.748046875 28.966796875 561.09375 28.7705078125 c 2
 568.000976562 28.681640625 l 1
 568.000976562 0 l 1
 371.862304688 0 l 1
 371.862304688 28.6083984375 l 1
 378.76953125 28.6962890625 l 2
 394.533203125 28.900390625 405.989257812 42.375 408.130859375 53.892578125 c 1
 408.130859375 347.8984375 l 0
 408.130859375 413.997070312 383.48828125 467.364257812 311.2890625 467.364257812 c 0
 282.399414062 467.364257812 270.073242188 459.375 226.096679688 432.139648438 c 1
 226.040039062 54.0869140625 l 1
EndSplineSet
Validated: 1
EndChar

StartChar: t
Encoding: 116 116 24
GlifName: t
Width: 420
VWidth: 0
Flags: W
HStem: -10.1855 40.3867<281.156 356.237> 467.534 42.2412<262.766 365.154>
VStem: 129.079 133.631<45.8868 463.698>
LayerCount: 2
Fore
SplineSet
354.120117188 35.2939453125 m 1
 361.470703125 1.6904296875 l 1
 341.877929688 -4.685546875 329.78515625 -10.185546875 309 -10.185546875 c 0
 259.3515625 -10.185546875 186.548828125 -0.42578125 162.071289062 24.0498046875 c 0
 131.166992188 54.9521484375 129.274414062 111.658203125 129.079101562 168.751953125 c 1
 129.0546875 266.174804688 128.96484375 347.619140625 128.940429688 443.131835938 c 0
 128.9375 458.5859375 124.327148438 461.9453125 115.241210938 463.78515625 c 0
 111.444335938 464.553710938 72.64453125 464.884765625 65.5458984375 466.159179688 c 0
 60.453125 467.073242188 56.0322265625 470.041992188 56.0322265625 480 c 0
 56.0322265625 486.313476562 69.7626953125 493.390625 86 503 c 0
 127.3984375 527.499023438 170.250976562 545.137695312 205.7109375 577.012695312 c 0
 210.116210938 580.97265625 223.157226562 591.791015625 236 591.791015625 c 0
 251.192382812 591.791015625 262.775390625 578.823242188 262.775390625 563.875976562 c 0
 262.775390625 545.518554688 262.767578125 528.067382812 262.765625 509.775390625 c 1
 300.140625 510.083984375 323.079101562 510.66796875 335 510.66796875 c 0
 353.87890625 510.66796875 365.186523438 501.2890625 365.186523438 488 c 0
 365.186523438 482.48046875 361.032226562 470.474609375 358.577148438 466.6015625 c 1
 352 466.6015625 l 0
 343.803710938 466.6015625 317.081054688 467.534179688 277 467.534179688 c 0
 272.168945312 467.534179688 267.1640625 467.517578125 262.758789062 467.4921875 c 1
 262.75 413.466796875 262.71875 349.849609375 262.709960938 295.983398438 c 0
 262.709960938 163.771484375 l 0
 262.709960938 138.76171875 263.4296875 89.107421875 268.711914062 73.4365234375 c 0
 279.350585938 41.875 299.408203125 30.201171875 326 30.201171875 c 0
 334.25 30.201171875 345.436523438 32.814453125 354.120117188 35.2939453125 c 1
EndSplineSet
Validated: 1
EndChar

StartChar: z
Encoding: 122 122 25
GlifName: z
Width: 618
VWidth: 0
Flags: W
HStem: -0.420898 75.2393<231.129 525.523> 440.105 61.4209<125.509 134.317 134.366 410.795>
VStem: 98.29 25.2578<423.396 436.605>
LayerCount: 2
Fore
SplineSet
278.955078125 501.526367188 m 0
 368.823242188 501.526367188 544.904296875 504.078125 546.091796875 504.078125 c 3
 557.364257812 504.078125 561.434570312 495.0703125 561.434570312 488.69921875 c 0
 561.434570312 485.375976562 559.317382812 475.751953125 555.8125 471.73046875 c 0
 550.065429688 465.138671875 456.646484375 348.400390625 374.337890625 249.955078125 c 0
 310.337890625 173.54296875 256.870117188 106.635742188 231.12890625 75.5205078125 c 1
 261.045898438 75.0458984375 291.059570312 74.818359375 333.981445312 74.818359375 c 0
 402.787109375 74.818359375 464.102539062 75.4521484375 511.216796875 76.6826171875 c 0
 516.301757812 76.814453125 516.646484375 76.1513671875 519.860351562 80.453125 c 0
 522.251953125 83.654296875 525.525390625 90.513671875 525.525390625 90.513671875 c 1
 529.021484375 99.818359375 l 1
 553.544921875 88.93359375 l 1
 531.356445312 0.0107421875 l 1
 331.171875 -0.4208984375 l 1
 78.4462890625 -1.0771484375 l 2
 65.8984375 -1.0771484375 61 11.44140625 61 18.1982421875 c 3
 61 24.2216796875 67.1650390625 35.1357421875 72.0400390625 40.4619140625 c 0
 112.014648438 84.1337890625 200.237304688 188.120117188 277.638671875 277.1015625 c 0
 340.952148438 349.887695312 385.657226562 407.381835938 410.794921875 440.004882812 c 1
 395.573242188 440.08203125 381.799804688 440.10546875 364.704101562 440.10546875 c 0
 267.383789062 440.10546875 164.244140625 439.046875 143.517578125 439.046875 c 0
 129.96484375 438.930664062 126.994140625 420.044921875 123.547851562 413.811523438 c 1
 98.2900390625 427.071289062 l 1
 119.2890625 503.048828125 l 1
 134.317382812 502.96484375 l 1
 134.317382812 502.96484375 201.533203125 501.526367188 278.955078125 501.526367188 c 0
EndSplineSet
Validated: 1
EndChar

StartChar: l
Encoding: 108 108 26
GlifName: l
Width: 325
VWidth: 0
Flags: W
HStem: 0 28.8799<60 91.6128 234.682 266.123> 706.916 25.9609<62.4092 91.8969>
VStem: 96.2266 133.728<30.1742 706.556>
LayerCount: 2
Fore
SplineSet
229.954101562 53.8564453125 m 1
 232.341796875 42.0966796875 243.740234375 29.2158203125 259.215820312 29.015625 c 2
 266.123046875 28.92578125 l 1
 266.123046875 0 l 1
 60 0 l 1
 60 28.8798828125 l 1
 66.9072265625 28.9697265625 l 2
 82.6025390625 29.169921875 94.0263671875 42.6796875 96.2265625 54.076171875 c 1
 96.2265625 675.5703125 l 2
 96.2265625 696.927734375 86.392578125 706.916015625 69.4091796875 706.916015625 c 2
 62.4091796875 706.916015625 l 1
 62.4091796875 732.876953125 l 1
 212.307617188 768.4609375 l 0
 214.010742188 768.915039062 215.620117188 769.081054688 217 769.081054688 c 0
 229.767578125 769.081054688 230.01171875 751.661132812 230.048828125 741.84375 c 0
 229.954101562 53.8564453125 l 1
EndSplineSet
Validated: 1
EndChar

StartChar: r
Encoding: 114 114 27
GlifName: r
Width: 470
VWidth: 0
Flags: W
HStem: 0 28.6387<64 95.2525 238.93 269.856> 429.11 77.8027<282.633 372.327> 450.604 25.1934<66.4092 94.8387>
VStem: 100.229 133.79<30.0191 408.797>
LayerCount: 2
Fore
SplineSet
361.397460938 506.913085938 m 3xd0
 383.255859375 506.913085938 453.734375 492.712890625 453.734375 458.06640625 c 0
 453.734375 418.977539062 411.57421875 392.288085938 381.485351562 392.288085938 c 0
 349.418945312 392.288085938 327.345703125 429.110351562 307.16015625 429.110351562 c 0xd0
 273.141601562 429.110351562 243.48046875 402.541992188 234.00390625 382.146484375 c 1
 233.932617188 53.2783203125 l 1
 236.409179688 42.2470703125 249.073242188 28.7783203125 261.783203125 28.638671875 c 2
 269.856445312 28.5498046875 l 1
 269.856445312 0 l 1
 64 0 l 1
 64 28.6865234375 l 1
 70.9072265625 28.775390625 l 2
 86.5634765625 28.9755859375 98.03515625 42.443359375 100.228515625 53.7919921875 c 1
 100.228515625 422.708984375 l 2
 100.228515625 442.83203125 89.9873046875 450.603515625 73.4091796875 450.603515625 c 2
 66.4091796875 450.603515625 l 1
 66.4091796875 475.796875 l 1xb0
 216.1875 512.67578125 l 0
 217.909179688 513.162109375 219.555664062 513.353515625 221 513.353515625 c 0
 233.767578125 513.353515625 234.02734375 498.857421875 234.02734375 489.084960938 c 0
 234.018554688 446.984375 l 1
 268.836914062 477.384765625 300.90234375 506.913085938 361.397460938 506.913085938 c 3xd0
EndSplineSet
Validated: 1
EndChar

StartChar: k
Encoding: 107 107 28
GlifName: k
Width: 621
VWidth: 0
Flags: W
HStem: 0 29<61 92.9008 235.578 267 370 394.952 535.471 574> 477 29.5146<351.534 375.595 509.25 557> 694 15.3994<63 89.9645> 725.612 20G<215.748 224.03>
VStem: 97 134<30.103 223.997 343.004 693.652>
LayerCount: 2
Fore
SplineSet
231 722 m 0
 231 363.862304688 l 2
 231.767578125 348.038085938 237.244140625 343 242 343 c 0
 247.452148438 343 258 351.171875 324.700195312 398.020507812 c 1
 374.340820312 432.2578125 375.620117188 451.010742188 375.620117188 461.697265625 c 3
 375.620117188 472.391601562 367.021484375 477 357.151367188 477 c 2
 351.534179688 477 l 1
 351.534179688 506.514648438 l 1
 557 506.514648438 l 1
 557 477 l 1
 550 477 l 0
 531.708984375 477 513.840820312 465.701171875 504.130859375 458.991210938 c 0
 465.360351562 432.19921875 422.771484375 367.188476562 327.807617188 296.50390625 c 1
 333.002929688 283.544921875 337.494140625 286.864257812 404.088867188 208.611328125 c 1
 476.600585938 117.443359375 502.53125 85.7177734375 516.599609375 66.3681640625 c 0
 532.1875 44.9287109375 544.114257812 29 567 29 c 2
 574 29 l 1
 574 0 l 1
 370 0 l 1
 370 29 l 1
 377 29 l 2
 385.229492188 29 396 38.134765625 396 49 c 0
 396 76.0859375 272.422851562 224 245 224 c 0
 240.990234375 224 233.262695312 220.358398438 231 219.315429688 c 1
 231 53.41796875 l 1
 234.05078125 42.33984375 244.318359375 29 260 29 c 2
 267 29 l 1
 267 0 l 1
 61 0 l 1
 61 29 l 1
 68 29 l 2
 84.74609375 29 95.31640625 43.171875 97 54.0673828125 c 1
 97 660 l 2
 97 684.494140625 88.3701171875 694 70 694 c 2
 63 694 l 1
 63 709.399414062 l 1
 202.081054688 742.733398438 l 1
 205.626953125 743.82421875 213.495117188 745.612304688 218 745.612304688 c 0
 230.059570312 745.612304688 231 734.622070312 231 722 c 0
EndSplineSet
Validated: 1
EndChar

StartChar: e
Encoding: 101 101 29
GlifName: e
Width: 565
VWidth: 0
Flags: W
HStem: -10.7041 50.1553<264.208 414.584> 302.634 54.9072<203.447 398.795> 482.908 28.7734<261.834 342.668>
VStem: 40.9697 141.794<141.595 337.167>
LayerCount: 2
Fore
SplineSet
520.5625 301.552734375 m 1
 189.734375 302.633789062 l 1
 185.021484375 282.66796875 182.763671875 262.174804688 182.763671875 241.86328125 c 0
 182.763671875 138.287109375 241.469726562 39.451171875 332.584960938 39.451171875 c 0
 399.436523438 39.451171875 437.595703125 72.7529296875 487.427734375 117.305664062 c 1
 510.692382812 85.9365234375 l 1
 457.30859375 25.830078125 415.025390625 -10.7041015625 310.416992188 -10.7041015625 c 0
 168.186523438 -10.7041015625 40.9697265625 70.8994140625 40.9697265625 256.025390625 c 0
 40.9697265625 437.750976562 151.015625 511.681640625 303.467773438 511.681640625 c 0
 424.500976562 511.681640625 521.477539062 415.131835938 521.477539062 318.471679688 c 0
 521.477539062 311.51171875 521.016601562 308.26171875 520.5625 301.552734375 c 1
303.680664062 482.908203125 m 0
 245.543945312 482.908203125 207.934570312 407.553710938 201.829101562 364.622070312 c 1
 236.407226562 360.982421875 267.389648438 357.541015625 298.875 357.541015625 c 0
 331.442382812 357.541015625 370.196289062 358.75 398.794921875 360.7109375 c 1
 394.1484375 419.439453125 353.889648438 482.908203125 303.680664062 482.908203125 c 0
EndSplineSet
Validated: 1
EndChar

StartChar: c
Encoding: 99 99 30
GlifName: c
Width: 549
VWidth: 0
Flags: W
HStem: -10 50<251.868 415.177> 483.075 29.7822<261.654 339.618>
VStem: 43.002 132.055<143.443 378.574>
LayerCount: 2
Fore
SplineSet
481.546875 111.926757812 m 1
 509.797851562 76.580078125 l 1
 450.96484375 19.06640625 409.288085938 -10 288.654296875 -10 c 0
 161.303710938 -10 43.001953125 61.6201171875 43.001953125 265.7109375 c 0
 43.001953125 359.693359375 80.8701171875 512.857421875 304.243164062 512.857421875 c 0
 364.069335938 512.857421875 442.497070312 494.875 500.001953125 429.65625 c 0
 503.63671875 425.532226562 506.5234375 420.7109375 506.5234375 415 c 0
 506.5234375 392.041992188 457.751953125 357.485351562 439 357.485351562 c 0
 356.715820312 357.485351562 381.008789062 483.075195312 303.03125 483.075195312 c 0
 238.911132812 483.075195312 175.056640625 393.786132812 175.056640625 278.515625 c 0
 175.056640625 187.3203125 205.889648438 40 315 40 c 0
 378.58984375 40 427.043945312 56.6240234375 481.546875 111.926757812 c 1
EndSplineSet
Validated: 1
EndChar

StartChar: a
Encoding: 97 97 31
GlifName: a
Width: 573
VWidth: 0
Flags: W
HStem: -10 51.042<201.626 305.341> 20.9062 37.2656<478.511 515.165> 262.732 54.0234<289.866 349.028> 470.978 40.8223<227.211 322.07>
VStem: 40.8691 135.47<65.7775 171.534> 349.028 128.942<65.422 262.732 309.375 435.557>
LayerCount: 2
Fore
SplineSet
514.56640625 58.171875 m 1x7c
 517.754882812 20.90625 l 1x7c
 487.377929688 7.666015625 427.05859375 -6.6083984375 397.348632812 -6.6083984375 c 0
 368.297851562 -6.6083984375 344.349609375 22.75390625 343.924804688 32.5 c 1
 289.120117188 2.7119140625 274.845703125 -10 213.068359375 -10 c 0xbc
 132.280273438 -10 40.869140625 10.521484375 40.869140625 110.493164062 c 0
 40.869140625 220.020507812 223.114257812 278.721679688 354.1484375 316.755859375 c 1
 353.716796875 340.688476562 350.002929688 376.024414062 349.375976562 389.978515625 c 0
 347.088867188 440.875976562 310.2109375 470.977539062 270.133789062 470.977539062 c 0
 206.400390625 470.977539062 203.830078125 376.975585938 132 376.975585938 c 0
 110.567382812 376.975585938 84.7119140625 392.293945312 84.7119140625 415 c 0
 84.7119140625 420.852539062 88.8828125 432.390625 92.1865234375 436.13671875 c 0
 148.873046875 500.416992188 214.75390625 511.799804688 273.344726562 511.799804688 c 0
 432.546875 511.799804688 477.970703125 427.487304688 477.970703125 363.698242188 c 0
 477.970703125 49.8203125 l 1
 489.458007812 52.083984375 503.712890625 55.0498046875 514.56640625 58.171875 c 1x7c
258.4296875 41.0419921875 m 0xbc
 290.909179688 41.0419921875 317.189453125 56.3662109375 349.028320312 81.2919921875 c 1
 349.028320312 262.732421875 l 1
 232.475585938 226.025390625 176.338867188 196.32421875 176.338867188 126 c 0
 176.338867188 78.9248046875 205.458007812 41.0419921875 258.4296875 41.0419921875 c 0xbc
EndSplineSet
Validated: 1
EndChar

StartChar: i
Encoding: 105 105 32
GlifName: i
Width: 335
VWidth: 0
Flags: W
HStem: 0 28.7695<67 98.6086 241.325 273.101> 446.613 26.1875<69.4092 98.635> 489.353 20G<223.28 230.384> 564.765 148.349<106.204 213.574>
VStem: 83.9668 151.845<587.763 690.114> 103.229 133.704<29.9694 446.295>
LayerCount: 2
Fore
SplineSet
159.888671875 564.764648438 m 0xf8
 117.959960938 564.764648438 83.966796875 597.974609375 83.966796875 638.938476562 c 0
 83.966796875 679.90234375 117.958984375 713.11328125 159.888671875 713.11328125 c 0
 201.818359375 713.11328125 235.811523438 679.90234375 235.811523438 638.938476562 c 0
 235.811523438 597.974609375 201.818359375 564.764648438 159.888671875 564.764648438 c 0xf8
236.932617188 53.4765625 m 1xf4
 239.32421875 41.806640625 250.776367188 28.966796875 266.193359375 28.76953125 c 2
 273.100585938 28.6806640625 l 1
 273.100585938 0 l 1
 67 0 l 1
 67 28.6796875 l 1
 73.9072265625 28.7685546875 l 2
 89.5615234375 28.96875 101.034179688 42.4365234375 103.228515625 53.78125 c 1
 103.228515625 417.723632812 l 2
 103.228515625 437.84375 92.9853515625 446.61328125 76.4091796875 446.61328125 c 2
 69.4091796875 446.61328125 l 1
 69.4091796875 472.80078125 l 1
 219.1875 508.674804688 l 0
 220.912109375 509.162109375 222.559570312 509.352539062 224 509.352539062 c 0
 236.767578125 509.352539062 236.989257812 495.244140625 237.02734375 485.733398438 c 0
 236.932617188 53.4765625 l 1xf4
EndSplineSet
Validated: 1
EndChar

StartChar: period
Encoding: 46 46 33
GlifName: period
Width: 228
VWidth: 0
Flags: W
HStem: -18 148.349<58.3929 165.762>
VStem: 36.1553 151.845<4.99877 107.349>
LayerCount: 2
Fore
SplineSet
112.077148438 -18 m 4
 70.1484375 -18 36.1552734375 15.2099609375 36.1552734375 56.173828125 c 4
 36.1552734375 97.1376953125 70.1474609375 130.348632812 112.077148438 130.348632812 c 4
 154.006835938 130.348632812 188 97.1376953125 188 56.173828125 c 4
 188 15.2099609375 154.006835938 -18 112.077148438 -18 c 4
EndSplineSet
EndChar

StartChar: comma
Encoding: 44 44 34
GlifName: comma
Width: 238
VWidth: 0
Flags: W
HStem: -100.682 29.8809<33.2891 68.3235>
VStem: 35.7334 151.893<4.7456 101.067> 86.7793 100.847<-43.2635 -3.8543>
LayerCount: 2
Fore
SplineSet
35.7333984375 51.2119140625 m 4xc0
 35.7333984375 91.5302734375 73.5390625 125.9140625 114.169921875 125.9140625 c 4
 156.470703125 125.9140625 187.625976562 90.908203125 187.625976562 54.947265625 c 4
 187.625976562 53.7021484375 l 6xc0
 187.625976562 -62.6474609375 132.215820312 -100.681640625 33.2890625 -100.681640625 c 5
 15.3603515625 -70.80078125 l 5
 41.630859375 -70.80078125 86.779296875 -61.2236328125 86.779296875 -29.71484375 c 4xa0
 86.779296875 -25.4775390625 84.78515625 -21.37109375 79.4599609375 -16.044921875 c 5
 59.4208984375 2.880859375 35.7333984375 11.8876953125 35.7333984375 51.2119140625 c 4xc0
EndSplineSet
EndChar

StartChar: D
Encoding: 68 68 35
GlifName: D_
Width: 844
VWidth: 0
Flags: W
HStem: 0 43<263.329 459.099> 0 29<64 109.593> 682 48<264 461.539> 701 29<64 109.962>
VStem: 119 145<67.2835 681.739> 625 142<230.667 492.616>
LayerCount: 2
Fore
SplineSet
64 701 m 1x5c
 64 701 60 706 60 715 c 0
 60 723 64 730 64 730 c 1
 112 730 186 730 238 730 c 0
 294 731 324 731 378 731 c 0
 579 731 767 606 767 363 c 0
 767 124 599 -3 365 -3 c 0
 321 -3 280 0 223 0 c 2
 64 0 l 1
 64 0 60 6 60 15 c 0
 60 23 64 29 64 29 c 1
 71 29 l 0
 79 29 86 30 94 32 c 0
 110 35 116 55 116 64 c 1
 118 181 119 285 119 401 c 0
 119 493 118 574 116 667 c 1
 116 675 110 696 94 699 c 0
 84 701 75 701 64 701 c 1x5c
264 675 m 0
 264 662 l 2
 264 457 263 67 263 67 c 1
 263 67 265 44 273 43 c 0
 310 44 314 44 351 44 c 0
 537 44 625 192 625 353 c 0
 625 613 467 682 357 682 c 0
 347 682 325 682 305 682 c 0
 295 682 269 682 269 682 c 1xac
 265 682 264 678 264 675 c 0
EndSplineSet
Validated: 1
EndChar

StartChar: N
Encoding: 78 78 36
GlifName: N_
Width: 881
VWidth: 0
Flags: W
HStem: -8.99023 21G<739.254 750.325> 0 28.9463<54 60.9062 214.652 256.397> 702.016 27.9844<55 95.1079 619 626.299 779.984 821>
VStem: 106.24 95.5918<36.5294 607.279> 672.066 96.9336<200.81 693.706>
LayerCount: 2
Fore
SplineSet
54 0 m 1x78
 54 0 49.3916015625 6.552734375 49.3916015625 15.3046875 c 0
 49.3916015625 23.3046875 54 29 54 29 c 1
 60.90625 29.3837890625 l 2
 86 31 106.240234375 46.2265625 106.240234375 66.455078125 c 2
 107.873046875 398.75 l 1
 106.2578125 663.939453125 l 2
 105.995117188 683.90625 86 702 60.9091796875 702.022460938 c 2
 55 702 l 1
 55 702 50.3916015625 707.552734375 50.3916015625 716.3046875 c 0
 50.3916015625 724.3046875 55 730 55 730 c 1
 238.1328125 730 l 1
 672.06640625 200.809570312 l 1
 672.06640625 370.893554688 671.750976562 492.719726562 671.750976562 665.008789062 c 0
 671.750976562 683.828125 646.948242188 699.935546875 626.298828125 701.4609375 c 2
 619 702 l 1
 619 702 614.391601562 707.552734375 614.391601562 716.3046875 c 0
 614.391601562 724.3046875 619 730 619 730 c 1
 821 730 l 1
 821 730 824.391601562 725.056640625 824.391601562 716.3046875 c 0
 824.391601562 708.3046875 821 702 821 702 c 1
 813.979492188 702.015625 l 2
 791 702 769.54296875 684.438476562 768.361328125 666.905273438 c 0
 766.4765625 574.365234375 765.751953125 492.911132812 765.751953125 400.250976562 c 0
 765.751953125 269.145507812 767.233398438 144.0625 769 12.748046875 c 1
 769 -0.271484375 756.650390625 -8.990234375 744 -8.990234375 c 0xb8
 734.508789062 -8.990234375 722.626953125 -4.626953125 720 -2 c 2
 714 4 l 0
 530.467773438 210.897460938 388.653320312 404.021484375 202.829101562 607.279296875 c 1
 202.790039062 557.42578125 201.778320312 510.641601562 201.778320312 462 c 0
 201.778320312 361.999023438 201.83203125 272.05859375 201.83203125 172 c 0
 201.83203125 136.436523438 202.825195312 100.422851562 203.806640625 65.123046875 c 0
 204.317382812 46.7568359375 225 30 249.038085938 28.9462890625 c 2
 256.397460938 28.609375 l 1
 256.397460938 28.609375 260.391601562 24.056640625 260.391601562 15.3046875 c 0
 260.391601562 7.3046875 257 0 257 0 c 1
 54 0 l 1x78
EndSplineSet
Validated: 1
EndChar

StartChar: L
Encoding: 76 76 37
GlifName: L_
Width: 647
VWidth: 0
Flags: W
HStem: 0 29<66 108.207 276.701 439.733> 701 29<67 108.891 276.505 318>
VStem: 121.116 141.845<39.4365 693.019> 548.23 29.7324<157.434 162.671>
LayerCount: 2
Fore
SplineSet
318.046875 730 m 1
 318.046875 730 321.391601562 725.056640625 321.391601562 716.3046875 c 0
 321.391601562 708.3046875 318 701 318 701 c 1
 311.13671875 701.047851562 l 2
 294 701 266.100585938 686.981445312 265.82421875 665.887695312 c 0
 263.807617188 574.193359375 262.9609375 492.500976562 262.9609375 400.638671875 c 0
 264.662109375 286.883789062 263.890625 183.12109375 265.663085938 69.0849609375 c 1
 265.663085938 59.2802734375 271.515625 40.171875 288.51953125 38.279296875 c 0
 309.508789062 35.9423828125 319.854492188 35 340.623046875 35 c 1
 405.279296875 35.3427734375 407.366210938 35.9267578125 450.993164062 45.9990234375 c 0
 510.141601562 60.296875 535.015625 98.896484375 547.145507812 157.43359375 c 0
 548.23046875 162.670898438 l 1
 577.962890625 164.50390625 l 1
 559.201171875 0 l 1
 66 0 l 1
 66 0 61.3916015625 6.552734375 61.3916015625 15.3046875 c 0
 61.3916015625 23.3046875 66 29 66 29 c 1
 73.9248046875 29.3837890625 l 2
 99 31 119.241210938 46.7421875 119.241210938 67.5234375 c 0
 120.899414062 183.627929688 121.116210938 286.466796875 121.116210938 402.288085938 c 0
 121.116210938 493.94921875 120.30078125 573.908203125 119.244140625 666.470703125 c 0
 119.048828125 683.619140625 97 701 73.91015625 701.020507812 c 2
 67 701 l 1
 67 701 62.3916015625 707.552734375 62.3916015625 716.3046875 c 0
 62.3916015625 724.3046875 67 730 67 730 c 1
 318.046875 730 l 1
EndSplineSet
Validated: 1
EndChar

StartChar: M
Encoding: 77 77 38
GlifName: M_
Width: 913
VWidth: 0
Flags: W
HStem: 0 29.9463<48 55.1846 204.078 246.397 587 630.26 794.932 838> 701 29<67 108.784 795.481 838>
VStem: 99.5234 94.5693<36.245 252.593> 119.536 92.6152<409.659 548.842> 641.732 140.876<37.3376 534.321>
LayerCount: 2
Fore
SplineSet
838.12890625 729.998046875 m 5xd8
 838.12890625 729.998046875 841.391601562 725.056640625 841.391601562 716.3046875 c 4
 841.391601562 708.3046875 838 701 838 701 c 5
 831.213867188 701.020507812 l 6
 808 701 786.00390625 685.323242188 785.907226562 666.873046875 c 4
 785.096679688 605.801757812 782.676757812 555.086914062 782.676757812 494.520507812 c 4
 782.676757812 451.72265625 782.608398438 409.123046875 782.608398438 366.6640625 c 4
 782.608398438 262.076171875 783.024414062 168.336914062 785.909179688 64.57421875 c 4
 786.294921875 46.1376953125 807.971679688 29.669921875 831.21875 29.3837890625 c 6
 838.131835938 29.298828125 l 5
 838.131835938 29.298828125 841.391601562 24.056640625 841.391601562 15.3046875 c 4
 841.391601562 7.3046875 838 0 838 0 c 5
 587 0 l 5
 587 0 582.391601562 6.552734375 582.391601562 15.3046875 c 4
 582.391601562 23.3046875 587 30 587 30 c 5
 594.98828125 29.9462890625 l 6
 619 30 639.047851562 46.873046875 639.333984375 65.6259765625 c 4
 640.313476562 129.846679688 641.724609375 184.041992188 641.724609375 248 c 4
 641.724609375 328.92578125 641.732421875 357.956054688 641.732421875 440 c 4
 641.732421875 471.795898438 641.666015625 503.654296875 641.495117188 534.321289062 c 5
 445.305664062 168.829101562 l 5
 442.087890625 162.670898438 432.383789062 148.276367188 421.993164062 148.276367188 c 4
 414.793945312 148.276367188 409.693359375 153.755859375 406.129882812 160.999023438 c 4
 406.129882812 160.999023438 261.4765625 445.631835938 212.151367188 548.841796875 c 5xd8
 194.092773438 65.0693359375 l 5
 195.827148438 46.4072265625 215.197265625 31.1064453125 239.377929688 29.9462890625 c 6
 246.397460938 29.609375 l 5
 246.397460938 29.609375 250.391601562 24.056640625 250.391601562 15.3046875 c 4
 250.391601562 7.3046875 247 0 247 0 c 5
 47 0 l 5
 47 0 42.3916015625 6.552734375 42.3916015625 15.3046875 c 4
 42.3916015625 23.3046875 48 30 48 30 c 5
 55.1845703125 30.3837890625 l 6
 80 32 98.7060546875 46.154296875 99.5234375 66.6875 c 4xe8
 107.641601562 270.61328125 114.75 456.241210938 119.536132812 663.08203125 c 5
 119.538085938 663.361328125 119.538085938 663.7890625 119.538085938 664.078125 c 4
 119.538085938 683.17578125 98 701 74.1875 701.022460938 c 6
 67 701 l 5
 67 701 62.3916015625 707.552734375 62.3916015625 716.3046875 c 4
 62.3916015625 724.3046875 67 730 67 730 c 5
 257.640625 730 l 5
 453.70703125 342.252929688 l 5
 654.948242188 729.998046875 l 5
 838.12890625 729.998046875 l 5xd8
EndSplineSet
Validated: 1
EndChar

StartChar: slash
Encoding: 47 47 39
GlifName: slash
Width: 428
VWidth: 0
Flags: W
LayerCount: 2
Fore
SplineSet
39.42578125 -93.5966796875 m 2
 141.358398438 185.219726562 213.290039062 416.998046875 285.259765625 673.888671875 c 0
 285.881835938 676.109375 l 1
 287.702148438 677.525390625 l 0
 306.461914062 692.116210938 329.727539062 703 344 703 c 0
 360.056640625 703 395 688.849609375 395 672 c 0
 395 670.795898438 l 1
 394.59765625 669.66015625 l 0
 307.23046875 423.265625 165.627929688 -39.1708984375 160.87109375 -54.478515625 c 1
 153.458007812 -108.025390625 77.9169921875 -91.408203125 48.4775390625 -102.546875 c 0
 34.1748046875 -107.958984375 l 1
 39.42578125 -93.5966796875 l 2
EndSplineSet
Validated: 1
EndChar

StartChar: S
Encoding: 83 83 40
GlifName: S_
Width: 633
VWidth: 0
Flags: W
HStem: -9.56348 60.0068<239.819 389.531> 695.885 46.4453<277.872 408.583>
VStem: 70.002 75.042<147.441 178.376> 95.5469 139.135<520.214 632.989> 438.308 132.501<125.48 240.791>
LayerCount: 2
Fore
SplineSet
145.043945312 205.3203125 m 5xe8
 150.727539062 155.765625 214.362304688 50.443359375 315.37109375 50.443359375 c 4
 389.67578125 50.443359375 438.307617188 101.716796875 438.307617188 174.490234375 c 4
 438.307617188 248.498046875 372.27734375 295.260742188 284.2109375 345.998046875 c 4
 191.44921875 399.440429688 95.546875 475.96484375 95.546875 558.513671875 c 4
 95.546875 650.10546875 189.591796875 742.330078125 349.258789062 742.330078125 c 4
 438.71875 742.330078125 535.370117188 714.271484375 535.370117188 686 c 4
 535.370117188 672.71484375 513.745117188 587.8984375 494 587.8984375 c 4
 466.294921875 587.8984375 448.184570312 695.884765625 332.271484375 695.884765625 c 4
 271.01171875 695.884765625 234.681640625 633.635742188 234.681640625 584.477539062 c 4xd8
 234.681640625 516.303710938 294.860351562 476.044921875 381.65234375 427.26953125 c 4
 487.294921875 366.634765625 570.80859375 304.59375 570.80859375 214.552734375 c 4
 570.80859375 130.538085938 523.146484375 78.2412109375 472.795898438 38.103515625 c 4
 434.486328125 7.857421875 364.520507812 -9.5634765625 312.998046875 -9.5634765625 c 4
 160.95703125 -9.5634765625 70.001953125 75.9794921875 70.001953125 123 c 4
 70.001953125 146.665039062 107.67578125 216.002929688 132 216.002929688 c 4
 135.349609375 216.002929688 144.1015625 214.380859375 145.043945312 205.3203125 c 5xe8
EndSplineSet
Validated: 1
EndChar

StartChar: T
Encoding: 84 84 41
GlifName: T_
Width: 749
VWidth: 0
Flags: W
HStem: 0 29<259 291.833 467.903 509.397> 685.114 44.8857<128.381 294.363 457.92 651.18>
VStem: 58 33.9531<590.339 640.117> 313.023 142.003<36.2631 683.734> 668.169 30.7305<589.981 661.06>
LayerCount: 2
Fore
SplineSet
510 0 m 5
 259 0 l 5
 259 0 254.391601562 6.552734375 254.391601562 15.3046875 c 4
 254.391601562 23.3046875 259 29 259 29 c 5
 266.004882812 29.2841796875 l 4
 278.364257812 29.439453125 283.037109375 30.3623046875 292.26171875 35.314453125 c 4
 306.427734375 42.9189453125 310.024414062 55.048828125 310.142578125 64.0576171875 c 4
 311.5390625 128.842773438 313.0234375 264.541992188 313.0234375 329.220703125 c 7
 313.0234375 467.991210938 311.791015625 515.668945312 311.534179688 654.8984375 c 4
 311.534179688 670.685546875 305.635742188 682.237304688 294.63671875 683.815429688 c 4
 288.87890625 684.641601562 277.482421875 685.114257812 263.635742188 685.114257812 c 4
 228.80859375 685.114257812 190.4296875 682.118164062 161.298828125 677.104492188 c 4
 119.048828125 669.721679688 101.326171875 640.477539062 91.953125 590.315429688 c 5
 58 590.338867188 l 5
 77.2841796875 727.470703125 l 5
 77.3984375 727.880859375 l 4
 79.1357421875 734.109375 85.2607421875 735.953125 89.140625 735.953125 c 4
 97.06640625 735.953125 106.72265625 732.861328125 113.200195312 732.763671875 c 4
 150.03515625 732.20703125 267.833984375 730 394.189453125 730 c 5
 505.100585938 730.999023438 580.114257812 732.755859375 669.889648438 734.752929688 c 4
 673.140625 734.825195312 687.814453125 737.774414062 694.51171875 737.774414062 c 4
 699.46875 737.774414062 703.140625 737.12109375 703.140625 725.883789062 c 5
 698.899414062 589.981445312 l 5
 668.168945312 589.764648438 l 5
 668.016601562 625.19921875 660.038085938 671.8984375 629.67578125 679.145507812 c 4
 607.245117188 684.5 593.197265625 684.758789062 531.921875 684.758789062 c 4
 514.0859375 684.758789062 498.495117188 684.333984375 479.612304688 683.956054688 c 4
 464.529296875 683.654296875 457.94140625 672.017578125 457.821289062 661.188476562 c 4
 456.094726562 546.836914062 455.026367188 442.541992188 455.026367188 328.3828125 c 7
 455.026367188 236.970703125 455.85546875 155.717773438 457.881835938 64.46875 c 5
 458.006835938 54.91796875 466.037109375 39.744140625 482.155273438 33.546875 c 4
 489.245117188 30.8212890625 495.286132812 29.38671875 503.23046875 29.2841796875 c 4
 509.397460938 28.609375 l 5
 509.397460938 28.609375 513.391601562 24.056640625 513.391601562 15.3046875 c 4
 513.391601562 7.3046875 510 0 510 0 c 5
EndSplineSet
Validated: 1
EndChar

StartChar: Q
Encoding: 81 81 42
GlifName: Q_
Width: 878
VWidth: 0
Flags: W
HStem: -151.864 60.2461<520.079 670.195> 683.77 49.0391<339.241 529.522>
VStem: 65 153.326<215.569 487.501> 662.246 151.326<236.065 494.478>
LayerCount: 2
Fore
SplineSet
428.982421875 683.76953125 m 0
 226.6640625 683.76953125 218.326171875 438.814453125 218.326171875 380.296875 c 0
 218.326171875 71.1904296875 391.54296875 33.6669921875 446.181640625 33.6669921875 c 0
 557.459960938 33.6669921875 662.24609375 118.610351562 662.24609375 372.69921875 c 0
 662.24609375 517.133789062 612.104492188 683.76953125 428.982421875 683.76953125 c 0
436.302734375 732.80859375 m 0
 637.23828125 732.80859375 813.572265625 605.609375 813.572265625 356.807617188 c 0
 813.572265625 136.9921875 635.59765625 5.9990234375 479.734375 -14.2607421875 c 1
 488.951171875 -64.3271484375 530.96484375 -91.6181640625 639.802734375 -91.6181640625 c 0
 647.591796875 -91.6181640625 655.706054688 -91.416015625 664.154296875 -91.0087890625 c 0
 670.1953125 -90.7177734375 l 1
 681.96875 -147.419921875 l 1
 673.759765625 -148.138671875 l 0
 645.8984375 -150.578125 619.796875 -151.864257812 595.475585938 -151.864257812 c 0
 460.456054688 -151.864257812 374.689453125 -113.264648438 361.65625 -9.4599609375 c 1
 235.9921875 14.2890625 65 102.645507812 65 348.01953125 c 0
 65 597.638671875 239.485351562 732.80859375 436.302734375 732.80859375 c 0
EndSplineSet
Validated: 1
EndChar

StartChar: P
Encoding: 80 80 43
GlifName: P_
Width: 618
VWidth: 0
Flags: W
HStem: 0 29<37 44.0381 280.249 287.397> 274.9 53.0996<260.081 377.534> 689.888 42.1123<236.637 361.136> 701 29<37 78.9043>
VStem: 91.2793 142.246<37.9696 689.396> 449.653 122.734<402.494 609.151>
LayerCount: 2
Fore
SplineSet
287.397460938 28.609375 m 1xec
 287.397460938 28.609375 291.391601562 24.056640625 291.391601562 15.3046875 c 0
 291.391601562 7.3046875 288 0 288 0 c 1
 37 0 l 1
 37 0 32.3916015625 6.552734375 32.3916015625 15.3046875 c 0
 32.3916015625 23.3046875 37 29 37 29 c 1
 44.0380859375 29.3837890625 l 2
 67 31 89.373046875 46.6103515625 89.373046875 63.806640625 c 0
 90.97265625 180.919921875 91.279296875 284.684570312 91.279296875 400.326171875 c 0
 91.279296875 487.400390625 89.494140625 572.247070312 89.494140625 659.176757812 c 0
 89.494140625 687.556640625 66 701 45.0419921875 701.021484375 c 2
 37 701 l 1
 37 701 32.3916015625 707.552734375 32.3916015625 716.3046875 c 0
 32.3916015625 724.3046875 37 730 37 730 c 1xdc
 297.758789062 732 l 0
 477.401367188 732 572.387695312 671.052734375 572.387695312 503.467773438 c 0
 572.387695312 347.451171875 460.828125 274.900390625 320.137695312 274.900390625 c 0
 307.390625 274.900390625 295.76953125 275.51171875 283.39453125 276.7109375 c 0
 269.357421875 278.071289062 259.200195312 290.041015625 259.200195312 303 c 0
 259.200195312 314.53125 279.0390625 328 293.346679688 328 c 0
 386.850585938 328 449.653320312 377.768554688 449.653320312 515.353515625 c 0
 449.653320312 651.674804688 352.022460938 689.887695312 270.8828125 689.887695312 c 0
 236.63671875 689.887695312 l 1
 234.458984375 590.973632812 233.525390625 494.219726562 233.525390625 395.96484375 c 0
 233.525390625 281.893554688 234.66015625 177.737304688 236.504882812 63.4375 c 0
 236.702148438 45.740234375 259 32 280.249023438 29.3505859375 c 2
 287.397460938 28.609375 l 1xec
EndSplineSet
Validated: 1
EndChar

StartChar: R
Encoding: 82 82 44
GlifName: R_
Width: 723
VWidth: 0
Flags: W
HStem: 0 28.9463<54 60.9062 263.073 304.05 663.656 670> 313.006 57.9941<249.992 283.415> 689.888 44.1123<253.031 374.525> 701.022 29.082<54 97.0517>
VStem: 108.146 141.423<36.8886 315.342 371.257 689.806> 441.53 132.726<451.481 620.839>
LayerCount: 2
Fore
SplineSet
670 0 m 1xec
 527 0 l 0
 476.712890625 0 450.397460938 59.7802734375 438.153320312 73.4677734375 c 0
 438.153320312 73.4677734375 283.173828125 295.288085938 270.87109375 313.005859375 c 1
 265.340820312 313.038085938 259.541015625 313.081054688 249.9921875 315.341796875 c 1
 252.829101562 63.505859375 l 2
 253.01171875 45.7666015625 274.7421875 29.3134765625 298.143554688 28.9462890625 c 2
 304.049804688 28.853515625 l 1
 304.049804688 28.853515625 308.391601562 24.056640625 308.391601562 15.3046875 c 0
 308.391601562 7.3046875 305 0 305 0 c 1
 54 0 l 1
 54 0 49.3916015625 6.552734375 49.3916015625 15.3046875 c 0
 49.3916015625 23.3046875 54 29 54 29 c 1
 60.90625 29.3837890625 l 2
 85 31 106.046875 46.095703125 106.2421875 64.5673828125 c 0
 107.838867188 181.212890625 108.145507812 287.8125 108.145507812 404.251953125 c 0
 108.145507812 490.012695312 106.362304688 572.548828125 106.362304688 658.177734375 c 0
 106.362304688 683.557617188 91 701 61.91015625 701.022460938 c 2
 54 701 l 1
 54 701 49.3916015625 707.552734375 49.3916015625 716.3046875 c 0
 49.3916015625 724.3046875 54 730 54 730 c 1
 62.1318359375 730.33203125 l 0
 70.7490234375 730.172851562 78.3720703125 730.104492188 87 730.104492188 c 0xdc
 150.796875 730.104492188 224.837890625 734 290.265625 734 c 0
 446.657226562 734 574.255859375 676.373046875 574.255859375 534.771484375 c 0
 574.255859375 431.076171875 504.38671875 358.008789062 414.90234375 335.102539062 c 1
 502.209960938 213.06640625 573.452148438 113.7109375 613.497070312 60.310546875 c 0
 627.575195312 41.5380859375 636 32 663.65625 30.0830078125 c 2
 670.397460938 29.609375 l 1
 670.397460938 29.609375 674.391601562 25.056640625 674.391601562 16.3046875 c 0
 674.391601562 8.3046875 670 0 670 0 c 1xec
249.568359375 406.34375 m 0
 249.568359375 396.552734375 249.57421875 379.799804688 249.6015625 371.256835938 c 1
 259.293945312 371.109375 269.666992188 371 279 371 c 0
 373.598632812 371 441.530273438 443.59765625 441.530273438 531.491210938 c 0
 441.530273438 635.219726562 377.756835938 689.887695312 294 689.887695312 c 0
 253.03125 689.887695312 l 1xec
 252.1015625 591.006835938 249.568359375 504.33203125 249.568359375 406.34375 c 0
EndSplineSet
Validated: 1
EndChar

StartChar: U
Encoding: 85 85 45
GlifName: U_
Width: 805
VWidth: 0
Flags: W
HStem: -10.665 46.667<329.922 485.694> 701 29<42 48.7666 250.53 292.92 546.244 588.22 719.153 761>
VStem: 95.7393 142.326<163.789 693.014> 598.919 110.013<171.905 645.655 645.757 694.126>
LayerCount: 2
Fore
SplineSet
546.244140625 701.018554688 m 1
 546.244140625 701.018554688 542 707.248046875 542 716 c 0
 542 724 546 730 546 730 c 1
 761 730 l 1
 761 730 764 724.751953125 764 716 c 0
 764 708 761 701 761 701 c 1
 753.83203125 700.88671875 l 2
 734.921875 700.587890625 708.278320312 684.53515625 708.21875 666.16796875 c 0
 708.1953125 658.831054688 708.185546875 645.747070312 708.185546875 645.747070312 c 1
 708.185546875 645.747070312 708.931640625 518.928710938 708.931640625 456.4609375 c 0
 708.931640625 374.99609375 708.5625 312.677734375 707.850585938 278.514648438 c 0
 702.90234375 40.923828125 528.0859375 -10.6650390625 405.6875 -10.6650390625 c 0
 281.334960938 -10.6650390625 96.482421875 41.8203125 95.7392578125 291.442382812 c 2
 94.6005859375 663.946289062 l 2
 94.6005859375 684.73046875 71 699 48.7666015625 700.534179688 c 2
 42 701 l 1
 42 701 37.3916015625 707.552734375 37.3916015625 716.3046875 c 0
 37.3916015625 724.3046875 42 730 42 730 c 1
 292.919921875 730.004882812 l 1
 292.919921875 730.004882812 296.391601562 725.056640625 296.391601562 716.3046875 c 0
 296.391601562 708.3046875 293 701 293 701 c 1
 286.012695312 700.716796875 l 2
 261 700 241.075195312 685.649414062 240.716796875 664.11328125 c 0
 239.469726562 589.142578125 238.065429688 324.372070312 238.065429688 318.538085938 c 0
 238.065429688 117.192382812 301.248046875 36.001953125 408.458007812 36.001953125 c 0
 503.2265625 36.001953125 598.918945312 119.043945312 598.918945312 304.530273438 c 0
 598.918945312 334.883789062 598.603515625 636.013671875 598.603515625 666.04296875 c 0
 598.603515625 683.490234375 576.021484375 700.630859375 553.151367188 700.928710938 c 2
 546.244140625 701.018554688 l 1
EndSplineSet
Validated: 1
EndChar

StartChar: J
Encoding: 74 74 46
GlifName: J_
Width: 378
VWidth: 0
Flags: W
HStem: -180.214 38.5156<-62 0.908039> 701.305 28.6953<61.3916 103.543 269.821 311.397>
VStem: 114.29 143.1<-43.8826 694.012>
LayerCount: 2
Fore
SplineSet
312.046875 730 m 1
 312.046875 730 315.391601562 724.056640625 315.391601562 715.3046875 c 0
 315.391601562 707.3046875 311.397460938 701.3046875 311.397460938 701.3046875 c 1
 304.131835938 700.911132812 l 2
 281 700 260.139648438 684.928710938 259.82421875 666.620117188 c 0
 258.787109375 606.201171875 257.389648438 522.18359375 257.389648438 424.700195312 c 0
 257.389648438 248.86328125 259.53125 61.7353515625 260.196289062 39.5791015625 c 0
 259.662109375 -103.026367188 138.578125 -174.78515625 -62 -180.213867188 c 1
 -62 -141.698242188 l 1
 66.2392578125 -113.787109375 111.51171875 -71.3896484375 112.859375 83.3212890625 c 0
 113.098632812 110.798828125 114.290039062 296.1015625 114.290039062 466.247070312 c 0
 114.290039062 545.038085938 114.1328125 610.58984375 113.290039062 665.6875 c 0
 112.9921875 685.1484375 93 700 68.564453125 700.931640625 c 2
 61.3916015625 701.3046875 l 1
 61.3916015625 701.3046875 57.3916015625 707.552734375 57.3916015625 716.3046875 c 0
 57.3916015625 724.3046875 61 730 61 730 c 1
 312.046875 730 l 1
EndSplineSet
Validated: 1
EndChar

StartChar: plus
Encoding: 43 43 47
GlifName: plus
Width: 446
VWidth: 0
Flags: W
HStem: 249 98<79.8643 173.676 273.006 381.226>
VStem: 174 98<130.528 248.986 347.265 443.326>
LayerCount: 2
Fore
SplineSet
272 145 m 4
 272 130.977539062 233.142578125 127 224 127 c 4
 215.368164062 127 174 130.409179688 174 145 c 4
 174 247 l 4
 174 247.72265625 173.720703125 248.715820312 173.609375 249 c 5
 79.8642578125 249 l 5
 78.7861328125 249.359375 l 4
 66.7568359375 253.369140625 62 289.216796875 62 300 c 4
 62 309.826171875 66.8525390625 347 81 347 c 4
 172 347 l 4
 173.33984375 347 173.67578125 347.255859375 173.67578125 347.255859375 c 5
 173.790039062 347.450195312 174 348.248046875 174 349 c 4
 174 444.044921875 l 5
 178.786132812 445.640625 l 4
 188.055664062 448.73046875 216.813476562 454 226 454 c 4
 235.219726562 454 262.56640625 448.54296875 269.130859375 445.260742188 c 4
 273 443.326171875 l 5
 273 348 l 4
 273 347.5703125 273.005859375 347 273.005859375 347 c 5
 368 347 l 4
 382.67578125 347 384 303.130859375 384 295 c 4
 384 288.265625 382.497070312 249 368 249 c 4
 272 249 l 4
 272 145 l 4
EndSplineSet
Validated: 1
EndChar

StartChar: B
Encoding: 66 66 48
GlifName: B_
Width: 679
VWidth: 0
Flags: W
HStem: -1.66699 39.9814<263.08 390.805> 0 30<64 105.632> 360.477 40.6455<262.383 361.708> 689.924 44.0762<259.207 368.85> 701 29.1514<64 106.372>
VStem: 116.242 145.775<39.5793 358.292 402.178 688.03> 433.991 135.265<484.783 624.797> 467.078 142.734<114.657 271.166>
LayerCount: 2
Fore
SplineSet
136.559570312 0 m 1048,0,-1
64 0 m 1,1,-1
 64 0 60 6.248046875 60 15 c 0,4,-1
 60 23 64 30 64 30 c 1,7,-1
 86.8251953125 30.6328125 116.017578125 43.3896484375 116.2421875 64.5673828125 c 0,10,-1
 117.829101562 180.55859375 119.146484375 286.502929688 119.146484375 402.290039062 c 0,13,-1
 119.146484375 488.706054688 116.362304688 574.8984375 116.362304688 661.177734375 c 0,16,-1
 116.362304688 685.376953125 96.7333984375 700.686523438 64 701 c 1,19,-1
 64 701 60 706.248046875 60 715 c 0,22,-1
 60 723 64 730 64 730 c 1,25,-1
 67.58203125 730.119140625 73.0556640625 730.151367188 78.71484375 730.151367188 c 0,28,-1
 85.5341796875 730.151367188 92.6240234375 730.104492188 97 730.104492188 c 0,31,-1
 160.796875 730.104492188 246.94140625 734 314.408203125 734 c 0,34,-1
 465.888671875 734 569.255859375 658.194335938 569.255859375 549.553710938 c 0,37,-1
 569.255859375 472.431640625 487.366210938 416.331054688 406.270507812 391 c 1,40,-1
 493.724609375 374.106445312 609.8125 308.243164062 609.8125 188.741210938 c 0,43,-1
 609.8125 49.2685546875 501.572265625 -1.6669921875 380.186523438 -1.6669921875 c 0,46,-1
 306.259765625 -1.6669921875 222.758789062 0 150.559570312 0 c 0,49,-1
 64 0 l 1,1,-1
467.078125 198.264648438 m 0,50,-1
 467.078125 307.607421875 379.413085938 359.693359375 296.153320312 360.4765625 c 1,53,-1
 262.3828125 358.291992188 l 1,54,-1
 262.017578125 66.9873046875 l 2,55,-1
 262.844726562 49.154296875 269.609375 39.6103515625 277.875 39.443359375 c 1,58,-1
 294.9453125 39.0048828125 301.627929688 38.314453125 318.635742188 38.314453125 c 0,61,-1
 411.043945312 38.314453125 467.078125 116.40625 467.078125 198.264648438 c 0,50,-1
300.245117188 401.122070312 m 0,64,-1
 360.770507812 401.122070312 433.991210938 462.391601562 433.991210938 548.590820312 c 0,67,-1
 433.991210938 628.049804688 371.888671875 689.923828125 311.790039062 689.923828125 c 0,70,-1
 295.622070312 689.923828125 270.983398438 687.6640625 270.067382812 687.627929688 c 0,73,-1
 260.388671875 687.241210938 260.102539062 676.118164062 259.20703125 668.064453125 c 1,76,-1
 260.494140625 519.555664062 l 0,77,-1
 260.92578125 402.177734375 l 1,78,-1
 275.130859375 401.750976562 287.272460938 401.122070312 300.245117188 401.122070312 c 0,64,-1
EndSplineSet
Validated: 1
EndChar

StartChar: C
Encoding: 67 67 49
GlifName: C_
Width: 819
VWidth: 0
Flags: W
HStem: -10 56<368.927 562.172> 690.77 51.2314<356.318 550.727>
VStem: 65 153<225.496 490.34> 709.579 27.1055<452.365 505.492>
LayerCount: 2
Fore
SplineSet
453.3515625 742.000976562 m 0
 595.34375 742.000976562 660.116210938 657.255859375 685 657.255859375 c 0
 704.168945312 657.255859375 703.916992188 683.427734375 719.506835938 683.427734375 c 0
 726.176757812 683.427734375 733.845703125 676.545898438 733.999023438 665.139648438 c 0
 736.684570312 463.795898438 l 1
 736.333984375 458.896484375 730.397460938 452.322265625 724.036132812 452.322265625 c 0
 719.416015625 452.322265625 711.576171875 454.2265625 709.579101562 462.323242188 c 0
 685.114257812 561.456054688 611.583007812 690.76953125 438.883789062 690.76953125 c 0
 279.526367188 690.76953125 218 509.981445312 218 384.646484375 c 0
 218 82.6123046875 388.673828125 46 461.984375 46 c 0
 617.329101562 46 694.795898438 183.2265625 701.366210938 198.103515625 c 1
 747.598632812 182.6640625 l 0
 747.032226562 181.059570312 673.920898438 -10 434.000976562 -10 c 0
 314.80859375 -10 65 53.6748046875 65 352.255859375 c 0
 65 552.173828125 183.037109375 742.000976562 453.3515625 742.000976562 c 0
EndSplineSet
Validated: 1
EndChar

StartChar: E
Encoding: 69 69 50
GlifName: E_
Width: 645
VWidth: 0
Flags: W
HStem: 0 35<67 101.499 262.791 469.949> 375 40<255.499 441.178> 695 35<67 116.668 280.974 430.944>
VStem: 119 139<38.2422 371.836 417.444 691.83> 454 17<315 347.829 438.996 474> 514 29<567 613.343> 548 30<113.677 163>
LayerCount: 2
Fore
SplineSet
67 701 m 1
 67 701 63 706 63 715 c 0
 63 723 67 730 67 730 c 1
 137 730 209 730 287 730 c 2
 525 730 l 1
 543 565 l 1
 514 567 l 1
 501 629 478 665 414 684 c 0
 381 694 359 695 329 695 c 0
 308 695 301 694 280 692 c 0
 265 690 258 671 258 664 c 0
 254 419 l 1
 286 417 317 415 348 415 c 0
 386 415 395 416 426 421 c 1
 446 427 452 450 454 474 c 1
 471 474 l 1
 471 315 l 1
 454 315 l 1
 450 339 445 363 422 369 c 1
 390 374 381 375 346 375 c 0
 314 375 283 372 254 370 c 1
 258 71 l 1
 258 61 264 40 281 38 c 0
 300 36 311 35 329 35 c 0
 395 35 407 36 451 46 c 0
 513 61 535 101 548 163 c 1
 578 165 l 1
 559 0 l 1
 67 0 l 1
 67 0 63 6 63 15 c 0
 63 23 67 31 67 31 c 1
 80 31 91.32421875 31.99609375 102 36 c 0
 118 42 119 56 119 66 c 0
 121 83 121 249 121 410 c 0
 121 535.963867188 119 630.866210938 119 656 c 1
 119 666 l 0
 119 675 112 696 96 699 c 0
 86 701 78 701 67 701 c 1
EndSplineSet
Validated: 1
EndChar

StartChar: F
Encoding: 70 70 51
GlifName: F_
Width: 645
VWidth: 0
Flags: W
HStem: 0 30<68 95.6383 274.35 307> 355 37<255.334 448.533> 695.333 34.667<68 117.389 258.502 473.889>
VStem: 119.258 137.566<34.5529 352.217 398.002 665.756 665.857 691.596> 463.073 17.0479<295.025 326.683 419.106 454.521> 552.23 29.7324<567.662 616.731>
LayerCount: 2
Fore
SplineSet
307 0 m 1
 68 0 l 1
 68 0 64 6.248046875 64 15 c 0
 64 23 68 30 68 30 c 1
 75.91015625 30.3125 l 2
 84.0146484375 30.6787109375 88.5361328125 31.09765625 95.9853515625 32.5771484375 c 0
 112.149414062 35.7861328125 119.248046875 54.03125 119.2578125 63.41015625 c 0
 119.2578125 63.732421875 l 1
 119.2890625 64.0537109375 l 0
 120.969726562 81.3701171875 121.266601562 239.23046875 121.266601562 395.419921875 c 0
 121.266601562 526.375976562 120.241210938 665.857421875 120.241210938 665.857421875 c 2
 120.241210938 675.568359375 112.215820312 695.456054688 95.98046875 698.684570312 c 0
 84.87890625 700.892578125 80.7607421875 700.887695312 68 701 c 1
 68 701 64 706.248046875 64 715 c 0
 64 723 68 730 68 730 c 1
 563.201171875 730.333007812 l 1
 581.962890625 565.829101562 l 1
 552.23046875 567.662109375 l 1
 539.478515625 629.21875 516.823242188 669.387695312 454.958984375 684.340820312 c 0
 412.733398438 694.411132812 374.342773438 694.990234375 311.731445312 695.333007812 c 1
 290.9453125 695.333007812 300.586914062 694.393554688 279.578125 692.064453125 c 0
 263.176757812 690.247070312 256.69921875 679.540039062 256.69921875 669.387695312 c 1
 253.86328125 400.40234375 l 1
 285.2734375 398.223632812 314.15234375 392 344.946289062 392 c 0
 383.397460938 392 404.107421875 398.880859375 434.985351562 401.587890625 c 1
 454.119140625 406.140625 461.9375 430.885742188 463.32421875 454.520507812 c 1
 480.12109375 454.520507812 l 1
 480.12109375 295.025390625 l 1
 463.073242188 295.025390625 l 1
 458.897460938 318.278320312 453.229492188 343.314453125 430.532226562 348.610351562 c 1
 397.366210938 351.612304688 376.999023438 355 340.966796875 355 c 0
 308.350585938 355 279.30078125 352.35546875 251.564453125 350.041992188 c 1
 251.197265625 314.635742188 l 1
 256.82421875 67.4345703125 l 0
 256.942382812 58.4736328125 259.715820312 38.931640625 273.87890625 34.326171875 c 0
 284.002929688 31.0341796875 289.118164062 30.849609375 300.13671875 30.294921875 c 2
 307 30 l 1
 307 30 310 23.751953125 310 15 c 0
 310 7 307 0 307 0 c 1
310 15 m 1048
EndSplineSet
Validated: 1
EndChar

StartChar: G
Encoding: 71 71 52
GlifName: G_
Width: 815
VWidth: 0
Flags: W
HStem: -10.0078 56.0078<349.921 533.376> 280 29<565 611.718 742.255 788> 690.77 51.2314<346.576 543.814>
VStem: 55 153<218.038 490.34> 621.058 110.942<121.302 275.861> 694.579 32.6025<451.997 511.328>
LayerCount: 2
Fore
SplineSet
565 280 m 1xf8
 565 280 562 286 562 294 c 0
 562 302.751953125 565 309 565 309 c 1
 788 309 l 1
 788 309 791 302.751953125 791 294 c 0
 791 286 788 280 788 280 c 1
 776.995117188 279.385742188 767.516601562 279.090820312 757.869140625 277.178710938 c 0
 741.830078125 273.999023438 735.922851562 253.900390625 735.60546875 244.165039062 c 2
 732 168.668945312 l 1xf8
 732 142.39453125 722.411132812 133.822265625 707.73046875 113.349609375 c 0
 668.251953125 58.298828125 571.2421875 -10.0078125 429.255859375 -10.0078125 c 0
 283.397460938 -10.0078125 55 52.60546875 55 352.255859375 c 0
 55 552.173828125 173.037109375 742.000976562 442.46484375 742.000976562 c 0
 583.970703125 742.000976562 644.736328125 658.255859375 670 658.255859375 c 0
 688.58984375 658.255859375 691.877929688 684.903320312 709 684.903320312 c 0
 715.9453125 684.903320312 724.134765625 675.331054688 724.374023438 665.631835938 c 1
 727.181640625 466.458984375 l 1
 726.724609375 459.561523438 717.700195312 451.991210938 711.048828125 451.991210938 c 0
 706.216796875 451.991210938 696.576171875 455.2265625 694.579101562 463.323242188 c 0xf4
 670.114257812 562.456054688 605.153320312 690.76953125 435.046875 690.76953125 c 0
 264.338867188 690.76953125 208 509.981445312 208 384.646484375 c 0
 208 72.7783203125 380.137695312 46 445.345703125 46 c 0
 537.092773438 46 621.057617188 117.681640625 621.057617188 171.828125 c 1
 618.48828125 244.504882812 l 2
 618.317382812 254.064453125 612.143554688 274.1484375 595.5625 277.322265625 c 0
 585.62890625 279.223632812 575.836914062 280.51953125 565 280 c 1xf8
562 294 m 1048
791 294 m 1048
EndSplineSet
Validated: 1
EndChar

StartChar: K
Encoding: 75 75 53
GlifName: K_
Width: 680
VWidth: 0
Flags: W
HStem: 0 29<39 79.845 282.264 289.397 409.264 433.835 598.308 633.264> 702 28<40.3916 79.8165 246.912 290 381 419.314 549.466 592>
VStem: 91.2637 147<35.657 319.69 450.321 695.185>
LayerCount: 2
Fore
SplineSet
633.263671875 29 m 1
 633.263671875 29 637.391601562 24.056640625 637.391601562 15.3046875 c 0
 637.391601562 7.3046875 634 0 634 0 c 1
 409 0 l 1
 409 0 404.391601562 6.552734375 404.391601562 15.3046875 c 0
 404.391601562 23.3046875 409.263671875 29 409.263671875 29 c 1
 430.923828125 29 436.139648438 43.5068359375 436.139648438 56.451171875 c 0
 436.139648438 65.5927734375 427.423828125 81.11328125 417.461914062 95 c 0
 339.263671875 204 264.637695312 297.649414062 249 320 c 1
 241.970703125 313.260742188 244.255859375 314.21875 237.317382812 310.856445312 c 1
 238.263671875 66.072265625 l 2
 238.465820312 46.6611328125 259.458984375 30.2490234375 282.263671875 29 c 2
 289.397460938 28.609375 l 1
 289.397460938 28.609375 293.391601562 24.056640625 293.391601562 15.3046875 c 0
 293.391601562 7.3046875 290 0 290 0 c 1
 39 0 l 1
 39 0 34.3916015625 6.552734375 34.3916015625 15.3046875 c 0
 34.3916015625 23.3046875 39 29 39 29 c 1
 46.263671875 29 l 2
 67.578125 29 91.263671875 46.86328125 91.263671875 65.521484375 c 0
 93.0986328125 181.290039062 93.4267578125 286.764648438 93.4267578125 402.221679688 c 3
 93.4267578125 493.435546875 92.5 574.336914062 91.263671875 665.4296875 c 0
 91.0234375 683.1640625 70 701 46.263671875 702 c 2
 40.3916015625 702.3046875 l 1
 40.3916015625 702.3046875 36.3916015625 707.552734375 36.3916015625 716.3046875 c 0
 36.3916015625 724.3046875 39 730 39 730 c 1
 290 730 l 1
 290 730 294.391601562 725.056640625 294.391601562 716.3046875 c 0
 294.391601562 708.3046875 290.397460938 702.3046875 290.397460938 702.3046875 c 1
 283.263671875 702 l 2
 259 701 238.681640625 689.293945312 238.263671875 665.952148438 c 2
 234.404296875 450.321289062 l 1
 249.883789062 457.572265625 250.693359375 455.256835938 273 485 c 1
 406.692382812 643.23828125 l 0
 421.04296875 662.098632812 425.243164062 673.512695312 425.243164062 678.751953125 c 0
 425.243164062 689.799804688 398.608398438 701.6953125 387.872070312 701.6953125 c 2
 381 702 l 1
 381 702 376.391601562 706.552734375 376.391601562 715.3046875 c 0
 376.391601562 723.3046875 381 730 381 730 c 1
 592 730 l 1
 592 730 596.391601562 724.056640625 596.391601562 715.3046875 c 0
 596.391601562 707.3046875 592 702 592 702 c 1
 581.866210938 701.6953125 l 2
 550.602539062 700.6953125 543.716796875 680.766601562 524.880859375 657.501953125 c 2
 330.235351562 412.736328125 l 1
 345.575195312 390.590820312 l 1
 352.696289062 382.427734375 l 0
 450.120117188 246.2734375 539.198242188 119.084960938 582.940429688 59.68359375 c 1
 596.263671875 42 616 29 626.263671875 29 c 2
 633.263671875 29 l 1
EndSplineSet
Validated: 1
EndChar

StartChar: Y
Encoding: 89 89 55
GlifName: Y_
Width: 752
VWidth: 0
Flags: W
HStem: 0 29.3828<252 258.964 456.749 502.98> 701 29<54 60.9102 272.724 311.392 519 558.129 666.255 707.98>
VStem: 303.71 146.917<35.7249 393.006>
LayerCount: 2
Fore
SplineSet
502.98046875 29 m 1
 502.98046875 29 506.391601562 24.056640625 506.391601562 15.3046875 c 0
 506.391601562 7.3046875 503 0 503 0 c 1
 252 0 l 1
 252 0 247.391601562 6.552734375 247.391601562 15.3046875 c 0
 247.391601562 23.3046875 252 29 252 29 c 1
 258.963867188 29.3828125 l 2
 283 31 303.709960938 46.19921875 303.709960938 64.9951171875 c 0
 304.967773438 135.228515625 305.811523438 191.126953125 305.811523438 259.03125 c 3
 305.811523438 300.251953125 305.9609375 343.719726562 306.083984375 382.946289062 c 1
 220.188476562 507.120117188 148.473632812 617.557617188 108.212890625 671.241210938 c 0
 94.859375 689.044921875 76.7265625 699.258789062 60.91015625 700.470703125 c 2
 54 701 l 1
 54 701 49.3916015625 707.552734375 49.3916015625 716.3046875 c 0
 49.3916015625 724.3046875 54 730 54 730 c 1
 312.98046875 730 l 1
 312.98046875 730 311.391601562 725.056640625 311.391601562 716.3046875 c 0
 311.391601562 708.3046875 313 701 313 701 c 1
 306.592773438 700.907226562 l 2
 290.990234375 700.681640625 265.822265625 687.219726562 265.822265625 674.557617188 c 0
 265.822265625 669.491210938 267.635742188 662.502929688 276.651367188 649.008789062 c 0
 406.440429688 470.90234375 l 1
 544.674804688 643.278320312 l 0
 558.684570312 662.418945312 562.836914062 671.828125 562.836914062 678.008789062 c 0
 562.836914062 687.953125 540.01171875 700.5078125 526.206054688 700.831054688 c 2
 519 701 l 1
 519 701 514.391601562 707.552734375 514.391601562 716.3046875 c 0
 514.391601562 724.3046875 519 730 519 730 c 1
 707.98046875 730 l 1
 707.98046875 730 711.391601562 725.056640625 711.391601562 716.3046875 c 0
 711.391601562 708.3046875 708 701 708 701 c 1
 700.590820312 701.393554688 l 0
 677.13671875 701.088867188 660.051757812 682.291992188 652.70703125 671.8828125 c 1
 447.614257812 393.005859375 l 1
 448.3984375 346.58203125 448.645507812 303.551757812 448.645507812 258.049804688 c 0
 448.645507812 190.790039062 449.32421875 133.291015625 450.626953125 65.5205078125 c 0
 450.626953125 45.1796875 463 30 487.692382812 29.3828125 c 2
 502.98046875 29 l 1
EndSplineSet
Validated: 1
EndChar

StartChar: Z
Encoding: 90 90 56
GlifName: Z_
Width: 740
VWidth: 0
Flags: W
HStem: 0 46<231.907 531.793> 687.333 43<218.64 503.236>
LayerCount: 2
Fore
SplineSet
663.938476562 696.515625 m 0
 663.938476562 687.561523438 661.083007812 671.21484375 654.42578125 661.97265625 c 2
 230.228515625 52.283203125 l 1
 265.875976562 47.9912109375 311.750976562 46 353.227539062 46 c 0
 398.75 46 434.462890625 46.384765625 486.22265625 53.13671875 c 0
 572.283203125 64.3623046875 600 146 611.05859375 176.720703125 c 1
 644.243164062 178.443359375 l 1
 593.8046875 0 l 1
 86.8876953125 0 l 0
 79.1328125 0 54.0146484375 8.1259765625 54.0146484375 29.505859375 c 0
 54.0146484375 37.2177734375 57.1044921875 50.326171875 61.0888671875 55.9931640625 c 1
 503.236328125 683.662109375 l 1
 474.481445312 684.897460938 412.208007812 687.333007812 366.3828125 687.333007812 c 1
 304.875 687.020507812 297.333007812 685.87109375 255.442382812 677.291015625 c 0
 187.545898438 663.216796875 158.104492188 631.043945312 144.709960938 572.751953125 c 0
 143.5390625 567.654296875 l 1
 113.044921875 565.774414062 l 1
 146.091796875 725.021484375 l 1
 146.139648438 725.194335938 l 0
 148.49609375 733.734375 157.28125 734.543945312 162 734.543945312 c 0
 173.170898438 734.543945312 187.936523438 730 192.875 730 c 0
 376.560546875 730.333007812 l 0
 656.7421875 730.333007812 l 1
 658.443359375 725.786132812 l 0
 658.555664062 725.4921875 663.938476562 710.43359375 663.938476562 696.515625 c 0
EndSplineSet
Validated: 1
EndChar

StartChar: zero
Encoding: 48 48 57
GlifName: zero
Width: 520
VWidth: 0
Flags: W
HStem: -7 54<220.822 301.178> 587 53<220.937 301.178>
VStem: 25 130<178.642 455.262> 367 130<178.642 455.261>
LayerCount: 2
Fore
SplineSet
261 587 m 0
 206.513671875 587 155 485.548828125 155 317 c 0
 155 148.452148438 206.512695312 47 261 47 c 0
 315.486328125 47 367 148.451171875 367 317 c 0
 367 485.547851562 315.487304688 587 261 587 c 0
261 -7 m 0
 119.682617188 -7 25 140.491210938 25 317 c 0
 25 493.508789062 120.682617188 640 261 640 c 0
 402.317382812 640 497 493.508789062 497 317 c 0
 497 140.491210938 402.317382812 -7 261 -7 c 0
EndSplineSet
EndChar

StartChar: one
Encoding: 49 49 58
GlifName: one
Width: 520
VWidth: 0
Flags: W
HStem: 0 30<164 198.044 328.061 362> 624.135 20G<304.736 313.038>
VStem: 200 126<30.7282 540.982>
LayerCount: 2
Fore
SplineSet
355 30 m 0
 362 30 l 1
 362 0 l 1
 164 0 l 5
 164 30 l 5
 171 30 l 4
 190.911132812 30 200 42.9912109375 200 53.685546875 c 4
 200 500.581054688 l 4
 200 518.983398438 199.072265625 540.998046875 188 540.998046875 c 4
 176.611328125 540.998046875 165.416015625 535.307617188 159 533.013671875 c 5
 159 571.999023438 l 5
 196.16796875 586.131835938 258.458007812 612.979492188 290.14453125 637.041992188 c 0
 293.713867188 639.752929688 301.47265625 644.134765625 308 644.134765625 c 0
 318.076171875 644.134765625 326 638.288085938 326 627.381835938 c 0
 326 53.6875 l 0
 326 42.1611328125 335.760742188 30 355 30 c 0
EndSplineSet
EndChar

StartChar: two
Encoding: 50 50 59
GlifName: two
Width: 520
VWidth: 0
Flags: W
HStem: 0 68<202.124 425.879> 507.993 21G<99.3536 130.242> 587 55<178.716 314.98>
VStem: 346.031 125.969<428.709 556.421> 441.318 27.2471<96.7302 117.097>
LayerCount: 2
Fore
SplineSet
113.987304688 507.993164062 m 5xf0
 96.0888671875 532.455078125 l 5
 99.015625 537.725585938 132.040039062 642 274.538085938 642 c 4
 401.443359375 642 472 592.770507812 472 510.294921875 c 4xf0
 472 449.81640625 431.765625 385.754882812 351.978515625 279.56640625 c 4
 287.366489178 193.574411931 235.384765625 106.73828125 202.124023438 68 c 5
 359 68 l 4
 407.076171875 68 432.375976562 86.47265625 441.318359375 115.087890625 c 4
 443.094726562 120.771484375 l 5
 468.565429688 115.704101562 l 5xe8
 425.87890625 0 l 5
 51 0 l 5
 51 42.529296875 l 5
 153.8125 162.497070312 222.957522291 265.564875025 279.038085938 343.899414062 c 4
 315.169921875 394.369140625 346.03125 450.81640625 346.03125 491.283203125 c 4
 346.03125 546.405273438 314.056640625 587 250.904296875 587 c 4
 197.16796875 587 146.497070312 548.891601562 113.987304688 507.993164062 c 5xf0
EndSplineSet
EndChar

StartChar: hyphen
Encoding: 45 45 60
GlifName: hyphen
Width: 423
VWidth: 0
Flags: W
HStem: 248.59 98.1416<77.7227 367.134>
VStem: 58.2051 311.368<248.596 346.731>
LayerCount: 2
Fore
SplineSet
76.5439453125 248.982421875 m 6
 63.40234375 253.364257812 58.205078125 277.046875 58.205078125 299.75390625 c 4
 58.205078125 321.413085938 63.505859375 346.731445312 78.962890625 346.731445312 c 4
 351 346.731445312 l 7
 367.033203125 346.731445312 369.573242188 317.376953125 369.573242188 297.568359375 c 7
 369.573242188 279.28515625 366.837890625 248.58984375 351 248.58984375 c 4
 77.72265625 248.58984375 l 5
 76.5439453125 248.982421875 l 6
EndSplineSet
EndChar

StartChar: backslash
Encoding: 92 92 61
GlifName: backslash
Width: 438
VWidth: 0
Flags: W
LayerCount: 2
Fore
SplineSet
378.390625 -102.213867188 m 2
 368.543945312 -107.319335938 327.219726562 -110.052734375 316 -110.052734375 c 0
 291.509765625 -110.052734375 280.129882812 -94.162109375 275.297851562 -59.482421875 c 1
 270.124023438 -42.8505859375 123.668945312 427.55078125 36.40234375 673.66015625 c 0
 36 674.795898438 l 1
 36 676 l 0
 36 693.1640625 78.115234375 703.255859375 94 703.255859375 c 0
 108.606445312 703.255859375 135.180664062 695.747070312 153.465820312 681.525390625 c 1
 155.908203125 677.888671875 l 1
 227.877929688 420.998046875 300.8125 185.209960938 401.75 -93.6171875 c 0
 403.838867188 -99.388671875 l 1
 378.390625 -102.213867188 l 2
EndSplineSet
Validated: 1
EndChar

StartChar: parenleft
Encoding: 40 40 62
GlifName: parenleft
Width: 342
VWidth: 0
Flags: W
VStem: 60 122<186.411 490.666>
LayerCount: 2
Fore
SplineSet
293.77734375 747.046875 m 6
 266.96484375 707.860351562 182 645.889648438 182 330 c 4
 182 35.3779296875 266.922851562 -27.7646484375 295 -69.880859375 c 5
 295 -126.71875 l 5
 283.166992188 -115.064453125 60 50.2900390625 60 331 c 4
 60 642.025390625 282.9453125 783.58984375 295 793.779296875 c 5
 295 748.833984375 l 5
 293.77734375 747.046875 l 6
EndSplineSet
Validated: 1
EndChar

StartChar: parenright
Encoding: 41 41 63
GlifName: parenright
Width: 340
VWidth: 0
Flags: W
VStem: 169 122<186.371 485.839>
LayerCount: 2
Fore
SplineSet
56 749.833984375 m 5
 56 793.779296875 l 5
 68.3017578125 783.381835938 291 642.290039062 291 331 c 4
 291 50.63671875 67.5810546875 -115.313476562 56 -126.71875 c 5
 56 -71.880859375 l 5
 84.0810546875 -29.759765625 169 35.3720703125 169 330 c 4
 169 647.889648438 84.111328125 708.749023438 56 749.833984375 c 5
EndSplineSet
Validated: 1
EndChar

StartChar: three
Encoding: 51 51 64
GlifName: three
Width: 520
VWidth: 0
Flags: W
HStem: -7 36<152.019 285.6> 506.22 21G<54.7822 97.9263> 584 56<163.409 281.31>
VStem: 295.667 134.333<486.174 569.656> 358 124<113.058 250.84>
LayerCount: 2
Fore
SplineSet
80.880859375 506.219726562 m 5xf0
 50.9208984375 529.178710938 l 5
 53.4169921875 532.786132812 137.060546875 640 253.611328125 640 c 4
 354.853515625 640 430 599.883789062 430 537.223632812 c 4xf0
 430 477.987304688 335.09765625 424.744140625 273.717773438 379.701171875 c 5
 369.733398438 370.653320312 482 297.072265625 482 197.573242188 c 4
 482 72.1875 365.069335938 -7 209.72265625 -7 c 4
 142.58984375 -7 42.73828125 12.1240234375 42.73828125 62.3125 c 4
 42.73828125 75.5849609375 52.896484375 91.578125 69.9775390625 91.578125 c 4
 82.71484375 91.578125 97.671875 81.49609375 108.221679688 73.583984375 c 5
 127.33203125 59.0234375 174.913085938 29 217.72265625 29 c 4
 296.53515625 29 358 92.2939453125 358 173.434570312 c 4xe8
 358 270.153320312 281.987304688 311 217.888671875 311 c 4
 179.025390625 311 131.8203125 281.890625 118 281.890625 c 4
 108.93359375 281.890625 101.185546875 286.99609375 101.185546875 296.615234375 c 4
 101.185546875 303.897460938 108.916015625 310.5625 108.975585938 310.608398438 c 5
 113.296875 314.743164062 295.666992188 443.221679688 295.666992188 515.6875 c 4
 295.666992188 562.21875 270.25390625 584 221.666992188 584 c 4
 168.31640625 584 114.971679688 550.346679688 80.880859375 506.219726562 c 5xf0
EndSplineSet
EndChar

StartChar: four
Encoding: 52 52 65
GlifName: four
Width: 520
VWidth: 0
Flags: W
HStem: 0 21G<281.789 390.63> 271 57.9365<148.593 272.777 400.5 470.229> 622 20G<365.72 378.527>
VStem: 272.195 126.305<0 271 329.006 489.425>
LayerCount: 2
Fore
SplineSet
272.77734375 328.0546875 m 1
 272.77734375 489.424804688 l 1
 222.936523438 423.546875 194.516601562 381.08984375 148.592773438 328.936523438 c 1
 201.489257812 328.541992188 243.67578125 328.401367188 272.77734375 328.0546875 c 1
38.1474609375 301.0390625 m 1
 129.969726562 413.8046875 298 636.333007812 305.841796875 638 c 0
 318.654296875 640.72265625 359.26171875 642 372.177734375 642 c 4
 384.875976562 642 400.5 634.694335938 400.5 617.388671875 c 4
 400.5 329.005859375 l 5
 439.560546875 329.728515625 449.041992188 332.553710938 474.895507812 338.227539062 c 5
 472.224609375 327.224609375 470.5 308.387695312 470.5 299.42578125 c 4
 470.5 288.159179688 472.16796875 279.428710938 473.399414062 271 c 5
 398.5 271 l 5
 398.5 14.6220703125 l 4
 398.5 9.1298828125 395.760742188 0 385.5 0 c 4
 286.5 0 l 0
 277.078125 0 272.1953125 6.701171875 272.1953125 12.6728515625 c 0
 272.77734375 271 l 1
 46.5 271 l 0
 40.0888671875 271 32.0146484375 276.118164062 32.0146484375 285.25 c 0
 32.0146484375 290.935546875 34.4189453125 296.611328125 38.1474609375 301.0390625 c 1
EndSplineSet
EndChar

StartChar: semicolon
Encoding: 59 59 66
GlifName: semicolon
Width: 238
VWidth: 0
Flags: W
HStem: -100.682 29.8809<33.2891 68.3235> 315.651 148.349<58.3929 165.762>
VStem: 36.1553 151.845<4.7456 101.067 338.65 441.001> 86.7793 100.847<-43.2635 -3.8543>
LayerCount: 2
Fore
SplineSet
35.7333984375 51.2119140625 m 4xd0
 35.7333984375 91.5302734375 73.5390625 125.9140625 114.169921875 125.9140625 c 4
 156.470703125 125.9140625 187.625976562 90.908203125 187.625976562 54.947265625 c 4
 187.625976562 53.7021484375 l 6
 187.625976562 -62.6474609375 132.215820312 -100.681640625 33.2890625 -100.681640625 c 5
 15.3603515625 -70.80078125 l 5
 41.630859375 -70.80078125 86.779296875 -61.2236328125 86.779296875 -29.71484375 c 4
 86.779296875 -25.4775390625 84.78515625 -21.37109375 79.4599609375 -16.044921875 c 5
 59.4208984375 2.880859375 35.7333984375 11.8876953125 35.7333984375 51.2119140625 c 4xd0
112.077148438 315.651367188 m 0
 70.1484375 315.651367188 36.1552734375 348.861328125 36.1552734375 389.825195312 c 0
 36.1552734375 430.7890625 70.1474609375 464 112.077148438 464 c 0
 154.006835938 464 188 430.7890625 188 389.825195312 c 0xe0
 188 348.861328125 154.006835938 315.651367188 112.077148438 315.651367188 c 0
EndSplineSet
EndChar

StartChar: colon
Encoding: 58 58 67
GlifName: colon
Width: 228
VWidth: 0
Flags: W
HStem: -18 148.349<58.3929 165.762> 315.651 148.349<58.3929 165.762>
VStem: 36.1553 151.845<4.99877 107.349 338.65 441.001>
LayerCount: 2
Fore
SplineSet
112.077148438 315.651367188 m 0
 70.1484375 315.651367188 36.1552734375 348.861328125 36.1552734375 389.825195312 c 0
 36.1552734375 430.7890625 70.1474609375 464 112.077148438 464 c 0
 154.006835938 464 188 430.7890625 188 389.825195312 c 0
 188 348.861328125 154.006835938 315.651367188 112.077148438 315.651367188 c 0
112.077148438 -18 m 4
 70.1484375 -18 36.1552734375 15.2099609375 36.1552734375 56.173828125 c 4
 36.1552734375 97.1376953125 70.1474609375 130.348632812 112.077148438 130.348632812 c 4
 154.006835938 130.348632812 188 97.1376953125 188 56.173828125 c 4
 188 15.2099609375 154.006835938 -18 112.077148438 -18 c 4
EndSplineSet
EndChar

StartChar: five
Encoding: 53 53 68
GlifName: five
Width: 520
VWidth: 0
Flags: W
HStem: -5 48<131.024 303.216> 312 108<170.588 318.159> 544.466 66.5342<194.766 454.165>
VStem: 373.286 122<125.426 257.597>
LayerCount: 2
Fore
SplineSet
447.286132812 617.5859375 m 4
 453.502929688 617.5859375 466.107421875 615.684570312 466.107421875 604.443359375 c 4
 466.107421875 595.456054688 451.918945312 559.444335938 446.147460938 544.465820312 c 5
 194.765625 544.465820312 l 5
 155.7109375 391.991210938 l 5
 200.3515625 413.0390625 233.884765625 420 278.833984375 420 c 4
 398.741210938 420 495.286132812 346.05078125 495.286132812 210.3671875 c 4
 495.286132812 89.5341796875 376.40625 -5 242.063476562 -5 c 4
 193.528320312 -5 127.344726562 3 76.310546875 55.0751953125 c 5
 72.5146484375 58.87109375 69.1025390625 66.8046875 69.1025390625 71 c 4
 69.1025390625 81.5224609375 77.529296875 87.6015625 86.419921875 87.6015625 c 4
 91.2314453125 87.6015625 96.1787109375 85.8212890625 100 82 c 4
 129.463867188 51.615234375 193.412109375 43 234.412109375 43 c 4
 323.1171875 43 373.286132812 134.108398438 373.286132812 190.368164062 c 4
 373.286132812 248.545898438 327.93359375 312 243.412109375 312 c 4
 192.84375 312 105.134765625 289.598632812 48 254.03125 c 5
 131.7578125 611 l 5
 385.286132812 611 l 6
 408.366210938 611 429.57421875 617.5859375 447.286132812 617.5859375 c 4
EndSplineSet
EndChar

StartChar: equal
Encoding: 61 61 69
GlifName: equal
Width: 421
VWidth: 0
Flags: W
HStem: 185 88<86.8643 352.289> 320 88<86.8643 352.289>
VStem: 70 284<185.006 273 320.006 408>
LayerCount: 2
Fore
SplineSet
85.7861328125 320.359375 m 6
 73.7568359375 324.369140625 70 345.216796875 70 366 c 4
 70 385.826171875 73.8525390625 408 88 408 c 4
 337 408 l 4
 351.67578125 408 354 381.130859375 354 363 c 4
 354 346.265625 351.497070312 320 337 320 c 4
 86.8642578125 320 l 5
 85.7861328125 320.359375 l 6
85.7861328125 185.359375 m 6
 73.7568359375 189.369140625 70 210.216796875 70 231 c 4
 70 250.826171875 73.8525390625 273 88 273 c 4
 337 273 l 4
 351.67578125 273 354 246.130859375 354 228 c 4
 354 211.265625 351.497070312 185 337 185 c 4
 86.8642578125 185 l 5
 85.7861328125 185.359375 l 6
EndSplineSet
Validated: 1
EndChar

StartChar: asterisk
Encoding: 42 42 70
GlifName: asterisk
Width: 476
VWidth: 0
Flags: W
VStem: 198.956 79.6875<293.592 428.377> 204.576 68.4512<270.492 391.581 556.549 715.827>
LayerCount: 2
Fore
SplineSet
228.3203125 716.310546875 m 2x80
 246.568359375 716.310546875 l 0
 259.590820312 716.310546875 270.110351562 705.633789062 270.110351562 692.965820312 c 1
 275.735351562 556.548828125 l 1
 398.318359375 618.544921875 l 0
 402.111328125 620.463867188 405.59765625 621.126953125 408.84765625 621.126953125 c 0
 417.296875 621.126953125 425.188476562 617.765625 430.415039062 610.981445312 c 0
 434.696289062 605.423828125 438.223632812 593.747070312 438.223632812 589.0390625 c 0
 438.223632812 580.079101562 432.69921875 572.9921875 426.168945312 568.637695312 c 0
 313.291992188 493.856445312 l 1
 426.168945312 419.07421875 l 0
 431.5703125 415.49609375 438.223632812 409.068359375 438.223632812 398.673828125 c 0
 438.223632812 392.009765625 433.88671875 383.283203125 432.7421875 380.9921875 c 1
 430.794921875 377.26953125 l 1
 426.293945312 370.517578125 419.930664062 363.87109375 410.205078125 363.87109375 c 0
 406.241210938 363.87109375 403.12109375 364.69140625 399.635742188 366.474609375 c 0
 278.643554688 428.376953125 l 1x80
 273.02734375 293.591796875 l 1
 273.02734375 279.608398438 259.983398438 270.249023438 247.92578125 270.249023438 c 0
 229.677734375 270.249023438 l 0
 217.619140625 270.249023438 204.576171875 279.608398438 204.576171875 293.591796875 c 1x40
 198.956054688 429.78515625 l 1
 76.5771484375 366.3046875 l 0
 72.1171875 364.022460938 67.4072265625 363.701171875 64.4462890625 363.701171875 c 0
 53.6875 363.701171875 48.111328125 372.26171875 45.6962890625 375.552734375 c 0
 42.671875 379.677734375 38.0234375 390.193359375 38.0234375 395.9609375 c 0
 38.0234375 404.137695312 43.5712890625 412.7265625 47.25390625 415.53515625 c 1
 162.8046875 491.142578125 l 1
 47.3310546875 567.16796875 l 1
 39.126953125 572.170898438 36.3291015625 581.5078125 36.3291015625 588.936523438 c 0
 36.3291015625 604.37109375 52.0830078125 621.126953125 64.4814453125 621.126953125 c 0
 67.4248046875 621.126953125 72.078125 620.790039062 76.548828125 618.556640625 c 1
 199.153320312 556.548828125 l 1
 204.77734375 692.965820312 l 1
 204.77734375 703.900390625 214.400390625 716.310546875 228.3203125 716.310546875 c 2x80
EndSplineSet
Validated: 1
EndChar

StartChar: numbersign
Encoding: 35 35 71
GlifName: numbersign
Width: 735
VWidth: 0
Flags: W
HStem: 217 79<62.469 186.119 303.881 371.119 488.881 628.034> 476 79<113.469 248.119 365.894 433.119 550.894 678.344>
VStem: 140 97.9932<3 51.4589> 325 97.9932<3 51.4589>
LayerCount: 2
Fore
SplineSet
326 737.333007812 m 2
 388 737.333007812 l 0
 393.337890625 737.333007812 405 733.122070312 405 721 c 0
 405 717.166015625 l 1
 365.893554688 555 l 1
 452.490234375 555 l 1
 492.196289062 719.64453125 l 1
 492.196289062 719.64453125 502.549804688 737.333007812 511 737.333007812 c 0
 573 737.333007812 l 0
 578.337890625 737.333007812 590 733.122070312 590 721 c 0
 590 717.166015625 l 1
 550.893554688 555 l 1
 675 555 l 0
 680.724609375 555 692 552.31640625 692 541 c 0
 692 526.309554478 681.220763276 506.901798527 676.640625 492.869140625 c 0
 674.23828125 485.662109375 667.875 476 657 476 c 0
 531.517578125 476 l 1
 488.880859375 296 l 1
 624 296 l 0
 629.724609375 296 641 293.31640625 641 282 c 0
 641 264.576861838 630.72016649 247.03965196 625.66015625 231.84375 c 0
 622.815429688 223.311523438 615.34765625 217 606 217 c 0
 469.517578125 217 l 1
 422.993164062 22.140625 l 1
 422.21875 11.955078125 414.014648438 3 405 3 c 0
 341 3 l 0
 331.373046875 3 325 13.373046875 325 23 c 0
 325 23.8291015625 l 1
 371.119140625 217 l 1
 284.517578125 217 l 1
 237.993164062 22.140625 l 1
 237.21875 11.955078125 229.014648438 3 220 3 c 0
 156 3 l 0
 146.373046875 3 140 13.373046875 140 23 c 0
 140 23.8291015625 l 1
 186.119140625 217 l 1
 67 217 l 0
 59.9921875 217 50 221.4453125 50 232 c 0
 50 233.135742188 50.462890625 236.571289062 51.9892578125 240.30078125 c 1
 64.3291015625 281.122070312 l 1
 67.193359375 289.717773438 74.6494140625 296 84 296 c 0
 205.482421875 296 l 1
 248.119140625 476 l 1
 118 476 l 0
 110.9921875 476 101 480.4453125 101 491 c 0
 101 492.229492188 101.360351562 495.358398438 103.053710938 499.590820312 c 1
 115.329101562 540.125 l 1
 118.193359375 548.715820312 125.649414062 555 135 555 c 0
 267.490234375 555 l 1
 307.196289062 719.64453125 l 1
 307.196289062 719.64453125 317.549804688 737.333007812 326 737.333007812 c 2
346.517578125 476 m 1
 303.880859375 296 l 1
 390.482421875 296 l 1
 433.119140625 476 l 1
 346.517578125 476 l 1
EndSplineSet
Validated: 1
EndChar

StartChar: six
Encoding: 54 54 72
GlifName: six
Width: 520
VWidth: 0
Flags: W
HStem: -8 39<234.082 340.102> 339.37 59.9648<235.134 343.125> 617.875 20G<402.601 418.089>
VStem: 28 117<153.098 375.665> 390 117<116.126 288.52>
LayerCount: 2
Fore
SplineSet
425.1875 604.46484375 m 4
 425.1875 597.263671875 415.125976562 589.928710938 404.80859375 587.127929688 c 4
 370.296875 578.466796875 317.05078125 560.18359375 266.897460938 523.624023438 c 4
 181.956054688 461.705078125 145 358.544921875 145 259.75390625 c 4
 145 169.934570312 205.028320312 31 282.24609375 31 c 4
 356.712890625 31 390 100.237304688 390 195.278320312 c 4
 390 291.334960938 342.28515625 339.370117188 283.619140625 339.370117188 c 4
 254.227539062 339.370117188 225.645507812 329.545898438 206.014648438 309.584960938 c 5
 201.13671875 304.677734375 195.927734375 302.859375 191.705078125 302.859375 c 4
 182.015625 302.859375 179.895507812 313.147460938 179.895507812 318.254882812 c 4
 179.895507812 322.516601562 181.215820312 326.79296875 183.83203125 330.717773438 c 5
 204.224609375 357.525390625 248.717773438 399.334960938 307.31640625 399.334960938 c 4
 395.052734375 399.334960938 507 363.8671875 507 207.3671875 c 4
 507 84.8271484375 402.161132812 -8 268.17578125 -8 c 4
 115.903320312 -8 28 114.655273438 28 252.34765625 c 4
 28 409.750976562 120.805664062 504.708984375 192.31640625 556.297851562 c 4
 249.6796875 596.647460938 351.629882812 625.892578125 402.600585938 635.858398438 c 4
 415.581054688 637.875 l 5
 418.088867188 633.453125 l 4
 418.182617188 633.291992188 425.1875 614.9375 425.1875 604.46484375 c 4
EndSplineSet
EndChar

StartChar: nine
Encoding: 57 57 73
GlifName: nine
Width: 520
VWidth: 0
Flags: W
HStem: -10.1953 21G<123.973 130.767> 246 55.2666<207.421 305.013> 602 39<204.663 301.326>
VStem: 38 120<362.423 529.425> 376 115<255.141 502.348>
LayerCount: 2
Fore
SplineSet
119.908203125 12 m 0
 119.908203125 19.3095703125 124.651367188 30.8642578125 133.905273438 33.8798828125 c 0
 165.407226562 44.146484375 210.185546875 68.2099609375 260.622070312 104.138671875 c 1
 356.0390625 169.375976562 376 256.771484375 376 387.178710938 c 0
 376 520.061523438 315.505859375 602 247.954101562 602 c 0
 206.375 602 158 546.327148438 158 457.396484375 c 0
 158 374.254882812 204.274414062 301.266601562 252.114257812 301.266601562 c 0
 288.26171875 301.266601562 306 312 314.004882812 320.510742188 c 0
 315.259765625 321.778320312 l 1
 319.426757812 326.006835938 323.831054688 328.931640625 328.963867188 328.931640625 c 0
 334.727539062 328.931640625 341.647460938 324.146484375 341.647460938 317.381835938 c 0
 341.647460938 311.79296875 338.864257812 302.604492188 335 297 c 0
 308.653320312 258.79296875 266.43359375 246 227.701171875 246 c 0
 143.994140625 246 38 299.489257812 38 445.46484375 c 4
 38 559.444335938 142.249023438 641 249.034179688 641 c 0
 392.302734375 641 491 553.359375 491 379.581054688 c 0
 491 200.604492188 384.67578125 125.780273438 316.453125 73.666015625 c 1
 261.365234375 33.7294921875 179.151367188 3.3349609375 130.766601562 -8.7734375 c 0
 125.31640625 -10.1953125 l 1
 122.62890625 -4.9140625 119.908203125 5.2587890625 119.908203125 12 c 0
EndSplineSet
EndChar

StartChar: exclam
Encoding: 33 33 74
GlifName: exclam
Width: 286
VWidth: 0
Flags: W
HStem: -18 148.349<85.3929 192.762> 731.434 20G<125.276 160.774>
VStem: 63.1553 151.845<4.99877 107.349 598.807 727.362> 89.5156 107.984<207.923 372.441>
LayerCount: 2
Fore
SplineSet
139.077148438 -18 m 4xe0
 97.1484375 -18 63.1552734375 15.2099609375 63.1552734375 56.173828125 c 4
 63.1552734375 97.1376953125 97.1474609375 130.348632812 139.077148438 130.348632812 c 4
 181.006835938 130.348632812 215 97.1376953125 215 56.173828125 c 4
 215 15.2099609375 181.006835938 -18 139.077148438 -18 c 4xe0
218.506835938 689.865234375 m 1
 197.5 233.684570312 l 1
 196.639648438 217.037109375 162.951171875 196.1171875 144.168945312 195.712890625 c 0
 144.006835938 195.708984375 l 1
 143.84375 195.711914062 l 0
 124.37109375 196.1015625 90.4921875 216.541015625 89.515625 233.650390625 c 1xd0
 66.5068359375 689.850585938 l 1
 66.5068359375 723.15234375 107.623046875 751.43359375 142.928710938 751.43359375 c 0
 178.620117188 751.43359375 218.506835938 722.65234375 218.506835938 689.865234375 c 1
EndSplineSet
EndChar

StartChar: percent
Encoding: 37 37 75
GlifName: percent
Width: 944
VWidth: 0
Flags: W
HStem: -16 42<674.668 740.637> 249 42<212.138 278.323> 342 42<674.665 740.635> 607 42<212.135 278.321>
VStem: 62 117<346.245 551.759> 312.443 117.91<346.264 551.733> 521.621 118.936<84.8744 283.129> 774 117<81.2516 286.745>
LayerCount: 2
Fore
SplineSet
245.181640625 607 m 4
 208.393554688 607 179 542.018554688 179 449 c 4
 179 355.999023438 208.405273438 291 245.181640625 291 c 4
 280.944335938 291 312.443359375 356.032226562 312.443359375 449 c 4
 312.443359375 541.952148438 280.93359375 607 245.181640625 607 c 4
245.181640625 249 m 4
 141.63671875 249 62 322.0859375 62 449 c 4
 62 575.9140625 141.63671875 649 245.181640625 649 c 4
 349.90625 649 430.353515625 575.858398438 430.353515625 449 c 4
 430.353515625 322.141601562 349.90625 249 245.181640625 249 c 4
707.818359375 342 m 4
 672.055664062 342 640.556640625 276.967773438 640.556640625 184 c 4
 640.556640625 91.0478515625 672.06640625 26 707.818359375 26 c 4
 743.581054688 26 774 91.0322265625 774 184 c 4
 774 276.952148438 743.571289062 342 707.818359375 342 c 4
707.818359375 -16 m 4
 603.133789062 -16 521.62109375 57.0859375 521.62109375 184 c 4
 521.62109375 310.9140625 603.133789062 384 707.818359375 384 c 4
 811.36328125 384 891 310.9140625 891 184 c 4
 891 57.0859375 811.36328125 -16 707.818359375 -16 c 4
694.081054688 717.216796875 m 5
 726 694 l 6
 730.489257812 691.419921875 734.866210938 686.88671875 734.866210938 680.33203125 c 4
 732.58203125 671.174804688 l 5
 287.536132812 -64.708984375 l 5
 284.428710938 -69.7607421875 278.99609375 -70.8271484375 275.203125 -70.8271484375 c 4
 265.798828125 -70.8271484375 239.689453125 -51.435546875 233.354492188 -48.126953125 c 4
 228.181640625 -45.15234375 225.103515625 -39.90234375 225.103515625 -34.392578125 c 4
 225.103515625 -31.056640625 226.1875 -28.10546875 227.586914062 -25.423828125 c 4
 671.706054688 710.705078125 l 5
 674.600585938 715.329101562 679.626953125 719.123046875 686.08984375 719.123046875 c 4
 689.93359375 719.123046875 694.081054688 717.216796875 694.081054688 717.216796875 c 5
EndSplineSet
Validated: 1
EndChar

StartChar: seven
Encoding: 55 55 76
GlifName: seven
Width: 520
VWidth: 0
Flags: W
HStem: 0 21G<77.6201 217.762> 548 74<77.4876 334.423>
VStem: 77.6201 126.165<0 90.2805>
LayerCount: 2
Fore
SplineSet
334.422851562 548 m 5
 100.760742188 548 l 6
 84.9677734375 548 79.2587890625 536.4296875 77.3974609375 532 c 5
 71.7607421875 532 l 4
 64.236328125 532 62.88671875 538.9765625 62.88671875 538.9765625 c 4
 63.0849609375 545.694335938 l 6
 66.2431640625 562.608398438 69.9384765625 591.762695312 73.26171875 607.599609375 c 4
 74.837890625 615.110351562 76.1318359375 622 85.7607421875 622 c 4
 453.760742188 622 l 6
 466.178710938 622 470.750976562 619.139648438 470.750976562 614.4609375 c 4
 470.750976562 610.694335938 467.73046875 604.899414062 464.932617188 601.092773438 c 5
 460.599609375 594.58984375 l 6
 337.370117188 409.294921875 231.739257812 169.026367188 203.78515625 0 c 5
 77.6201171875 0 l 5
 103.255859375 164.938476562 222.294921875 397.515625 334.422851562 548 c 5
EndSplineSet
EndChar

StartChar: eight
Encoding: 56 56 77
GlifName: eight
Width: 520
VWidth: 0
Flags: W
HStem: -8 38<223.069 317.307> 609 34<231.208 314.455>
VStem: 46 128<79.2613 233.725> 78 125<455.094 571.247> 340 112<457.643 574.091> 361 123<77.427 212.131>
LayerCount: 2
Fore
SplineSet
174 156 m 4xe4
 174 83.486328125 217.715820312 30 274.272460938 30 c 4
 329.125976562 30 361 98.732421875 361 149 c 4
 361 204.286132812 301 269 248.956054688 303.278320312 c 5
 199 257 174 208.119140625 174 156 c 4xe4
203 514 m 4xd8
 203 475.163085938 233 435 273.209960938 412.049804688 c 5
 303 435 340 471.78125 340 516 c 4
 340 579.677734375 312.907226562 609 268.272460938 609 c 4
 223.306640625 609 203 557.396484375 203 514 c 4xd8
452 507.779296875 m 4
 452 441.196289062 383.373046875 402.047851562 337.515625 366.467773438 c 5
 421.28515625 306.94921875 484 257.122070312 484 146.673828125 c 4
 484 56.2744140625 386.197265625 -8 267.181640625 -8 c 4
 167.981445312 -8 46 41.0087890625 46 149.610351562 c 4xe4
 46 238.719726562 100.25 280.470703125 178.244140625 340.186523438 c 5
 120.349609375 385.061523438 78 419.857421875 78 509.737304688 c 4
 78 563.458984375 131.381835938 643 268.272460938 643 c 4
 357.46875 643 452 597.563476562 452 507.779296875 c 4
EndSplineSet
EndChar

StartChar: question
Encoding: 63 63 78
GlifName: question
Width: 492
VWidth: 0
Flags: W
HStem: -11 116<190.856 281.151> 685 57.333<184.491 308.273>
VStem: 51.8008 109.47<590.241 661.598> 177.444 117<2.29337 91.7066> 336 110.444<517.948 647.832>
LayerCount: 2
Fore
SplineSet
177.041992188 199.23828125 m 2
 171.967773438 245.600585938 162.118164062 340.268554688 162.1171875 340.275390625 c 0
 162.080078125 340.63671875 l 1
 162.080078125 341 l 0
 162.080078125 395.13671875 228.200195312 433.912109375 264.3125 465.19921875 c 0
 312 506.514648438 336 535.983398438 336 593 c 0
 336 654.891601562 299.794921875 685 239.444335938 685 c 0
 189.109375 685 165.424804688 645.072265625 161.270507812 626.448242188 c 0
 155.259765625 599.504882812 125.418945312 571 105.444335938 571 c 0
 83.3251953125 571 51.80078125 601.640625 51.80078125 625 c 0
 51.80078125 694.3984375 165.646484375 742.333007812 243.444335938 742.333007812 c 0
 331.029296875 742.333007812 446.444335938 682.974609375 446.444335938 569 c 0
 446.444335938 509.756835938 417.760742188 468.549804688 363.279296875 426.4609375 c 0
 327.44140625 398.774414062 283.677734375 360.309570312 282.98828125 348.588867188 c 1
 282.98828125 348.588867188 278 212.576171875 278 200 c 0
 278 193 l 1
 177.724609375 193 l 1
 177.041992188 199.23828125 l 2
177.444335938 47 m 0
 177.444335938 78.943359375 203.66796875 105 236.444335938 105 c 0
 268.325195312 105 294.444335938 78.880859375 294.444335938 47 c 0
 294.444335938 15.119140625 268.325195312 -11 236.444335938 -11 c 0
 203.668945312 -11 177.444335938 15.056640625 177.444335938 47 c 0
EndSplineSet
Validated: 1
EndChar

StartChar: quotesingle
Encoding: 39 39 79
GlifName: quotesingle
Width: 217
VWidth: 0
Flags: W
HStem: 494 222.821<70.1281 141.096>
VStem: 51.417 109.708<603.98 707.888>
LayerCount: 2
Fore
SplineSet
102.514648438 716.821289062 m 2
 108.526367188 716.821289062 l 0
 140.134765625 716.821289062 161.125 697.244140625 161.125 671.018554688 c 0
 161.125 668.875976562 160.552734375 662.806640625 159.447265625 659.256835938 c 1
 141.534179688 514.166992188 l 1
 141.534179688 514.166992188 130.567382812 494 116.0390625 494 c 0
 95 494 l 0
 79.77734375 494 70.5390625 502.302734375 69.267578125 516.094726562 c 1
 51.4169921875 660.676757812 l 1
 51.4169921875 667.3046875 l 0
 51.4169921875 692.845703125 72.3095703125 716.821289062 102.514648438 716.821289062 c 2
EndSplineSet
Validated: 1
EndChar

StartChar: quotedbl
Encoding: 34 34 80
GlifName: quotedbl
Width: 364
VWidth: 0
Flags: W
HStem: 494 222.821<70.1281 141.096 220.128 291.096>
VStem: 51.417 109.708<603.98 707.888> 201.417 109.708<603.98 707.888>
LayerCount: 2
Fore
SplineSet
252.514648438 716.821289062 m 2
 258.526367188 716.821289062 l 0
 290.134765625 716.821289062 311.125 697.244140625 311.125 671.018554688 c 0
 311.125 668.875976562 310.552734375 662.806640625 309.447265625 659.256835938 c 1
 291.534179688 514.166992188 l 1
 291.534179688 514.166992188 280.567382812 494 266.0390625 494 c 0
 245 494 l 0
 229.77734375 494 220.5390625 502.302734375 219.267578125 516.094726562 c 1
 201.416992188 660.676757812 l 1
 201.416992188 667.3046875 l 0
 201.416992188 692.845703125 222.309570312 716.821289062 252.514648438 716.821289062 c 2
102.514648438 716.821289062 m 2
 108.526367188 716.821289062 l 0
 140.134765625 716.821289062 161.125 697.244140625 161.125 671.018554688 c 0
 161.125 668.875976562 160.552734375 662.806640625 159.447265625 659.256835938 c 1
 141.534179688 514.166992188 l 1
 141.534179688 514.166992188 130.567382812 494 116.0390625 494 c 0
 95 494 l 0
 79.77734375 494 70.5390625 502.302734375 69.267578125 516.094726562 c 1
 51.4169921875 660.676757812 l 1
 51.4169921875 667.3046875 l 0
 51.4169921875 692.845703125 72.3095703125 716.821289062 102.514648438 716.821289062 c 2
EndSplineSet
Validated: 1
EndChar

StartChar: underscore
Encoding: 95 95 81
GlifName: underscore
Width: 449
VWidth: 0
Flags: W
HStem: -8 84<66.5793 380.341>
VStem: 63 320.74<-8 76>
LayerCount: 2
Fore
SplineSet
82.75 -8 m 2
 68.1708984375 -8 63 22.9111328125 63 32 c 0
 63 41.0888671875 68.1708984375 76 82.75 76 c 0
 364.75 76 l 0
 378.729492188 76 383.740234375 41.708984375 383.740234375 33 c 0
 383.740234375 24.3212890625 379.619140625 -8 364.75 -8 c 0
 82.75 -8 l 2
EndSplineSet
Validated: 1
EndChar

StartChar: bracketleft
Encoding: 91 91 82
GlifName: bracketleft
Width: 341
VWidth: 0
Flags: W
HStem: -128 54<195 293.36> 735 54<195 293.36>
VStem: 77 118<-74 735>
LayerCount: 2
Fore
SplineSet
195 735 m 1
 195 -74 l 1
 278 -74 l 0
 291.694335938 -74 293.62890625 -91.34765625 293.62890625 -100.284179688 c 0
 293.62890625 -109.485351562 291.779296875 -128 278 -128 c 0
 103 -128 l 0
 86.6279296875 -128 77 -117.958007812 77 -101 c 0
 77 761 l 0
 77 778.852539062 88.6328125 789 107 789 c 0
 278 789 l 0
 291.694335938 789 293.62890625 771.65234375 293.62890625 762.715820312 c 0
 293.62890625 753.514648438 291.779296875 735 278 735 c 0
 195 735 l 1
EndSplineSet
Validated: 1
EndChar

StartChar: bracketright
Encoding: 93 93 83
GlifName: bracketright
Width: 341
VWidth: 0
Flags: W
HStem: -128 54<46.6326 145> 735 54<46.6326 145>
VStem: 145 118<-74 735>
LayerCount: 2
Fore
SplineSet
145 735 m 1
 62 735 l 0
 48.220703125 735 46.37109375 752.514648438 46.37109375 761.715820312 c 0
 46.37109375 770.65234375 48.3056640625 789 62 789 c 0
 233 789 l 0
 251.3671875 789 263 778.852539062 263 761 c 0
 263 -101 l 0
 263 -117.958007812 253.372070312 -128 237 -128 c 0
 62 -128 l 0
 48.220703125 -128 46.37109375 -110.485351562 46.37109375 -101.284179688 c 0
 46.37109375 -92.34765625 48.3056640625 -74 62 -74 c 0
 145 -74 l 1
 145 735 l 1
EndSplineSet
Validated: 1
EndChar

StartChar: bar
Encoding: 124 124 84
GlifName: bar
Width: 240
VWidth: 0
Flags: W
HStem: 732.376 20G<116.445 127.312>
VStem: 67 107<-58.8192 746.98>
LayerCount: 2
Fore
SplineSet
174 -42 m 2
 174 -58.125 131.40625 -64.498046875 120 -64.498046875 c 0
 108.682617188 -64.498046875 67 -57.7822265625 67 -42 c 0
 67 731 l 0
 67 746.85546875 110.889648438 752.375976562 122 752.375976562 c 0
 132.624023438 752.375976562 174 746.375 174 731 c 0
 174 -42 l 2
EndSplineSet
Validated: 1
EndChar

StartChar: asciitilde
Encoding: 126 126 85
GlifName: asciitilde
Width: 510
VWidth: 0
Flags: W
HStem: 209.362 105.625<273.191 386.275> 284.54 104.947<107.558 216.353>
LayerCount: 2
Fore
SplineSet
162 389.487304688 m 4x40
 245.0859375 389.487304688 261.467773438 314.987304688 338 314.987304688 c 4
 393.951171875 314.987304688 429.365234375 364.37890625 446 364.37890625 c 4
 453.178710938 364.37890625 471.186523438 362.212890625 471.186523438 352 c 4
 471.186523438 312.26953125 397.826171875 209.362304688 328 209.362304688 c 4x80
 244.40625 209.362304688 228.961914062 284.540039062 157 284.540039062 c 4
 113.56640625 284.540039062 80.4267578125 243.85546875 54 243.85546875 c 4
 43.91796875 243.85546875 28.84765625 251.241210938 28.84765625 261 c 4
 28.84765625 284.51953125 96.689453125 389.487304688 162 389.487304688 c 4x40
EndSplineSet
Validated: 1
EndChar

StartChar: dieresis
Encoding: 168 168 86
GlifName: dieresis
Width: 447
VWidth: 0
Flags: W
HStem: 618.071 122.037<63.2773 153.803 296.437 386.962>
VStem: 48.6797 119.721<632.005 726.174> 281.839 119.721<632.005 726.174>
LayerCount: 2
Fore
SplineSet
281.838867188 679.088867188 m 0
 281.838867188 712.788085938 308.640625 740.108398438 341.700195312 740.108398438 c 0
 374.7578125 740.108398438 401.559570312 712.788085938 401.559570312 679.088867188 c 0
 401.559570312 645.391601562 374.7578125 618.071289062 341.700195312 618.071289062 c 0
 308.641601562 618.071289062 281.838867188 645.391601562 281.838867188 679.088867188 c 0
48.6796875 679.088867188 m 0
 48.6796875 712.788085938 75.4814453125 740.108398438 108.541015625 740.108398438 c 0
 141.598632812 740.108398438 168.400390625 712.788085938 168.400390625 679.088867188 c 0
 168.400390625 645.391601562 141.598632812 618.071289062 108.541015625 618.071289062 c 0
 75.4814453125 618.071289062 48.6796875 645.391601562 48.6796875 679.088867188 c 0
EndSplineSet
Validated: 1
EndChar

StartChar: grave
Encoding: 96 96 93
GlifName: grave
Width: 321
VWidth: 0
Flags: W
HStem: 524.651 258.665
VStem: 31.9707 262.042
LayerCount: 2
Fore
SplineSet
263.810546875 528.19140625 m 2
 202.932617188 567.359375 68.00390625 651.76953125 49.3701171875 669.59375 c 0
 37.5439453125 680.905273438 31.970703125 695.72265625 31.970703125 710.29296875 c 0
 31.970703125 749.211914062 62.3642578125 783.31640625 101.577148438 783.31640625 c 0
 116.803710938 783.31640625 132.276367188 777.971679688 144.088867188 766.674804688 c 0
 162.780273438 748.796875 248.491210938 610.881835938 290.166015625 553.567382812 c 0
 294.012695312 548.27734375 l 1
 269.313476562 524.651367188 l 1
 263.810546875 528.19140625 l 2
EndSplineSet
Validated: 1
EndChar

StartChar: acute
Encoding: 180 180 94
GlifName: acute
Width: 281
VWidth: 0
Flags: W
HStem: 524.976 225.928
VStem: 30.3779 225.993
LayerCount: 2
Fore
SplineSet
51.8427734375 524.975585938 m 1
 30.3779296875 546.440429688 l 1
 33.720703125 551.247070312 l 0
 69.9345703125 603.314453125 152.252929688 719.54296875 168.491210938 735.780273438 c 0
 178.549804688 745.838867188 191.725585938 750.903320312 204.870117188 750.903320312 c 0
 218.013671875 750.903320312 231.188476562 745.838867188 241.247070312 735.780273438 c 0
 251.306640625 725.721679688 256.37109375 712.546875 256.37109375 699.40234375 c 0
 256.37109375 686.2578125 251.306640625 673.083007812 241.247070312 663.022460938 c 0
 225.046875 646.823242188 109.536132812 563.78125 56.625 528.19140625 c 0
 51.8427734375 524.975585938 l 1
EndSplineSet
Validated: 1
EndChar

StartChar: less
Encoding: 60 60 114
GlifName: less
Width: 488
VWidth: 0
Flags: W
LayerCount: 2
Fore
SplineSet
164.208007812 324 m 1
 438 166.04296875 l 1
 438 61.984375 l 1
 36 289.921875 l 1
 36 354.078125 l 1
 438 582.015625 l 1
 438 481.95703125 l 1
 164.208007812 324 l 1
EndSplineSet
Validated: 1
EndChar

StartChar: greater
Encoding: 62 62 115
GlifName: greater
Width: 504
VWidth: 0
Flags: W
LayerCount: 2
Fore
SplineSet
327.791992188 324 m 1
 54 481.95703125 l 1
 54 582.015625 l 1
 456 354.078125 l 1
 456 289.921875 l 1
 54 61.984375 l 1
 54 166.04296875 l 1
 327.791992188 324 l 1
EndSplineSet
Validated: 1
EndChar

StartChar: asciicircum
Encoding: 94 94 116
GlifName: asciicircum
Width: 537
VWidth: 0
Flags: W
HStem: 552.116 233.337
LayerCount: 2
Fore
SplineSet
461.387695312 584.474609375 m 6
 456.897460938 571.577148438 444.900390625 555.666992188 433.931640625 552.116210938 c 4
 430.590820312 551.03515625 l 5
 265 646.416992188 l 5
 99.4228515625 551.043945312 l 5
 96.0927734375 552.108398438 l 4
 83.544921875 556.119140625 71.80078125 572.990234375 68.48046875 584.895507812 c 4
 67.3828125 588.834960938 l 5
 265 785.453125 l 5
 462.831054688 588.62109375 l 5
 461.387695312 584.474609375 l 6
EndSplineSet
Validated: 1
EndChar

StartChar: divide
Encoding: 247 247 137
GlifName: divide
Width: 427
VWidth: 0
Flags: W
HStem: 106 108.536<163.611 251.298> 249 98<75.8643 357.331> 380 108.536<163.611 251.298>
VStem: 152.693 109.424<117.615 202.921 391.615 476.921>
LayerCount: 2
Fore
SplineSet
207.849609375 106 m 0
 177.250976562 106 152.693359375 130.345703125 152.693359375 160.267578125 c 0
 152.693359375 190.189453125 177.250976562 214.536132812 207.849609375 214.536132812 c 0
 237.692382812 214.536132812 262.1171875 190.109375 262.1171875 160.267578125 c 0
 262.1171875 130.426757812 237.693359375 106 207.849609375 106 c 0
207.849609375 380 m 0
 177.250976562 380 152.693359375 404.345703125 152.693359375 434.267578125 c 0
 152.693359375 464.189453125 177.250976562 488.536132812 207.849609375 488.536132812 c 0
 237.692382812 488.536132812 262.1171875 464.109375 262.1171875 434.267578125 c 0
 262.1171875 404.426757812 237.693359375 380 207.849609375 380 c 0
75.8642578125 249 m 1
 74.7861328125 249.359375 l 2
 62.7568359375 253.369140625 58 278.216796875 58 299 c 0
 58 318.826171875 62.8525390625 347 77 347 c 0
 344 347 l 0
 356.67578125 347 360 314.130859375 360 296 c 3
 360 279.265625 356.497070312 249 344 249 c 0
 75.8642578125 249 l 1
EndSplineSet
Validated: 1
EndChar

StartChar: dollar
Encoding: 36 36 142
GlifName: dollar
Width: 613
VWidth: 0
Flags: W
HStem: 26.2539 44.7461<328 377.162> 576.276 42.9648<266.522 310.742>
VStem: 120.485 124.334<440.182 527.287> 409.642 119.642<120.268 235.528>
LayerCount: 2
Fore
SplineSet
354.958984375 260.723632812 m 1
 346.091796875 182.916015625 333.905273438 125.515625 328 71 c 1
 378.71875 76.2958984375 409.641601562 119.544921875 409.641601562 173 c 0
 409.641601562 221.630859375 387 244 354.958984375 260.723632812 c 1
393.240234375 649.137695312 m 0
 391.396484375 635.106445312 389.279296875 620.463867188 387.48828125 606.059570312 c 1
 439.533203125 599.3515625 496.940429688 581.022460938 496.940429688 560.21875 c 0
 496.940429688 550.43359375 479.5625 496.086914062 462 496.086914062 c 0
 444.470703125 496.086914062 430.211914062 541.302734375 386 559 c 1
 377.971679688 498.204101562 372.422851562 447.161132812 364.6015625 381.796875 c 1
 446.022460938 334.9609375 529.283203125 284.061523438 529.283203125 211.975585938 c 0
 529.283203125 113.288085938 477.5625 78.890625 436.309570312 54.9912109375 c 0
 404.529296875 36.580078125 359.662109375 28.5 318.930664062 26.25390625 c 1
 315.051757812 -9.3564453125 313.665039062 -22.4482421875 313.205078125 -26.7705078125 c 1
 302.926757812 -42.5595703125 287.947265625 -46.9423828125 273.259765625 -46.9423828125 c 0
 262.334960938 -46.9423828125 251.37109375 -44.2734375 243.848632812 -38.046875 c 0
 240.8515625 -35.56640625 l 1
 241.405273438 -31.9287109375 l 0
 244.721679688 -10.12109375 248.13671875 12.7265625 251.06640625 32.646484375 c 1
 172.1640625 48.869140625 114.559570312 98.0703125 114.559570312 129.079101562 c 0
 114.559570312 148.576171875 143.393554688 188.200195312 162 188.200195312 c 0
 179.430664062 188.200195312 193.7890625 114.536132812 254.783203125 87.1259765625 c 1
 265.88671875 165.348632812 274.059570312 226.180664062 282.361328125 296.921875 c 1
 210.703125 336.012695312 120.485351562 398.454101562 120.485351562 461.9296875 c 0
 120.485351562 534.974609375 200.328125 611.010742188 318.6953125 619.241210938 c 1
 320.203125 637.60546875 321.400390625 652.622070312 322.75 670 c 0
 322.7734375 670 l 1
 322.830078125 670 l 0
 325.356445312 673.526367188 346.481445312 674.556640625 357.399414062 674.556640625 c 0
 373.088867188 674.556640625 392.25 664.998046875 393.28125 650.493164062 c 0
 393.329101562 649.813476562 l 1
 393.240234375 649.137695312 l 0
295.822265625 419.481445312 m 1
 301.938476562 477.294921875 305.7734375 518.62890625 310.7421875 576.276367188 c 1
 263.213867188 572.961914062 244.819335938 528.663085938 244.819335938 496.696289062 c 0
 244.819335938 460.3671875 264 433 295.822265625 419.481445312 c 1
EndSplineSet
Validated: 1
EndChar

StartChar: cent
Encoding: 162 162 143
GlifName: cent
Width: 545
VWidth: 0
Flags: W
HStem: 124.46 54.9141<313.919 392.009>
VStem: 99.3438 104.322<238.282 438.104>
LayerCount: 2
Fore
SplineSet
433.763671875 220.010742188 m 1
 453.502929688 194.61328125 l 1
 449.299804688 190.432617188 l 0
 406.484375 147.838867188 366.790039062 125.813476562 310.2421875 124.459960938 c 1
 301.875 9.400390625 l 1
 236.796875 9.400390625 l 1
 245.564453125 131.8125 l 1
 154.244140625 151.697265625 99.34375 216.889648438 99.34375 333 c 0
 99.34375 462.465820312 170.727539062 523.212890625 276.063476562 527.716796875 c 1
 281.930664062 608.599609375 l 1
 347.010742188 608.599609375 l 1
 340.619140625 523.740234375 l 1
 381.705078125 513.844726562 449.9140625 492.176757812 449.9140625 453.400390625 c 0
 449.9140625 434.361328125 408.256835938 409.29296875 393.970703125 409.29296875 c 0
 356.291015625 409.29296875 353.87890625 459.588867188 337.653320312 477.065429688 c 1
 313.736328125 179.856445312 l 1
 317.64453125 179.533203125 321.510742188 179.374023438 325.5703125 179.374023438 c 0
 363.311523438 179.374023438 390.209960938 185.971679688 428.0078125 215.64453125 c 0
 433.763671875 220.010742188 l 1
275 491 m 1
 247.532226562 485.780273438 203.666015625 438.310546875 203.666015625 350.986328125 c 4
 203.666015625 272.975585938 219.7265625 234.095703125 250.982421875 204.452148438 c 5
 275 491 l 1
EndSplineSet
Validated: 1
EndChar

StartChar: cedilla
Encoding: 184 184 145
GlifName: cedilla
Width: 530
VWidth: 0
Flags: W
HStem: -158.981 38.7422<222.805 296.676>
VStem: 297.775 63.0029<-118.719 -61.2757>
LayerCount: 2
Fore
SplineSet
284.055984022 30.9920178574 m 1
 342.351724141 31.1102130313 l 1
 309.692205183 -27.1156010789 l 1
 343.709586051 -32.25717655 360.778320312 -57.2554721063 360.778320312 -92 c 0
 360.778320312 -141.833189313 309.164291303 -158.981445312 277 -158.981445312 c 0
 239.975031473 -158.981445312 212.228152387 -143.984768575 196.609071082 -124.442635178 c 0
 193.462202419 -120.505366014 l 1
 212.771249923 -90.6325446941 l 1
 218.893889669 -97.2579438238 l 0
 232.827249336 -112.335438639 253.196944545 -120.239257812 267 -120.239257812 c 0
 284.929388503 -120.239257812 297.775390625 -107.647016318 297.775390625 -94 c 0
 297.775390625 -75.7761803351 282.458984375 -59 265 -59 c 0
 257.81640625 -59 245.017578125 -64.654296875 240 -68 c 0
 227 -63 l 1
 284.055984022 30.9920178574 l 1
EndSplineSet
Validated: 1
EndChar

StartChar: braceleft
Encoding: 123 123 147
GlifName: braceleft
Width: 332
VWidth: 0
Flags: W
HStem: -126.934 32.0635<244.413 290.573> 766.33 32.0635<244.413 290.573>
VStem: 102.159 113.795<-71.4129 232.633 438.827 742.873> 122.799 110.619<-6.16313 288.64 382.72 677.623>
LayerCount: 2
Fore
SplineSet
282.634765625 766.330078125 m 2xe0
 253.94921875 766.330078125 215.954101562 744.859375 215.954101562 682.1640625 c 0xe0
 215.954101562 616.86328125 233.41796875 487.837890625 233.41796875 438.684570312 c 0
 233.41796875 384.780273438 215.543945312 350.814453125 184.209960938 335.73046875 c 1
 216.559570312 320.15625 233.41796875 285.987304688 233.41796875 232.775390625 c 0xd0
 233.41796875 183.619140625 215.954101562 54.599609375 215.954101562 -10.7041015625 c 0
 215.954101562 -73.4013671875 253.950195312 -94.8701171875 282.634765625 -94.8701171875 c 0
 290.573242188 -94.8701171875 l 1
 290.573242188 -126.93359375 l 1
 282.634765625 -126.93359375 l 0
 242.459960938 -126.93359375 102.159179688 -118.086914062 102.159179688 -9.201171875 c 0xe0
 102.159179688 86.62890625 122.798828125 154.567382812 122.798828125 238.788085938 c 0
 122.798828125 309.67578125 42.3115234375 302.499023438 42.3115234375 336.266601562 c 0
 42.3115234375 368.166015625 122.798828125 362.645507812 122.798828125 432.671875 c 0xd0
 122.798828125 516.895507812 102.159179688 584.828125 102.159179688 680.661132812 c 0
 102.159179688 789.547851562 242.459960938 798.393554688 282.634765625 798.393554688 c 0
 290.573242188 798.393554688 l 1
 290.573242188 766.330078125 l 1
 282.634765625 766.330078125 l 2xe0
EndSplineSet
Validated: 1
EndChar

StartChar: braceright
Encoding: 125 125 148
GlifName: braceright
Width: 317
VWidth: 0
Flags: W
HStem: -126.934 32.0635<30.9492 83.2804> 766.33 32.0635<30.9492 83.28>
VStem: 88.1045 110.619<-6.16313 288.118 383.687 677.623> 105.568 113.795<-70.712 232.633 438.827 742.172>
LayerCount: 2
Fore
SplineSet
30.94921875 766.330078125 m 1xd0
 30.94921875 798.393554688 l 1
 38.88671875 798.393554688 l 0
 69.0615234375 798.393554688 219.36328125 789.546875 219.36328125 680.661132812 c 0xd0
 219.36328125 584.831054688 198.723632812 516.892578125 198.723632812 432.671875 c 0
 198.723632812 362.6328125 279.250976562 368.157226562 279.250976562 336.266601562 c 0
 279.250976562 302.506835938 198.723632812 309.690429688 198.723632812 238.788085938 c 0xe0
 198.723632812 154.564453125 219.36328125 86.6318359375 219.36328125 -9.201171875 c 0
 219.36328125 -118.087890625 69.0615234375 -126.93359375 38.88671875 -126.93359375 c 0
 30.94921875 -126.93359375 l 1
 30.94921875 -94.8701171875 l 1
 38.88671875 -94.8701171875 l 0
 77.572265625 -94.8701171875 105.568359375 -73.3994140625 105.568359375 -10.7041015625 c 0xd0
 105.568359375 54.5966796875 88.1044921875 183.622070312 88.1044921875 232.775390625 c 0
 88.1044921875 286.6796875 105.977539062 320.645507812 137.3125 335.73046875 c 1
 104.961914062 351.303710938 88.1044921875 385.47265625 88.1044921875 438.684570312 c 0xe0
 88.1044921875 487.840820312 105.568359375 616.860351562 105.568359375 682.1640625 c 0
 105.568359375 744.861328125 77.5712890625 766.330078125 38.88671875 766.330078125 c 0
 30.94921875 766.330078125 l 1xd0
EndSplineSet
Validated: 1
EndChar

StartChar: ampersand
Encoding: 38 38 149
GlifName: ampersand
Width: 882
VWidth: 0
Flags: W
HStem: -17 50.9297<231.317 359.559 669.542 795.025> 334.605 29.3945<552.396 587.318 701.256 742> 702 40<269.801 355.728>
VStem: 52 132<96.3669 236.642> 121 121<515.391 646.571> 377 111<535.412 669.875>
LayerCount: 2
Fore
SplineSet
297.958984375 460.430664062 m 1xec
 361.411132812 523.4296875 377 577.927734375 377 619 c 0
 377 665.80859375 352.100585938 702 309 702 c 0
 261.755859375 702 242 643.719726562 242 604 c 0
 242 562.693359375 257.6640625 511.09375 297.958984375 460.430664062 c 1xec
521 254 m 1
 543 273 532.24609375 264.783203125 555.436523438 286.30859375 c 0
 567.963867188 297.936523438 587.328125 314.129882812 587.328125 322.915039062 c 0
 587.328125 329.080078125 573.094726562 334.419921875 559.280273438 334.604492188 c 2
 552.396484375 334.696289062 l 1
 552.301757812 363.998046875 l 1
 742 364 l 1
 742 334.68359375 l 1
 735.079101562 334.60546875 l 2
 723.08203125 334.470703125 714.680664062 328.149414062 706.791015625 323.760742188 c 0
 693.196289062 316.198242188 647.27734375 278.377929688 634.950195312 266.049804688 c 0
 612.368164062 243.46875 579.046875 220.038085938 562.627929688 196.28515625 c 1
 604.235351562 134.87109375 666.840820312 29 719 29 c 0
 786.373046875 29 806.477539062 63.5927734375 813.958984375 76.3818359375 c 1
 829.624023438 60.353515625 l 1
 816.724609375 21.4794921875 789.470703125 -23 711 -23 c 0
 607.610351562 -23 569.919921875 12.5009765625 527.17578125 63.1171875 c 0
 520.798828125 70.66796875 497.021484375 100.6328125 491.19140625 108.956054688 c 1
 442.887695312 35.328125 410.372070312 -17 303 -17 c 0
 162.317382812 -17 52 68.2099609375 52 175 c 0xf4
 52 273.524414062 167.491210938 345.509765625 232 394 c 1
 181.032226562 445.2265625 121 492.844726562 121 567 c 0
 121 655.40625 198.834960938 742 305 742 c 0
 454.204101562 742 488 650.911132812 488 595 c 0
 488 514.220703125 445 460 386.00390625 395.940429688 c 1
 416.522460938 366.717773438 409.852539062 374.046875 435.950195312 347.950195312 c 0
 489.884765625 294.014648438 496.0625 284.073242188 521 254 c 1
298.602539062 324.712890625 m 1
 248 284 184 239.78515625 184 174 c 0
 184 99.7958984375 212.633789062 33.9296875 298.498046875 33.9296875 c 4
 363.334960938 33.9296875 400.13671875 93.103515625 444.602539062 155.712890625 c 1
 414.120117188 195.822265625 407.338867188 215.76953125 359.5859375 264.830078125 c 0
 334.104492188 291.008789062 336.08984375 289.427734375 298.602539062 324.712890625 c 1
EndSplineSet
EndChar

StartChar: ae
Encoding: 230 230 150
GlifName: ae
Width: 870
VWidth: 0
Flags: W
HStem: -10 51.2998<191.981 317.571 556.147 715.089> 463.076 48.6055<515.623 659.277> 471.803 39.8477<223.135 308.841>
VStem: 32.9199 135.556<62.2376 172.681> 342.146 133.785<112.12 263.269 342.232 423.694>
LayerCount: 2
Fore
SplineSet
812.064453125 365.178710938 m 6xd8
 701.428710938 336.233398438 590.596679688 315.588867188 477.453125 282.942382812 c 1
 476.326171875 277.217773438 475.930664062 270.088867188 475.930664062 257.919921875 c 0
 475.930664062 202.633789062 476.07421875 143.725585938 491.831054688 119.587890625 c 0
 527.59375 64.7958984375 579.264648438 46.3154296875 639.720703125 46.3154296875 c 3
 683.606445312 46.3154296875 756.00390625 72.6181640625 810.798828125 113.081054688 c 2
 816.5546875 117.33203125 l 1
 835.8203125 98.79296875 l 1
 831.618164062 94.7236328125 l 2
 767.243987552 32.3840572791 711.716796875 -10 609.571289062 -10 c 0
 539.918945312 -10 477.141601562 -1.1708984375 434.868164062 47.7421875 c 1
 378.126953125 2.578125 305.248046875 -10 233.173828125 -10 c 0
 86.578125 -10 32.919921875 32.4375 32.919921875 94.9755859375 c 0
 32.919921875 159.3359375 62.5654296875 192.668945312 108.852539062 220.874023438 c 0
 185.7890625 267.508789062 251.569335938 288.110351562 343.328125 315.998046875 c 1
 343.611328125 331.125 343.587890625 341.791015625 344.056640625 355.891601562 c 0
 343.255859375 371.748046875 342.310546875 387.203125 342.149414062 395.38671875 c 0
 341.50390625 428.223632812 300.1875 471.802734375 267.518554688 471.802734375 c 0
 200 471.802734375 199.71875 376.203125 120.672851562 376.203125 c 0
 101.458007812 376.203125 75.9521484375 394.622070312 75.9521484375 416.35546875 c 0
 75.9521484375 421.173828125 77.8251953125 428.260742188 82.2578125 433.154296875 c 0
 139.123046875 495.931640625 183.034179688 511.650390625 279.415039062 511.650390625 c 0xb8
 357.244140625 511.650390625 421.314453125 476.388671875 444.532226562 441.364257812 c 1
 489.155273438 489.526367188 540.606445312 511.681640625 618.049804688 511.681640625 c 0
 730.919921875 511.681640625 818.13671875 435.25 818.13671875 371.896484375 c 6
 818.13671875 366.768554688 l 5
 812.064453125 365.178710938 l 6xd8
471.790039062 342.232421875 m 1
 536.411132812 359.86328125 623.50390625 384.99609375 687.33984375 406.416015625 c 1
 672.473632812 441.008789062 636.676757812 463.076171875 589.515625 463.076171875 c 0xd8
 538.9609375 463.076171875 474.565429688 440.595703125 471.790039062 342.232421875 c 1
342.145507812 81.474609375 m 1
 340.5234375 112.362304688 340.232421875 136.940429688 340.232421875 193.064453125 c 0
 340.232421875 210.540039062 341.6484375 246.166015625 342.479492188 263.2734375 c 1
 291.268554688 247.809570312 260.73046875 235.8671875 237.295898438 221.6875 c 0
 193.665039062 195.288085938 168.475585938 163.4765625 168.475585938 117.115234375 c 0
 168.475585938 69.0390625 200.629882812 41.2998046875 251.671875 41.2998046875 c 0
 281.399414062 41.2998046875 324.998046875 62.7890625 342.145507812 81.474609375 c 1
EndSplineSet
Validated: 1
EndChar

StartChar: germandbls
Encoding: 223 223 151
GlifName: germandbls
Width: 706
VWidth: 0
Flags: W
HStem: -9 46<408.235 523.247> 0 26<59 82.625 272.373 293> 696 39<289.607 383.355>
VStem: 113 131<30.5655 59 59.0945 509.906 510 623.445> 285 136<402.101 472.257> 411 106<568.835 671.676> 548 120<75.2773 183.894>
LayerCount: 2
Fore
SplineSet
111 510 m 5x76
 111 627 170 735 336 735 c 4
 428 735 517 709 517 635 c 4x76
 517 552 421 508 421 452 c 4
 421 399 468 383 548 324 c 4
 622 270 668 235 668 153 c 4
 668 72 612 -9 446 -9 c 4
 348 -9 322 41 303 64 c 4
 301 66 300 68 300 72 c 7
 300 91 337 151 350 151 c 7
 352 151 354 150 356 148 c 4
 373 124 388 37 461 37 c 4
 514 37 548 64 548 127 c 7
 548 192 469 238 410 279 c 4
 347 322 285 363 285 417 c 7xba
 285 465 328 493 360 523 c 4
 391 552 411 585 411 619 c 4
 411 653 380 696 339 696 c 7
 262 696 244 606 244 511 c 6
 244 59 l 4
 247 46 252 32 272 28 c 4
 280 27 285 26 293 26 c 5
 293 0 l 5
 59 0 l 5
 59 26 l 5
 67 26 75 27 83 28 c 4
 102 32 111 46 111 59 c 4
 111 59 113 189 113 261 c 4
 113 265 113 268 113 270 c 4
 113 381 111 510 111 510 c 5x76
EndSplineSet
Validated: 1
EndChar

StartChar: uniFB02
Encoding: 64258 64258 152
GlifName: uniF_B_02
Width: 610
VWidth: 0
Flags: W
HStem: 0 30<54.7471 89.1134 232.132 265.747 366.092 398.405 539.38 571.747> 453 52<44.0088 90.7471 230.95 331.268> 731 36.25<272.307 360.869>
VStem: 90.7471 139<30.5548 454.984> 90.7471 131.716<505 657.048> 402.747 133<30.1784 668.707>
LayerCount: 2
Fore
SplineSet
61.7470703125 30 m 2xf4
 80.7578125 30 90.7470703125 39.5947265625 90.7470703125 53.5947265625 c 2xf4
 90.7470703125 455.275390625 l 1
 52.7255859375 454.627929688 50.05078125 452.9609375 36 451.403320312 c 1
 44.0087890625 500 l 1
 90.7470703125 500 l 1
 90.7470703125 530 l 0
 90.7470703125 539.435546875 91.7470703125 552.435546875 91.7470703125 561 c 0
 91.7470703125 704.178710938 196 767.25 325.868164062 767.25 c 0
 355.139648438 767.25 391.666992188 757.295898438 416.280273438 742.459960938 c 1
 517.790039062 768.720703125 l 1
 519.704101562 769.267578125 521.357421875 769.413085938 522.747070312 769.413085938 c 0
 535.731445312 769.413085938 535.747070312 754.423828125 535.747070312 745 c 0
 535.747070312 56.12109375 l 1
 535.892578125 45.134765625 549.071289062 29 564.747070312 29 c 2
 571.747070312 29 l 1
 571.747070312 0 l 1
 366.091796875 0 l 1
 366.091796875 29 l 1
 373.655273438 29 l 2
 390.928710938 29 402.614257812 46.2119140625 402.747070312 59.087890625 c 1
 402.747070312 629.206054688 l 1
 373.805664062 650.698242188 382.895507812 731 322.958007812 731 c 0
 250.034179688 731 222.462890625 646.857421875 222.462890625 566 c 0
 222.462890625 505 l 1xec
 296.080078125 505 l 0
 319.419921875 505 332.1953125 497.987304688 332.1953125 483.713867188 c 0
 332.1953125 474.116210938 328.333007812 458.374023438 323.712890625 453 c 1
 318.359375 453 l 0
 312.40234375 453 276.928710938 454.794921875 230.950195312 454.984375 c 1
 229.747070312 53.939453125 l 1
 231.913085938 39.005859375 238.616210938 30 258.747070312 30 c 2
 265.747070312 30 l 1
 265.747070312 0 l 1
 54.7470703125 0 l 1
 54.7470703125 30 l 1
 61.7470703125 30 l 2xf4
EndSplineSet
Validated: 1
LCarets2: 1 0
Ligature2: "'liga' fl" f l
EndChar

StartChar: uniFB00
Encoding: 64256 64256 153
GlifName: uniF_B_00
Width: 764
VWidth: 0
Flags: W
HStem: 0 30<55.0381 88.9691 231.422 265.038 368.038 400.352 546.084 579.038> 456 49<44.4229 91.0381 229.038 404.038 543.038 663.175> 712 35.6738<265.799 355.39> 731 36.6328<584.414 667.722>
VStem: 91.0381 138<30.5257 456> 91.0381 130<505 631.255> 404.038 139<30.3682 455.984> 404.038 132<505 657.235>
LayerCount: 2
Fore
SplineSet
62.0380859375 30 m 2xd9
 83.1513671875 30 88.8388671875 38.7822265625 91.0380859375 53.984375 c 1xd9
 91.0380859375 456.25390625 l 1
 54.421875 455.397460938 50.8037109375 453.192382812 36 451.083007812 c 1
 44.4228515625 501 l 1
 91.0380859375 501 l 1
 91.0380859375 505 l 0
 91.0380859375 514.435546875 92.0380859375 527.435546875 92.0380859375 536 c 0
 92.0380859375 660.901367188 176.684570312 747.673828125 308.81640625 747.673828125 c 0xe4
 396.280273438 747.673828125 417.15625 712.283203125 441.377929688 695.640625 c 1
 486.170898438 750.586914062 575.010742188 767.6328125 639.744140625 767.6328125 c 0
 686.080078125 767.6328125 745.075195312 752.21875 782.26953125 679.650390625 c 0
 784.689453125 674.928710938 787.956054688 671.05859375 787.956054688 666.189453125 c 0
 787.956054688 646.318359375 766.608398438 616.783203125 744.038085938 616.783203125 c 0
 672.143554688 616.783203125 700.017578125 731 633.038085938 731 c 0
 574.255859375 731 536.038085938 668.788085938 536.038085938 556 c 0
 536.038085938 549.626953125 536.038085938 541.626953125 536.038085938 534 c 0
 536.038085938 505 l 1xd5
 632.038085938 505 l 0
 653.961914062 505 663.911132812 497.583007812 663.911132812 483.16796875 c 0
 663.911132812 476.506835938 657.790039062 458.165039062 655.083007812 453 c 1
 650.038085938 453 l 0
 644.421875 453 586.375976562 455.794921875 543.038085938 455.984375 c 1
 543.038085938 59.939453125 l 1
 543.202148438 32.0048828125 566.907226562 29 572.038085938 29 c 2
 579.038085938 29 l 1
 579.038085938 0 l 1
 368.038085938 0 l 1
 368.038085938 29 l 1
 375.038085938 29 l 2
 381.296875 29 403.956054688 34.587890625 404.038085938 59.94140625 c 1xd2
 404.038085938 456 l 1
 229.038085938 456 l 1
 229.038085938 53.94140625 l 1
 231.202148438 39.005859375 237.90625 30 258.038085938 30 c 2
 265.038085938 30 l 1
 265.038085938 0 l 1
 55.0380859375 0 l 1
 55.0380859375 30 l 1
 62.0380859375 30 l 2xd9
221.038085938 505 m 1xe5
 404.038085938 505 l 1
 404.038085938 530 l 2
 404.038085938 555.893554688 404.716796875 563.661132812 407.942382812 583.928710938 c 1
 403.224609375 615.69140625 369.663085938 712 320.995117188 712 c 0
 235.3359375 712 221.038085938 631.857421875 221.038085938 531 c 0
 221.038085938 505 l 1xe5
EndSplineSet
Validated: 1
LCarets2: 1 -1
Ligature2: "'liga' ff" f f
EndChar

StartChar: uniFB01
Encoding: 64257 64257 154
GlifName: uniF_B_01
Width: 620
VWidth: 0
Flags: W
HStem: 0 29<60.0381 93.5284 237.585 271.038 373.038 403.667 545.923 578.038> 451.099 49.9014<49.4229 96.0381> 464 41<235.038 409.032> 731 35.168<276.381 377.033>
VStem: 96.0381 139<29.5366 456.269 505 661.138> 401.685 120.354<611.88 710.611> 408.038 134<29.9461 464>
LayerCount: 2
Fore
SplineSet
380.038085938 29 m 2xba
 394.295898438 29 407.955078125 42.5849609375 408.038085938 56.935546875 c 1
 409.038085938 443.677734375 l 2
 409.038085938 461.504882812 401.358398438 464 386.038085938 464 c 2
 235.038085938 464 l 1xba
 235.038085938 56.935546875 l 1
 235.203125 38.001953125 245.767578125 29 264.038085938 29 c 2
 271.038085938 29 l 1
 271.038085938 0 l 1
 60.0380859375 0 l 1
 60.0380859375 29 l 1
 67.0380859375 29 l 2
 85.30859375 29 95.958984375 37.607421875 96.0380859375 56.98046875 c 1
 96.0380859375 456.268554688 l 1
 58.421875 455.41015625 55.8046875 453.20703125 41 451.098632812 c 1
 49.4228515625 501 l 1
 96.0380859375 501 l 1
 96.0380859375 536 l 0
 96.0380859375 545.435546875 97.0380859375 558.435546875 97.0380859375 567 c 0
 97.0380859375 695.05078125 181.21875 766.16796875 351.024414062 766.16796875 c 0
 466.639648438 766.16796875 522.038085938 707.55859375 522.038085938 662 c 0
 522.038085938 629.997070312 504.6953125 597 465.038085938 597 c 0
 430.017578125 597 413.467773438 614.44921875 401.684570312 650.053710938 c 0xdc
 390.240234375 684.63671875 392.701171875 731 329.291992188 731 c 0
 273.497070312 731 229.038085938 689.938476562 229.038085938 572 c 0
 230.038085938 505 l 1
 427.086914062 505 l 1
 524.142578125 517.739257812 l 1
 525.91796875 518.24609375 527.68359375 518.413085938 529.038085938 518.413085938 c 0
 542.022460938 518.413085938 542.038085938 503.849609375 542.038085938 494.692382812 c 0
 542.038085938 56.9921875 l 1
 542.198242188 42.0283203125 554.891601562 29 571.038085938 29 c 2
 578.038085938 29 l 1
 578.038085938 0 l 1
 373.038085938 0 l 1
 373.038085938 29 l 1
 380.038085938 29 l 2xba
EndSplineSet
Validated: 1
LCarets2: 1 0
Ligature2: "'liga' fi" f i
EndChar

StartChar: uniFB03
Encoding: 64259 64259 155
GlifName: uniF_B_03
Width: 908
VWidth: 0
Flags: W
HStem: 0 29<45.0381 78.4797 221.423 255.038 358.038 391.477 535.599 569.038 671.038 701.688 843.923 876.038> 456 49<34.4229 79.3003 219.038 394.038> 464 41<34.4229 81.0381 533.038 707.033> 712 35.7441<261.901 356.366> 731 35.168<574.79 673.833>
VStem: 81.0381 138<29.5564 456> 81.0381 130<505 640.594> 394.038 139<29.5551 456 505 584.484> 704.685 115.354<608.952 702.251> 706.038 134<29.9146 464>
LayerCount: 2
Fore
SplineSet
765.038085938 597 m 0x8b80
 732.017578125 597 713.431640625 611.9765625 704.684570312 637.053710938 c 1x8b80
 686.829101562 676.53515625 696.701171875 731 624.291992188 731 c 0
 558.497070312 731 527.038085938 667.938476562 527.038085938 571 c 0
 528.038085938 505 l 1
 724.086914062 505 l 1
 822.142578125 517.739257812 l 1
 823.91796875 518.24609375 825.68359375 518.413085938 827.038085938 518.413085938 c 0
 840.022460938 518.413085938 840.038085938 503.849609375 840.038085938 494.692382812 c 0
 840.038085938 55.3857421875 l 1
 840.890625 42.1708984375 853.0546875 29 869.038085938 29 c 2
 876.038085938 29 l 1
 876.038085938 0 l 1
 671.038085938 0 l 1
 671.038085938 29 l 1
 678.038085938 29 l 2
 693.827148438 29 705.993164062 44.8349609375 706.038085938 56.400390625 c 1
 707.038085938 443 l 2
 707.038085938 461.337890625 699.532226562 464 684.038085938 464 c 2
 533.038085938 464 l 1xa940
 533.038085938 53.400390625 l 1
 535.16796875 38.2158203125 541.634765625 29 562.038085938 29 c 2
 569.038085938 29 l 1
 569.038085938 0 l 1
 358.038085938 0 l 1
 358.038085938 29 l 1
 365.038085938 29 l 2
 385.294921875 29 391.955078125 38.5830078125 394.038085938 52.931640625 c 1
 394.038085938 456 l 1
 219.038085938 456 l 1
 219.038085938 52.931640625 l 1
 221.203125 38.0009765625 227.909179688 29 248.038085938 29 c 2
 255.038085938 29 l 1
 255.038085938 0 l 1
 45.0380859375 0 l 1
 45.0380859375 29 l 1
 52.0380859375 29 l 2
 72.3076171875 29 78.9580078125 38.60546875 81.0380859375 52.9765625 c 1xc540
 81.0380859375 457.279296875 l 1
 43.421875 456.422851562 40.8037109375 454.219726562 26 452.111328125 c 1
 34.4228515625 501 l 1
 81.0380859375 501 l 1
 81.0380859375 514 l 0
 81.0380859375 523.435546875 82.0380859375 536.435546875 82.0380859375 545 c 0
 82.0380859375 664.454101562 159.36328125 747.744140625 302.521484375 747.744140625 c 0xd3
 377.208984375 747.744140625 396.733398438 721.989257812 430.790039062 691.067382812 c 1
 462.08203125 734.982421875 576.578125 766.16796875 656.0234375 766.16796875 c 0
 750.298828125 766.16796875 820.038085938 715.178710938 820.038085938 662 c 0
 820.038085938 632.997070312 803.6953125 597 765.038085938 597 c 0x8b80
211.038085938 550 m 0
 211.038085938 505 l 1xb3
 394.038085938 505 l 1
 394.038085938 518 l 2
 394.038085938 547.727539062 394.16796875 562.578125 398.80859375 585.555664062 c 1
 387.540039062 618.409179688 378.475585938 712 318.353515625 712 c 0xd3
 242.381835938 712 211.038085938 650.857421875 211.038085938 550 c 0
EndSplineSet
Validated: 1
LCarets2: 2 0 0
Ligature2: "'liga' ffi" f f i
EndChar

StartChar: uniFB04
Encoding: 64260 64260 156
GlifName: uniF_B_04
Width: 925
VWidth: 0
Flags: W
HStem: 0 30<49.0381 82.7066 225.422 259.038 362.038 396.127 539.06 573.038 672.038 706.27 843.943 878.038> 456 49<38.4229 85.0381 223.038 398.038 537.038 655.598> 707 40.6738<257.637 363.368> 731 36.25<579.359 666.642>
VStem: 85.0381 138<30.5567 456> 85.1113 129.927<505 624.831> 398.038 139<30.518 456> 398.038 132<505 672.716> 709.038 133<29.7347 670.107>
LayerCount: 2
Fore
SplineSet
56.0380859375 30 m 2xda80
 76.310546875 30 82.958984375 39.6103515625 85.0380859375 53.984375 c 1
 85.0380859375 456.25390625 l 1xda80
 49.421875 455.397460938 44.8037109375 453.192382812 30 451.083007812 c 1
 38.4228515625 501 l 1
 85.111328125 501 l 1
 85.349609375 513.024414062 86.0380859375 525.100585938 86.0380859375 536 c 0
 86.0380859375 656.905273438 182.546875 747.673828125 293.81640625 747.673828125 c 0xe480
 341.268554688 747.673828125 397.186523438 716.250976562 431.34375 679.676757812 c 1
 469.326171875 733.362304688 540.7734375 767.25 631.788085938 767.25 c 0
 664.653320312 767.25 702.702148438 754.283203125 721.614257812 742.4609375 c 1
 824.09375 768.724609375 l 1
 825.9765625 769.262695312 827.655273438 769.413085938 829.038085938 769.413085938 c 0
 842.022460938 769.413085938 842.038085938 754.423828125 842.038085938 745 c 0
 842.038085938 53.12109375 l 1
 844.186523438 38.1015625 850.458007812 29 871.038085938 29 c 2
 878.038085938 29 l 1
 878.038085938 -1 l 1
 672.038085938 -1 l 1
 672.038085938 29 l 1
 679.038085938 29 l 2
 699.833984375 29 705.487304688 39.376953125 709.038085938 53.484375 c 1
 709.038085938 629.206054688 l 1
 681 644 692 731 628.038085938 731 c 0
 575.255859375 731 530.038085938 681.788085938 530.038085938 556 c 0
 530.038085938 549.626953125 530.038085938 541.626953125 530.038085938 534 c 0
 530.038085938 505 l 1xd580
 622.038085938 505 l 0
 643.961914062 505 655.911132812 497.583007812 655.911132812 483.16796875 c 0
 655.911132812 473.889648438 652.3828125 459.306640625 648.083007812 454 c 1
 643.038085938 454 l 0
 637.421875 454 576.375976562 456.794921875 537.038085938 456.984375 c 1
 537.038085938 53.939453125 l 1
 539.313476562 38.2412109375 544.233398438 30 566.038085938 30 c 2
 573.038085938 30 l 1
 573.038085938 0 l 1
 362.038085938 0 l 1
 362.038085938 29 l 1
 369.038085938 29 l 2
 389.296875 29 395.956054688 38.587890625 398.038085938 52.94140625 c 1
 398.038085938 456 l 1
 223.038085938 456 l 1
 223.038085938 53.94140625 l 1
 225.202148438 39.005859375 231.90625 30 252.038085938 30 c 2
 259.038085938 30 l 1
 259.038085938 0 l 1
 49.0380859375 0 l 1
 49.0380859375 30 l 1
 56.0380859375 30 l 2xda80
215.038085938 505 m 1xe580
 398.038085938 505 l 1
 398.038085938 530 l 2
 398.038085938 555.893554688 400.716796875 583.661132812 403.942382812 603.928710938 c 1
 398.224609375 633.69140625 379.663085938 707 310.995117188 707 c 0
 235.3359375 707 215.038085938 631.857421875 215.038085938 531 c 0
 215.038085938 505 l 1xe580
EndSplineSet
Validated: 1
LCarets2: 2 0 0
Ligature2: "'liga' ffl" f f l
EndChar

StartChar: uni02B9
Encoding: 697 697 157
GlifName: uni02B_9
Width: 187
VWidth: 0
Flags: W
HStem: 494 180<69.8242 117.959>
VStem: 58 72<559.812 671.317>
LayerCount: 2
Fore
SplineSet
92 674 m 2
 96 674 l 0
 117.575665284 674 130 656.615152816 130 636 c 0
 130 628.644983318 l 1
 117.964081861 510.291788285 l 1
 117.964081861 510.291788285 110.666056561 494 101 494 c 0
 87 494 l 0
 76.8708782569 494 70.7236642676 500.706748291 69.8775991694 511.848591486 c 1
 58 628.644983318 l 1
 58 634 l 0
 58 654.631474702 71.9012019561 674 92 674 c 2
EndSplineSet
Validated: 1
EndChar

StartChar: uni02BA
Encoding: 698 698 158
GlifName: uni02B_A_
Width: 304
VWidth: 0
Flags: W
HStem: 494 180<69.8242 117.959 185.824 233.959>
VStem: 58 73<559.812 671.198> 174 73<559.812 671.198>
LayerCount: 2
Fore
SplineSet
208 674 m 2
 212 674 l 0
 233.032518313 674 247 658.184604933 247 637 c 0
 247 635.269145265 246.619151267 630.366243306 245.883382856 627.498248073 c 1
 233.964081861 510.291788285 l 1
 233.964081861 510.291788285 226.666056561 494 217 494 c 0
 203 494 l 0
 192.870878257 494 186.723664268 500.706748291 185.877599169 511.848591486 c 1
 174 628.644983318 l 1
 174 634 l 0
 174 654.631474702 187.901201956 674 208 674 c 2
92 674 m 2
 96 674 l 0
 117.032518313 674 131 658.184604933 131 637 c 0
 131 635.269145265 130.619151267 630.366243306 129.883382856 627.498248073 c 1
 117.964081861 510.291788285 l 1
 117.964081861 510.291788285 110.666056561 494 101 494 c 0
 87 494 l 0
 76.8708782569 494 70.7236642676 500.706748291 69.8775991694 511.848591486 c 1
 58 628.644983318 l 1
 58 634 l 0
 58 654.631474702 71.9012019561 674 92 674 c 2
EndSplineSet
Validated: 1
EndChar

StartChar: quotedblleft
Encoding: 8220 8220 159
GlifName: quotedblleft
Width: 422
VWidth: 0
Flags: W
HStem: 762.392 39.5945<123.136 156.887 312.603 346.691>
VStem: 32.8245 133.913<560.789 639.894> 32.8245 65.5697<591.107 726.753> 224.008 134.332<561.661 640.635> 224.008 65.1991<591.031 730.748>
LayerCount: 2
Fore
SplineSet
358.339596411 598.003139536 m 0x90
 358.339596411 565.036500668 333.297430443 539.642128219 297.178670973 539.642128219 c 0
 268.456181692 539.642128219 236.866899042 557.494008222 229.643209909 591.031385768 c 0
 225.797475431 608.886737547 224.007974342 625.911794923 224.007974342 641.996399423 c 0
 224.007974342 729.747082391 277.453221392 789.082856788 337.363392766 801.98666768 c 2
 345.722497346 803.7871016 l 1
 346.963191262 795.326790124 l 1
 350.475886575 771.373665124 l 1
 351.561905049 763.968087939 l 1
 344.244895186 762.392214774 l 2
 306.385983506 754.238495687 289.20704815 710.136118473 289.20704815 680.139758543 c 0x88
 289.20704815 675.623078951 289.61388403 671.586556994 290.310893744 668.350440461 c 0
 293.052125652 655.623104372 358.339596411 652.000345076 358.339596411 598.003139536 c 0x90
166.737242008 597.45049059 m 0xc0
 166.737242008 564.436263164 141.738317848 539.064006972 105.689522368 539.064006972 c 0
 76.7695922836 539.064006972 44.9289417418 557.240334787 37.9768971295 591.107087025 c 0
 34.4638772289 608.219966902 32.8244563299 624.555043956 32.8244563299 640.018390996 c 0
 32.8244563299 728.926329968 87.2149688943 788.587875211 147.731176581 801.010421131 c 2
 156.107749371 802.729933376 l 1
 157.266105594 794.257513124 l 1
 160.545402469 770.272161562 l 1
 161.559213653 762.856969042 l 1
 154.227932198 761.351909095 l 2
 115.965310017 753.49686486 98.394128844 708.839958949 98.394128844 678.897775763 c 0xa0
 98.394128844 674.678976478 98.7582597388 670.899905782 99.3873530407 667.835333015 c 0
 102.014053649 655.040265167 166.737242008 651.032107486 166.737242008 597.45049059 c 0xc0
EndSplineSet
EndChar

StartChar: second
Encoding: 8243 8243 160
GlifName: second
Width: 304
VWidth: 0
Flags: W
HStem: 501 166<75.875 111.771 191.875 227.771>
VStem: 65 59<560.167 666.305> 181 59<560.167 666.305>
LayerCount: 2
Fore
SplineSet
208 667 m 6
 212 667 l 6
 229 667 240 655 240 637 c 4
 240 635 240 632 239 629 c 6
 227 511 l 6
 227 505 223 501 217 501 c 6
 203 501 l 6
 197 501 193 505 193 511 c 6
 181 629 l 6
 181 631 181 633 181 634 c 4
 181 652 193 667 208 667 c 6
92 667 m 6
 96 667 l 6
 113 667 124 655 124 637 c 4
 124 635 124 632 123 629 c 6
 111 511 l 6
 111 505 107 501 101 501 c 6
 87 501 l 6
 81 501 77 505 77 511 c 6
 65 629 l 6
 65 631 65 633 65 634 c 4
 65 652 77 667 92 667 c 6
EndSplineSet
Validated: 1
EndChar

StartChar: quotedblright
Encoding: 8221 8221 161
GlifName: quotedblright
Width: 426
VWidth: 0
Flags: W
HStem: 480.274 39.8728<76.2867 110.206 268.072 301.95>
VStem: 66.6117 133.911<643.11 722.212> 134.949 65.5737<556.252 691.893> 258.266 133.941<643.055 722.193> 326.663 65.544<554.52 691.898>
LayerCount: 2
Fore
SplineSet
66.6117480751 685.553092317 m 0xc0
 66.6117480751 718.567384662 91.6110083618 743.938533117 127.659973307 743.938533117 c 0
 156.580443572 743.938533117 188.421550279 725.761111425 195.372782294 691.892571714 c 0
 198.884310113 674.783177852 200.523054901 658.451343556 200.523054901 642.990921238 c 0
 200.523054901 554.077561013 146.127781645 494.414643385 85.6094220718 481.993439621 c 2
 77.2333736253 480.27428191 l 1
 76.074758037 488.746076332 l 1
 72.7944845995 512.731427895 l 1
 71.7803020677 520.147128152 l 1
 79.1121764611 521.652051534 l 2
 117.378786119 529.506566295 134.94932755 574.163668207 134.94932755 604.105564801 c 0xa0
 134.94932755 608.324051858 134.58536476 612.102156074 133.956282649 615.167177033 c 0
 131.330716792 627.961332958 66.6117480751 631.972509223 66.6117480751 685.553092317 c 0xc0
258.265869895 685.511059482 m 0x90
 258.265869895 718.516765205 283.249971666 743.896783237 319.32035058 743.896783237 c 0
 348.227367775 743.896783237 380.051162233 725.743077407 387.022020589 691.898176088 c 0
 390.55763047 674.733787655 392.207260537 658.350842062 392.207260537 642.844327662 c 0
 392.207260537 554.016971663 337.88152776 494.377987979 277.406938388 481.921333273 c 2
 269.031310582 480.196107776 l 1
 267.867413421 488.667995851 l 1
 264.572491546 512.651394289 l 1
 263.553865229 520.065870792 l 1
 270.884100612 521.575741854 l 2
 309.118915217 529.451292523 326.66321263 574.070605179 326.66321263 604.017116115 c 0x88
 326.66321263 608.256222757 326.296235996 612.052728026 325.662548365 615.129174254 c 0
 323.027767613 627.920345889 258.265869895 631.89909651 258.265869895 685.511059482 c 0x90
EndSplineSet
EndChar

StartChar: minute
Encoding: 8242 8242 162
GlifName: minute
Width: 187
VWidth: 0
Flags: W
HStem: 501 166<75.875 112.014>
VStem: 65 58<560.167 666.32>
LayerCount: 2
Fore
SplineSet
92 667 m 2
 96 667 l 2
 113 667 123 654 123 636 c 0
 123 634 123 631 123 629 c 2
 111 511 l 2
 111 505 107 501 101 501 c 2
 87 501 l 2
 81 501 77 505 77 511 c 2
 65 629 l 2
 65 631 65 633 65 634 c 0
 65 652 77 667 92 667 c 2
EndSplineSet
Validated: 1
EndChar

StartChar: quoteleft
Encoding: 8216 8216 163
GlifName: quoteleft
Width: 236
VWidth: 0
Flags: W
HStem: 761.939 39.6232<121.717 155.905>
VStem: 32.564 134.146<560.937 640.307> 32.564 65.3597<591.064 730.312>
LayerCount: 2
Fore
SplineSet
166.710454906 597.761434345 m 0xc0
 166.710454906 564.776951443 141.696597218 539.389082995 105.600737694 539.389082995 c 0
 76.7916466447 539.389082995 45.0918785477 557.38229869 37.985770539 591.064451665 c 0
 34.2871920103 608.596203566 32.5639933687 625.320523065 32.5639933687 641.134584523 c 0
 32.5639933687 729.388772971 86.4210980171 788.866900851 146.596645265 801.56207407 c 2
 154.963730954 803.327269519 l 1
 156.168280524 794.86127293 l 1
 159.578436774 770.893499493 l 1
 160.632692266 763.483822361 l 1
 153.309579801 761.938897233 l 2
 115.273647283 753.91462228 97.9237305986 709.567760364 97.9237305986 679.593654528 c 0xa0
 97.9237305986 675.209010976 98.3114884255 671.286135598 98.9780848519 668.126033939 c 0
 101.667719269 655.377261598 166.710454906 651.563147652 166.710454906 597.761434345 c 0xc0
EndSplineSet
EndChar

StartChar: quoteright
Encoding: 8217 8217 164
GlifName: quoteright
Width: 246
VWidth: 0
Flags: W
HStem: 478.885 39.7999<79.1453 110.269>
VStem: 66.677 134.466<642.129 721.156> 136.059 65.0839<551.939 691.992>
LayerCount: 2
Fore
SplineSet
66.6769560408 684.822187841 m 0xc0
 66.6769560408 717.775950057 91.7396889983 743.176841236 127.873298614 743.176841236 c 0
 156.533276751 743.176841236 188.04390445 725.425434345 195.351632802 691.992383399 c 0
 199.304933783 673.904948292 201.142828095 656.664235783 201.142828095 640.385883665 c 0
 201.142828095 552.995670007 147.992863313 493.763913195 88.2736888655 480.710879322 c 2
 79.9202666776 478.885041912 l 1
 78.6536833989 487.34134792 l 1
 75.0677458989 511.28275417 l 1
 73.9590427077 518.684978417 l 1
 81.2712011212 520.283254333 l 2
 119.001338168 528.530226837 136.058906872 572.457042968 136.058906872 602.467774939 c 0xa0
 136.058906872 607.079901904 135.638055362 611.19865074 134.918839586 614.489223999 c 0
 132.140603335 627.20167988 66.6769560408 630.683931523 66.6769560408 684.822187841 c 0xc0
EndSplineSet
EndChar

StartChar: emdash
Encoding: 8212 8212 165
GlifName: emdash
Width: 697
VWidth: 0
Flags: W
HStem: 276 44<68.0352 616.947>
LayerCount: 2
Fore
SplineSet
77 276 m 5
 71 278 68 289 68 300 c 4
 68 311 71 320 77 320 c 5
 611 320 l 5
 615 320 617 307 617 295 c 4
 617 285 616 276 611 276 c 5
 77 276 l 5
EndSplineSet
Validated: 1
EndChar

StartChar: endash
Encoding: 8211 8211 166
GlifName: endash
Width: 515
VWidth: 0
Flags: W
HStem: 276 44<68.0352 445.947>
LayerCount: 2
Fore
SplineSet
77 276 m 1
 71 278 68 289 68 300 c 0
 68 311 71 320 77 320 c 1
 440 320 l 1
 444 320 446 307 446 295 c 0
 446 285 445 276 440 276 c 1
 77 276 l 1
EndSplineSet
Validated: 1
EndChar

StartChar: uni2010
Encoding: 8208 8208 167
GlifName: uni2010
Width: 403
VWidth: 0
Flags: W
HStem: 276 44<68 336>
VStem: 68 268<276 320>
LayerCount: 2
Fore
SplineSet
68 276 m 5
 68 320 l 5
 336 320 l 5
 336 276 l 5
 68 276 l 5
EndSplineSet
Validated: 1
EndChar

StartChar: uni2015
Encoding: 8213 8213 172
GlifName: uni2015
Width: 2000
VWidth: 0
Flags: W
HStem: 276 44<68 1933>
LayerCount: 2
Fore
SplineSet
68 276 m 1
 68 320 l 1
 1933 320 l 1
 1933 276 l 1
 68 276 l 1
EndSplineSet
Validated: 1
EndChar

StartChar: figuredash
Encoding: 8210 8210 173
GlifName: figuredash
Width: 539
VWidth: 0
Flags: W
HStem: 276 44<68 472>
LayerCount: 2
Fore
SplineSet
68 276 m 1
 68 320 l 1
 472 320 l 1
 472 276 l 1
 68 276 l 1
EndSplineSet
Validated: 1
EndChar

StartChar: uni2011
Encoding: 8209 8209 174
GlifName: uni2011
Width: 403
VWidth: 0
Flags: W
HStem: 276 44<68 336>
VStem: 68 268<276 320>
LayerCount: 2
Fore
SplineSet
68 276 m 1
 68 320 l 1
 336 320 l 1
 336 276 l 1
 68 276 l 1
EndSplineSet
Validated: 1
EndChar

StartChar: uni2034
Encoding: 8244 8244 175
GlifName: uni2034
Width: 427
VWidth: 0
Flags: W
HStem: 501 166<75.875 111.771 191.875 227.771 307.875 343.771>
VStem: 65 59<560.167 666.305> 181 59<560.167 666.305> 297 59<560.167 666.305>
CounterMasks: 1 70
LayerCount: 2
Fore
SplineSet
324 667 m 2
 328 667 l 2
 345 667 356 655 356 637 c 0
 356 635 356 632 355 629 c 2
 343 511 l 2
 343 505 339 501 333 501 c 2
 319 501 l 2
 313 501 309 505 309 511 c 2
 297 629 l 2
 297 631 297 633 297 634 c 0
 297 652 309 667 324 667 c 2
208 667 m 2
 212 667 l 2
 229 667 240 655 240 637 c 0
 240 635 240 632 239 629 c 2
 227 511 l 2
 227 505 223 501 217 501 c 2
 203 501 l 2
 197 501 193 505 193 511 c 2
 181 629 l 2
 181 631 181 633 181 634 c 0
 181 652 193 667 208 667 c 2
92 667 m 2
 96 667 l 2
 113 667 124 655 124 637 c 0
 124 635 124 632 123 629 c 2
 111 511 l 2
 111 505 107 501 101 501 c 2
 87 501 l 2
 81 501 77 505 77 511 c 2
 65 629 l 2
 65 631 65 633 65 634 c 0
 65 652 77 667 92 667 c 2
EndSplineSet
Validated: 1
EndChar

StartChar: uni2016
Encoding: 8214 8214 176
GlifName: uni2016
Width: 293
VWidth: 0
Flags: W
VStem: 63 44<-110.873 737.95> 180 44<-110.873 737.95>
LayerCount: 2
Fore
SplineSet
180 728 m 5
 182 734 193 738 204 738 c 4
 215 738 224 738 224 732 c 5
 224 -102 l 5
 224 -106 211 -111 199 -111 c 4
 189 -111 180 -111 180 -106 c 5
 180 728 l 5
63 728 m 1
 65 734 76 738 87 738 c 0
 98 738 107 738 107 732 c 1
 107 -102 l 1
 107 -106 94 -111 82 -111 c 0
 72 -111 63 -111 63 -106 c 1
 63 728 l 1
EndSplineSet
Validated: 1
EndChar

StartChar: guillemotleft
Encoding: 171 171 180
GlifName: guillemotleft
Width: 481
VWidth: 0
Flags: W
LayerCount: 2
Fore
SplineSet
200 342 m 0
 200 351.913085938 209.353515625 357.235351562 209.353515625 357.235351562 c 0
 289.870117188 428.694335938 338.604492188 463.637695312 388.666015625 522.533203125 c 0
 388.849609375 522.749023438 l 1
 389.049804688 522.950195312 l 0
 392.008789062 525.909179688 396.087890625 526 397 526 c 0
 405.079101562 526 423 508.921875 423 499 c 0
 423 497.138671875 422.743164062 493.833984375 421.260742188 490.869140625 c 0
 421.091796875 490.532226562 l 1
 420.888671875 490.21484375 l 0
 385.822265625 435.66796875 351.541015625 393.323242188 293.784179688 343.045898438 c 1
 353.00390625 292.279296875 385.732421875 249.47265625 420.888671875 194.78515625 c 0
 421.091796875 194.467773438 l 1
 421.260742188 194.130859375 l 0
 422.743164062 191.166015625 423 187.861328125 423 186 c 0
 423 176.078125 405.079101562 159 397 159 c 0
 396.087890625 159 392.008789062 159.090820312 389.049804688 162.049804688 c 0
 388.849609375 162.250976562 l 1
 388.666015625 162.466796875 l 0
 338.612304688 221.354492188 289.853515625 256.321289062 209.366210938 327.752929688 c 1
 209.366210938 327.752929688 200 332.39453125 200 342 c 0
52 342 m 0
 52 351.913085938 61.353515625 357.235351562 61.353515625 357.235351562 c 0
 141.870117188 428.694335938 190.604492188 463.637695312 240.666015625 522.533203125 c 0
 240.849609375 522.749023438 l 1
 241.049804688 522.950195312 l 0
 244.008789062 525.909179688 248.087890625 526 249 526 c 0
 257.079101562 526 275 508.921875 275 499 c 0
 275 497.138671875 274.743164062 493.833984375 273.260742188 490.869140625 c 0
 273.091796875 490.532226562 l 1
 272.888671875 490.21484375 l 0
 237.822265625 435.66796875 203.541015625 393.323242188 145.784179688 343.045898438 c 1
 205.00390625 292.279296875 237.732421875 249.47265625 272.888671875 194.78515625 c 0
 273.091796875 194.467773438 l 1
 273.260742188 194.130859375 l 0
 274.743164062 191.166015625 275 187.861328125 275 186 c 0
 275 176.078125 257.079101562 159 249 159 c 0
 248.087890625 159 244.008789062 159.090820312 241.049804688 162.049804688 c 0
 240.849609375 162.250976562 l 1
 240.666015625 162.466796875 l 0
 190.612304688 221.354492188 141.853515625 256.321289062 61.3662109375 327.752929688 c 1
 61.3662109375 327.752929688 52 332.39453125 52 342 c 0
EndSplineSet
Validated: 1
EndChar

StartChar: guillemotright
Encoding: 187 187 181
GlifName: guillemotright
Width: 491
VWidth: 0
Flags: W
LayerCount: 2
Fore
SplineSet
278 342 m 4
 278 332.39453125 268.633789062 327.752929688 268.633789062 327.752929688 c 5
 188.147460938 256.321289062 139.387695312 221.353515625 89.333984375 162.466796875 c 4
 89.150390625 162.250976562 l 5
 88.9501953125 162.049804688 l 4
 85.9912109375 159.090820312 81.912109375 159 81 159 c 4
 72.9208984375 159 55 176.078125 55 186 c 4
 55 187.861328125 55.2568359375 191.166015625 56.7392578125 194.130859375 c 4
 56.908203125 194.467773438 l 5
 57.111328125 194.78515625 l 4
 92.12109375 249.244140625 126.502929688 293.5703125 184.215820312 343.045898438 c 5
 124.948242188 394.638671875 92.3359375 435.420898438 57.111328125 490.21484375 c 4
 56.908203125 490.532226562 l 5
 56.7392578125 490.869140625 l 4
 55.2568359375 493.833984375 55 497.138671875 55 499 c 4
 55 508.921875 72.9208984375 526 81 526 c 4
 81.912109375 526 85.9912109375 525.909179688 88.9501953125 522.950195312 c 4
 89.150390625 522.749023438 l 5
 89.333984375 522.533203125 l 4
 139.388671875 463.645507812 188.146484375 428.678710938 268.633789062 357.247070312 c 4
 268.633789062 357.247070312 278 351.901367188 278 342 c 4
436 342 m 4
 436 332.39453125 426.633789062 327.752929688 426.633789062 327.752929688 c 5
 346.147460938 256.321289062 297.387695312 221.353515625 247.333984375 162.466796875 c 4
 247.150390625 162.250976562 l 5
 246.950195312 162.049804688 l 4
 243.991210938 159.090820312 239.912109375 159 239 159 c 4
 230.920898438 159 213 176.078125 213 186 c 4
 213 187.861328125 213.256835938 191.166015625 214.739257812 194.130859375 c 4
 214.908203125 194.467773438 l 5
 215.111328125 194.78515625 l 4
 250.12109375 249.244140625 284.502929688 293.5703125 342.215820312 343.045898438 c 5
 282.948242188 394.638671875 250.3359375 435.420898438 215.111328125 490.21484375 c 4
 214.908203125 490.532226562 l 5
 214.739257812 490.869140625 l 4
 213.256835938 493.833984375 213 497.138671875 213 499 c 4
 213 508.921875 230.920898438 526 239 526 c 4
 239.912109375 526 243.991210938 525.909179688 246.950195312 522.950195312 c 4
 247.150390625 522.749023438 l 5
 247.333984375 522.533203125 l 4
 297.388671875 463.645507812 346.146484375 428.678710938 426.633789062 357.247070312 c 4
 426.633789062 357.247070312 436 351.901367188 436 342 c 4
EndSplineSet
Validated: 1
EndChar

StartChar: registered
Encoding: 174 174 182
GlifName: registered
Width: 675
VWidth: 0
Flags: W
HStem: 94.6387 48.1084<215.603 399.061> 196.36 16.1504<163.492 180.646 275.715 293.375 434.666 445.916> 343.478 20.583<266.699 279.104> 496.166 18.374<169.373 181.344 267.612 317.546> 566.253 42.1084<220.897 391.35>
VStem: 37.957 52.1074<263.79 438.849> 188.831 77.0254<226.494 343.812 364.061 493.463> 345.765 76.9307<381.042 477.136> 507.936 52.1074<258.454 445.417>
LayerCount: 2
Fore
SplineSet
37.95703125 349.063476562 m 4
 37.95703125 493.837890625 163.608398438 608.361328125 307.73046875 608.361328125 c 4
 452.310546875 608.361328125 560.04296875 493.19140625 560.04296875 349.063476562 c 4
 560.04296875 204.874023438 453.919921875 94.638671875 309.475585938 94.638671875 c 4
 165.584960938 94.638671875 37.95703125 204.099609375 37.95703125 349.063476562 c 4
162.985351562 508.107421875 m 5
 118.685546875 467.625 90.064453125 410.176757812 90.064453125 349.063476562 c 4
 90.064453125 288.380859375 118.802734375 234.330078125 162.985351562 196.790039062 c 5
 162.985351562 212.510742188 l 5
 169.985351562 212.510742188 l 6
 173.139648438 212.510742188 177.038085938 213.018554688 180.823242188 215.005859375 c 4
 187.180664062 218.34375 188.905273438 226.311523438 188.905273438 227.280273438 c 4
 188.905273438 234.560546875 188.831054688 330.134765625 188.831054688 401.435546875 c 4
 188.831054688 439.493164062 188.905273438 466.8828125 188.905273438 475.76953125 c 4
 188.905273438 480.616210938 186.248046875 490.997070312 181.520507812 493.58984375 c 4
 177.775390625 495.643554688 172.041015625 496.209960938 167.985351562 496.209960938 c 6
 162.985351562 496.209960938 l 5
 162.985351562 508.107421875 l 5
169.373046875 513.73046875 m 5
 182.9453125 513.73046875 l 6
 213.610351562 513.73046875 250.061523438 514.540039062 280.955078125 514.540039062 c 4
 352.979492188 514.540039062 422.6953125 487.797851562 422.6953125 424.919921875 c 4
 422.6953125 381.09375 386.477539062 352.947265625 351.852539062 342.921875 c 5
 390.051757812 294.755859375 415.456054688 241.926757812 434.486328125 220.61328125 c 4
 438.341796875 215.986328125 440.940429688 214.568359375 443.239257812 214.032226562 c 4
 461.783203125 213.432617188 l 4
 487.358398438 248.442382812 507.935546875 300.369140625 507.935546875 349.063476562 c 4
 507.935546875 465.317382812 422.71875 566.252929688 307.73046875 566.252929688 c 4
 256.693359375 566.252929688 207.810546875 546.135742188 169.373046875 513.73046875 c 5
265.856445312 364.060546875 m 6
 276.655273438 364.060546875 l 6
 315.2578125 364.060546875 345.764648438 388.4140625 345.764648438 437.110351562 c 4
 345.764648438 467.825195312 320.439453125 495.780273438 291.764648438 495.780273438 c 4
 288.368164062 495.780273438 274.424804688 496.166015625 269.849609375 496.166015625 c 4
 267.795898438 496.166015625 267.803710938 496.137695312 267.612304688 496.134765625 c 4
 267.115234375 476.526367188 265.9140625 416.729492188 265.9140625 378.879882812 c 4
 265.9140625 373.642578125 265.877929688 368.030273438 265.856445312 364.060546875 c 6
163.4921875 196.360351562 m 5
 203.0390625 162.959960938 254.853515625 142.747070312 309.475585938 142.747070312 c 4
 364.310546875 142.747070312 411.552734375 163.415039062 445.916015625 196.360351562 c 5
 385.974609375 196.360351562 l 6
 360.447265625 196.360351562 345.758789062 227.625976562 342.145507812 231.239257812 c 6
 341.856445312 231.52734375 l 5
 279.106445312 343.653320312 l 6
 279.106445312 343.653320312 275.849609375 343.477539062 272.275390625 343.477539062 c 4
 270.071289062 343.477539062 268.6796875 343.6875 266.69921875 343.811523438 c 6
 267.455078125 226.494140625 l 5
 267.455078125 226.494140625 269 218.375976562 275.537109375 215.005859375 c 4
 279.336914062 213.046875 283.220703125 212.510742188 286.375 212.510742188 c 6
 293.375 212.510742188 l 5
 293.375 196.360351562 l 5
 163.4921875 196.360351562 l 5
EndSplineSet
Validated: 1
EndChar

StartChar: copyright
Encoding: 169 169 183
GlifName: copyright
Width: 621
VWidth: 0
Flags: W
HStem: 39.8672 52.4971<227.967 409.497> 145.269 33.6953<292.679 398.266> 477.563 20.0713<290.741 342.815> 548.883 50.25<226.367 407.895>
VStem: 27.0049 61.4209<228.402 410.924> 142.917 95.7344<239.479 422.321> 530.068 60.9268<220.164 419.91>
LayerCount: 2
Fore
SplineSet
438.463867188 227.4375 m 1
 457.502929688 203.6171875 l 1
 417.853515625 164.856445312 403.245117188 145.268554688 308.46875 145.268554688 c 0
 222.643554688 145.268554688 142.916992188 193.53515625 142.916992188 331.076171875 c 0
 142.916992188 394.4140625 168.4375 497.634765625 318.974609375 497.634765625 c 0
 359.29296875 497.634765625 412.147460938 485.515625 450.901367188 441.563476562 c 0
 453.350585938 438.784179688 455.295898438 435.53515625 455.295898438 431.686523438 c 0
 455.295898438 416.213867188 422.427734375 392.92578125 409.790039062 392.92578125 c 0
 354.336914062 392.92578125 370.708984375 477.563476562 318.157226562 477.563476562 c 0
 274.9453125 477.563476562 238.651367188 417.389648438 238.651367188 339.706054688 c 0
 238.651367188 278.247070312 266.169921875 178.963867188 339.702148438 178.963867188 c 0
 369.078125 178.963867188 401.732421875 190.16796875 438.463867188 227.4375 c 1
88.42578125 320.163085938 m 0
 88.42578125 198.487304688 197.68359375 92.3642578125 320.290039062 92.3642578125 c 0
 442.267578125 92.3642578125 530.068359375 197.598632812 530.068359375 320.163085938 c 0
 530.068359375 442.676757812 440.444335938 548.8828125 318.450195312 548.8828125 c 0
 195.931640625 548.8828125 88.42578125 441.935546875 88.42578125 320.163085938 c 0
27.0048828125 319.02734375 m 0
 27.0048828125 475.39453125 162.736328125 599.1328125 318.450195312 599.1328125 c 0
 474.623046875 599.1328125 590.995117188 474.748046875 590.995117188 319.02734375 c 0
 590.995117188 163.352539062 476.52734375 39.8671875 320.33984375 39.8671875 c 0
 164.704101562 39.8671875 27.0048828125 162.577148438 27.0048828125 319.02734375 c 0
EndSplineSet
Validated: 1
EndChar

StartChar: degree
Encoding: 176 176 185
GlifName: degree
Width: 206
VWidth: 0
Flags: W
HStem: 483.176 59.5488<70.7275 131.38> 613.035 55.7168<70.488 131.732>
VStem: 9.26172 57.9141<546.39 609.682> 134.824 57.2363<545.477 610.531>
LayerCount: 2
Fore
SplineSet
67.17578125 578.879882812 m 0
 67.17578125 560.940429688 82.291015625 542.724609375 102.331054688 542.724609375 c 0
 118.557617188 542.724609375 134.82421875 558.127929688 134.82421875 577.879882812 c 0
 134.82421875 595.985351562 120.205078125 613.03515625 102.331054688 613.03515625 c 0
 83.49609375 613.03515625 67.17578125 598.135742188 67.17578125 578.879882812 c 0
9.26171875 573.575195312 m 0
 9.26171875 622.194335938 48.005859375 668.751953125 98.0791015625 668.751953125 c 0
 147.510742188 668.751953125 192.060546875 624.198242188 192.060546875 574.76953125 c 0
 192.060546875 525.323242188 148.932617188 483.17578125 99.6689453125 483.17578125 c 0
 50.375 483.17578125 9.26171875 524.28125 9.26171875 573.575195312 c 0
EndSplineSet
Validated: 1
EndChar

